<svg width="131" height="131" viewBox="0 0 131 131" fill="none" xmlns="http://www.w3.org/2000/svg">
<path fill-rule="evenodd" clip-rule="evenodd" d="M69.4298 1.95117L69.4611 1.98871L80.757 3.54348L91.1062 6.92689L100.659 12.3004L109.216 19.2656L116.382 27.2275L122.948 36.978L126.331 47.7234L126.333 47.7278L128.321 58.07L128.322 58.0754L128.919 69.417L126.729 80.1662L123.348 90.7071L123.347 90.7107L123.345 90.7139L118.174 100.261L118.172 100.263L111.209 109.216L111.207 109.219L111.204 109.221L102.851 116.58L102.848 116.582L102.846 116.584L92.6986 122.951L82.9446 126.335L72.3992 128.722H61.2542L50.1138 127.131L50.1096 127.13L50.1057 127.129L39.7636 123.35L39.7609 123.349L39.7583 123.347L30.2084 118.175L21.651 111.209L14.2875 103.05L8.51603 93.2979L4.5359 82.9496L2.34668 72.2025V60.8589L3.93872 50.3117L7.32189 39.9631L12.4965 30.211L19.6627 21.6513L27.8198 14.2906L36.7759 8.5189L47.7217 4.33957L58.8662 2.15049L69.4298 1.95117ZM69.2127 2.03484L58.9647 2.2282L64.0415 7.305L69.2997 2.04681L69.2127 2.03484ZM69.3658 2.09316L64.1323 7.32665L69.0566 7.61075C69.1646 5.66425 69.2818 3.57827 69.3658 2.09316ZM69.0522 7.69018L64.1325 7.40635L68.7782 12.8263C68.7988 12.3088 68.9178 10.1161 69.0522 7.69018ZM68.7283 12.8903L64.0877 7.47632L64.3885 12.8903H68.7283ZM64.3088 12.8903L64.0081 7.47651L60.141 12.8903H64.3088ZM60.0918 12.8224L63.9567 7.41149L59.5494 7.94038L60.0918 12.8224ZM59.5406 7.8613L63.9555 7.33151L58.9225 2.2985L59.5406 7.8613ZM58.7765 2.24919L47.8361 4.39819L54.0877 8.50083L58.7765 2.24919ZM53.9999 8.53832L49.3185 9.73162L47.8007 4.47015L53.9999 8.53832ZM47.6425 4.45498L36.9082 8.55354L43.9279 11.0884C43.9328 11.0762 43.9389 11.0618 43.9462 11.0456C43.9654 11.0032 43.9934 10.9459 44.0291 10.8756C44.1007 10.7348 44.2043 10.5404 44.3322 10.3051C44.5883 9.83429 44.9426 9.19889 45.3363 8.50025C46.1007 7.14358 47.0136 5.54789 47.6425 4.45498ZM43.8552 11.1468L36.8883 8.63095L39.7794 13.2773L43.8552 11.1468ZM39.7087 13.3143L36.8116 8.65831L35.2602 15.6396L39.7087 13.3143ZM35.1527 15.8033L31.3541 18.7253L34.3788 22.5749L35.1527 15.8033ZM34.3148 22.6222L31.291 18.7738L27.5453 21.6551L34.3148 22.6222ZM27.4906 21.5968L31.2419 18.7112L27.878 14.43L27.4906 21.5968ZM27.9408 14.3811L35.1082 15.7371L31.3049 18.6627L27.9408 14.3811ZM27.9493 14.3018L35.1724 15.6683L36.7341 8.64046L27.9493 14.3018ZM27.7991 14.4164L19.7931 21.6414H27.4086L27.7991 14.4164ZM27.4092 21.7762L23.9357 25.3436L27.6028 28.5523L27.4092 21.7762ZM27.5479 28.61L23.8801 25.4007L20.1896 29.1909L27.5479 28.61ZM20.1224 29.1459L23.8202 25.3482L19.7343 21.7731L20.1224 29.1459ZM19.7955 21.7209H27.352L23.8757 25.2911L19.7955 21.7209ZM19.6552 21.7842L12.6258 30.1805L20.0458 29.2042L19.6552 21.7842ZM20.0722 29.3343L17.5436 33.174L21.8131 35.7175L20.0722 29.3343ZM21.771 35.785L17.4998 33.2405L14.8047 37.3331L21.771 35.785ZM14.7308 37.3007L17.4314 33.1997L12.5978 30.3202L14.7308 37.3007ZM12.6485 30.2578L20.0063 29.2896L17.4752 33.1332L12.6485 30.2578ZM12.5198 30.3369L7.44148 39.9075L14.6683 37.3684L12.5198 30.3369ZM14.7147 37.4992L12.7468 42.0254L17.0357 43.6884L14.7147 37.4992ZM16.9998 43.7598L12.7151 42.0984L10.8166 46.465L16.9998 43.7598ZM10.7367 46.4493L12.6409 42.0696L7.44202 40.0538L10.7367 46.4493ZM7.4734 39.9806L14.6446 37.461L12.6726 41.9966L7.4734 39.9806ZM7.36687 40.0816L4.04699 50.2365L10.6867 46.5261L7.36687 40.0816ZM10.6778 46.6222L9.45288 51.3333L4.09215 50.3024L10.6778 46.6222ZM4.06435 50.3781L8.13781 56.3913L9.43282 51.4105L4.06435 50.3781ZM9.51111 51.4255L8.21923 56.3943L14.2179 52.3307L9.51111 51.4255ZM14.2667 52.3937L8.2631 56.4607L13.5417 57.1578L14.2667 52.3937ZM13.5297 57.2365L8.19056 56.5313L7.82987 61.1302L12.8936 61.4168L13.5297 57.2365ZM12.8319 61.493L7.40626 66.5311L7.82364 61.2095L12.8319 61.493ZM7.75042 61.1257L8.10727 56.5759C7.21217 57.3044 5.89031 58.3648 4.74275 59.2526C4.15342 59.7084 3.60972 60.119 3.19328 60.4157C2.98513 60.564 2.80825 60.6843 2.67311 60.7676C2.63304 60.7923 2.59639 60.8139 2.56351 60.8321L7.75042 61.1257ZM2.4349 60.8075C2.4444 60.8035 2.45497 60.7987 2.46663 60.793C2.50963 60.7721 2.56485 60.7409 2.63136 60.6999C2.76426 60.618 2.93946 60.4989 3.14712 60.3509C3.56227 60.0551 4.10499 59.6453 4.69407 59.1896C5.8598 58.2879 7.20574 57.2075 8.10083 56.4786L4.0017 50.4275L2.4349 60.8075ZM2.42623 60.969V72.0942L7.30572 66.6292L2.42623 60.969ZM7.32946 66.7221L7.87161 71.3303L2.4896 72.1427L7.32946 66.7221ZM2.44616 72.2923L4.59371 82.8348L8.49834 76.7826L2.44616 72.2923ZM8.53816 76.8676L9.78952 81.158L4.66898 82.8649L8.53816 76.8676ZM4.64816 83.0198L8.55269 93.1716L11.2859 86.3387L4.64816 83.0198ZM11.3396 86.4186L13.37 90.6727L8.62927 93.1943L11.3396 86.4186ZM8.63515 93.343L14.2969 102.909L15.4684 95.1001L8.63515 93.343ZM15.5379 95.173L21.5959 103.576L14.3653 102.99L15.5379 95.173ZM14.4164 103.074L21.6387 111.077V103.659L14.4164 103.074ZM21.7183 103.717L28.7481 110.551L21.7183 111.137V103.717ZM21.7801 111.212L30.172 118.042L28.8059 110.626L21.7801 111.212ZM28.894 110.666L32.9988 113.243L30.2502 118.028L28.894 110.666ZM30.3332 118.152L39.7087 123.23L37.3648 116.003L30.3332 118.152ZM37.457 116.03L41.6933 118.056L39.7799 123.192L37.457 116.03ZM39.8837 123.309L50.0358 127.018L46.5216 120.381L39.8837 123.309ZM46.6148 120.386L51.3603 121.431L50.1043 126.978L46.6148 120.386ZM50.2229 127.066L61.1655 128.629L56.4758 122.572L50.2229 127.066ZM56.5705 122.564L66.1445 123.345L61.2598 128.621L56.5705 122.564ZM61.3481 128.643H72.2885L66.2322 123.368L61.3481 128.643ZM66.3235 123.342L71.4037 122.767L72.338 128.58L66.3235 123.342ZM72.4831 128.622L82.8375 126.277L76.7811 122.175L72.4831 128.622ZM76.8626 122.134L81.2223 120.862L82.8645 126.199L76.8626 122.134ZM83.0136 126.227L92.5848 122.906L86.3342 119.39L83.0136 126.227ZM86.4024 119.337L90.2775 117.443L92.598 122.822L86.4024 119.337ZM92.753 122.823L102.72 116.569L95.2936 115.006L92.753 122.823ZM95.3642 114.939L99.3657 112.109L102.727 116.489L95.3642 114.939ZM102.872 116.455L111.072 109.231H103.458L102.872 116.455ZM103.514 109.152L106.929 105.541L111.072 109.152H103.514ZM111.207 109.089L118.041 100.302L110.426 101.864L111.207 109.089ZM110.282 101.881L103.518 102.461L106.924 105.43L110.282 101.881ZM106.984 105.483L111.127 109.095L110.352 101.923L106.984 105.483ZM110.468 101.775L113.233 97.5277L118.026 100.224L110.468 101.775ZM118.149 100.14L123.226 90.7667L116.001 93.3053L118.149 100.14ZM116.032 93.21L118.3 88.7729L123.196 90.6929L116.032 93.21ZM123.304 90.5826L126.618 80.2515L120.575 84.345L123.304 90.5826ZM120.446 84.3981L113.285 86.7208L118.262 88.6725L120.446 84.3981ZM118.336 88.7017L123.235 90.6229L120.523 84.4235L118.336 88.7017ZM118.225 88.7437L113.24 86.7888L115.954 93.1866L118.225 88.7437ZM113.087 86.7774L106.714 88.3224L110.955 90.5781L113.087 86.7774ZM110.987 90.6849L115.836 93.2646L108.67 94.8141L110.987 90.6849ZM110.916 90.6475L106.669 88.3884L108.603 94.7707L110.916 90.6475ZM108.521 94.7752L106.589 88.3978L104.178 91.8136L108.521 94.7752ZM104.112 91.7688L106.521 88.3555L99.9556 88.9348L104.112 91.7688ZM99.9141 88.8586L106.464 88.2807L101.693 85.7956L99.9141 88.8586ZM101.733 85.7267L106.502 88.2105L103.421 82.8192L101.733 85.7267ZM103.513 82.8199L106.597 88.2167L108.004 84.6528L103.513 82.8199ZM108.077 84.6829L113.038 86.7076L106.669 88.2516L108.077 84.6829ZM108.106 84.6089L109.594 80.8403L113.071 86.6353L108.106 84.6089ZM109.676 80.8216L113.155 86.6213L114.499 82.4L109.676 80.8216ZM114.574 82.4248L120.397 84.3304L113.228 86.6555L114.574 82.4248ZM113.162 86.8074L111.025 90.6155L115.871 93.1926L113.162 86.8074ZM114.598 82.3489L115.965 78.0537L120.422 84.2549L114.598 82.3489ZM116.043 78.0255L120.504 84.2324L121.484 79.134L116.043 78.0255ZM121.562 79.1498L120.583 84.2438L126.59 80.1741L121.562 79.1498ZM126.671 80.0534L128.819 69.5056L122.569 73.9982L126.671 80.0534ZM122.559 73.9074L123.146 63.9339L128.817 69.4096L122.559 73.9074ZM128.834 69.3153L128.247 58.1757L123.166 63.8432L128.834 69.3153ZM123.145 63.7478L122.862 59.1217L128.175 58.1379L123.145 63.7478ZM128.225 57.9896L126.274 47.8458L122.568 54.0881L128.225 57.9896ZM122.526 54.0021L121.1 49.3446L126.207 47.803L122.526 54.0021ZM126.227 47.6578L122.905 37.1059L119.583 44.3359L126.227 47.6578ZM119.53 44.2614L117.399 39.9028L122.828 37.0842L119.53 44.2614ZM122.825 36.9369L116.373 27.3575L115.2 35.3729L122.825 36.9369ZM115.13 35.3065L111.833 31.0826L116.294 27.3474L115.13 35.3065ZM116.26 27.2102L109.224 19.3928L108.833 27.2102H116.26ZM108.756 27.1567L105.384 23.6883L109.143 19.4065L108.756 27.1567ZM109.09 19.2652L100.692 12.4295L101.864 20.0464L109.09 19.2652ZM101.778 20.0112L97.5477 17.4156L100.614 12.4463L101.778 20.0112ZM100.537 12.3231L91.1518 7.0438L93.1071 14.6695L100.537 12.3231ZM93.0188 14.6455L88.8166 12.5444L91.0812 7.08877L93.0188 14.6455ZM90.9795 6.96915L80.8247 3.64931L83.9492 10.0937L90.9795 6.96915ZM83.8582 10.0884L79.3691 9.05961L80.7594 3.69703L83.8582 10.0884ZM80.6409 3.6078L69.5367 2.07942L74.391 7.9046L80.6409 3.6078ZM74.2943 7.91292L69.1361 7.61533C69.244 5.66808 69.3614 3.58058 69.4455 2.09426L74.2943 7.91292ZM74.2856 7.99211L69.1317 7.69476C68.9962 10.1394 68.8764 12.3462 68.8572 12.8389L74.2856 7.99211ZM68.812 12.9969L64.7143 18.0702L72.9096 19.0458L68.812 12.9969ZM72.9098 19.1259L64.7257 18.1517L68.8178 23.6077L72.9098 19.1259ZM68.7352 23.6302H64.8827L64.6826 18.2267L68.7352 23.6302ZM64.6721 17.9958L64.3929 12.9699H68.7315L64.6721 17.9958ZM64.5921 17.989L64.3132 12.9699H60.152L64.5921 17.989ZM60.0142 12.8444L59.4704 7.94986L54.2019 8.58207L60.0142 12.8444ZM59.9666 12.9082L54.1594 8.64959L55.3249 13.797L59.9666 12.9082ZM55.2467 13.812L54.0815 8.66577L50.7915 14.6651L55.2467 13.812ZM50.7275 14.6164L54.0182 8.61574L49.3405 9.8081L50.7275 14.6164ZM50.6519 14.6411L49.2634 9.82776L44.0636 11.1532L50.6519 14.6411ZM43.8938 11.2164L39.8215 13.3451L42.347 17.4038L43.8938 11.2164ZM43.965 11.2595L42.4189 17.4439L46.2261 16.1748L43.965 11.2595ZM46.2595 16.2475L42.459 17.5144L48.4397 20.987L46.2595 16.2475ZM48.4437 21.0814L42.3926 17.5678L41.2214 24.595L48.4437 21.0814ZM41.1468 24.5587L42.3087 17.5871L38.2554 20.2217L41.1468 24.5587ZM38.2113 20.1555L42.2645 17.5209L35.293 15.7781L38.2113 20.1555ZM42.2771 17.4421L39.7508 13.382L35.314 15.7013L42.2771 17.4421ZM38.1446 20.1989L34.4564 22.5962L35.23 15.827L38.1446 20.1989ZM34.3164 22.7028L27.5468 21.7357L30.9737 25.6521L34.3164 22.7028ZM30.9141 25.7048L27.4892 21.7906L27.6825 28.5562L30.9141 25.7048ZM27.5563 28.6891L20.1986 29.27L24.5571 32.4122L27.5563 28.6891ZM24.5071 32.4742L20.1554 29.3369L21.8953 35.7165L24.5071 32.4742ZM21.7957 35.861L14.8327 37.4084L19.4305 39.8031L21.7957 35.861ZM19.3894 39.8714L14.7912 37.4765L17.1124 43.6665L19.3894 39.8714ZM17.0388 43.8296L10.8504 46.537L15.6378 48.1328L17.0388 43.8296ZM15.6132 48.2085L10.8316 46.6146L14.3084 52.2161L15.6132 48.2085ZM14.3452 52.4066L13.6206 57.1683L18.6036 57.8264L14.3452 52.4066ZM14.3849 52.3284L18.6778 57.792L20.8242 49.9868L14.3849 52.3284ZM20.9032 49.9996L18.7597 57.794L24.9953 54.0917L20.9032 49.9996ZM25.0075 54.177L18.818 57.852L24.3493 58.4554L25.0075 54.177ZM24.3371 58.5341L18.8318 57.9335L23.8372 61.7838L24.3371 58.5341ZM23.7435 61.8121L18.7278 57.9539L18.3705 61.6167L23.7435 61.8121ZM18.2908 61.6138L18.6478 57.9548L13.0593 61.4236L18.2908 61.6138ZM12.8877 61.5498L7.46658 66.5837L12.8877 66.2768V61.5498ZM12.8877 66.3565L7.47373 66.663L12.8877 70.5301V66.3565ZM12.8245 70.5827L7.40864 66.7142L7.95031 71.3184L12.8245 70.5827ZM7.88091 71.4094L2.48698 72.2235L8.50169 76.6861L7.88091 71.4094ZM7.95961 71.3975L12.8409 70.6607L8.57938 76.6655L7.95961 71.3975ZM8.61434 76.8447L9.86505 81.1329L14.6084 79.5517L8.61434 76.8447ZM14.6389 79.6254L9.88734 81.2093L11.3462 86.211L14.6389 79.6254ZM11.4496 86.3122L17.8351 88.2472L16.334 84.1192L11.4496 86.3122ZM16.4068 84.0866L17.9054 88.2078L20.9964 82.0259L16.4068 84.0866ZM21.0814 82.0339L17.9598 88.277L24.5931 89.2525L21.0814 82.0339ZM24.5496 89.3265L17.9778 88.36L20.2283 92.0508L24.5496 89.3265ZM20.1609 92.0933L17.9093 88.4006L15.5886 94.9758L20.1609 92.0933ZM15.6198 95.0502L20.2024 92.1612L22.7913 96.407L15.6198 95.0502ZM22.8262 96.4946L15.6036 95.1281L21.655 103.522L22.8262 96.4946ZM21.7265 103.577L28.1639 102.796L22.8969 96.5541L21.7265 103.577ZM28.2885 102.916L32.2384 106.119L28.8702 110.478L28.2885 102.916ZM28.7907 110.482L28.2053 102.872L21.7659 103.652L28.7907 110.482ZM28.9372 110.599L33.0385 113.174L35.5186 108.857L28.9372 110.599ZM35.586 108.899L33.1059 113.216L37.328 115.867L35.586 108.899ZM37.485 115.955L41.7212 117.981L43.4855 113.245L37.485 115.955ZM43.5582 113.278L41.7932 118.015L46.4627 120.248L43.5582 113.278ZM46.4442 120.328L41.7653 118.09L39.8474 123.238L46.4442 120.328ZM46.6423 120.311L51.3779 121.353L52.446 116.635L46.6423 120.311ZM52.5244 116.65L51.4556 121.37L56.3959 122.457L52.5244 116.65ZM56.3882 122.537L51.438 121.448L50.1813 126.998L56.3882 122.537ZM56.5774 122.485L66.1389 123.265L61.6509 117.801L56.5774 122.485ZM61.7375 117.782L65.9849 117.687L66.1852 123.196L61.7375 117.782ZM66.3171 123.263L71.3911 122.688L70.5802 117.643L66.3171 123.263ZM70.6596 117.635L71.4702 122.679L76.6655 122.091L70.6596 117.635ZM76.8451 122.056L81.1989 120.786L79.7453 116.062L76.8451 122.056ZM79.8194 116.032L81.2752 120.764L86.21 119.324L79.8194 116.032ZM86.3814 119.259L90.2459 117.37L88.3123 112.887L86.3814 119.259ZM88.3767 112.835L90.3175 117.335L95.1597 114.967L88.3767 112.835ZM95.3192 114.873L99.3172 112.046L96.2872 108.097L95.3192 114.873ZM96.3542 108.054L103.319 109.215L99.3822 112L96.3542 108.054ZM96.3573 107.974L103.318 109.134L99.8879 105.228L96.3573 107.974ZM99.9508 105.179L103.381 109.086V102.511L99.9508 105.179ZM103.461 102.517V109.092L106.869 105.488L103.461 102.517ZM103.501 102.383L110.082 101.819L106.099 98.5862L103.501 102.383ZM106.144 98.5203L110.196 101.809L110.332 101.797L108.576 94.9665L106.144 98.5203ZM108.654 94.952L110.398 101.735L113.163 97.4886L108.654 94.952ZM113.276 97.4609L118.071 100.158L115.938 93.3729L113.276 97.4609ZM115.865 93.3398L113.207 97.4218L108.703 94.8884L115.865 93.3398ZM108.469 94.8355L104.132 91.8786L101.908 95.0284L108.469 94.8355ZM101.843 94.9825L104.066 91.8338L99.9147 89.0033L101.843 94.9825ZM101.753 94.9605L99.8255 88.986L97.5518 91.7144L101.753 94.9605ZM97.4889 91.6657L99.762 88.938L93.2108 88.3599L97.4889 91.6657ZM93.1564 88.2753L99.7738 88.8591L97.049 83.4096L93.1564 88.2753ZM97.1472 83.4281L101.622 85.7588L99.8438 88.8213L97.1472 83.4281ZM97.1947 83.3632L101.662 85.6899L103.348 82.7863L97.1947 83.3632ZM97.0229 83.3148L99.8034 77.5553L101.194 71.3967L101.79 65.0385L101.194 58.682L99.4062 52.9208L96.6245 46.96L93.0481 41.9928L88.8762 37.4235L83.3139 33.6491L77.7507 31.0662L71.5924 29.2783L65.036 28.8809L58.8775 29.2783L52.9177 31.0662L47.1558 33.6491L41.7922 37.4235L37.4214 41.993L33.6463 47.3576L31.0641 52.9193L29.6732 59.0788L28.8786 65.4362L29.6732 71.3962L31.0641 77.9533L33.6463 83.3163L37.4214 88.8796L41.7915 93.2496L47.1554 96.8256L52.9172 99.4084L58.878 100.998L65.4335 101.793L71.5917 100.998L77.7513 99.4084L83.3143 96.8256L88.8758 93.2503L93.048 88.2835L93.0486 88.2828L97.0229 83.3148ZM93.1486 88.4124L97.4379 91.7268L94.8873 94.7875L93.1486 88.4124ZM94.8124 94.8154L93.0606 88.3921L88.9731 93.2582L94.8124 94.8154ZM88.8691 93.3492L83.4187 96.8531L89.453 99.3836L88.8691 93.3492ZM89.4096 99.4516L83.4433 96.9496L86.3718 101.201L89.4096 99.4516ZM86.3026 101.241L83.3661 96.9778L82.9801 103.153L86.3026 101.241ZM82.9006 103.15L83.2897 96.9247L77.8426 99.4537L82.9006 103.15ZM77.7099 99.5013L71.6749 101.059L76.1525 105.731L77.7099 99.5013ZM76.0928 105.784L71.6723 101.171L72.9105 106.314L76.0928 105.784ZM72.8318 106.327L71.5884 101.162L69.0792 106.952L72.8318 106.327ZM69.0056 106.922L71.5349 101.086L65.5036 101.864L69.0056 106.922ZM65.3654 101.864L58.9415 101.086L62.0561 106.926L65.3654 101.864ZM61.9797 106.952L58.8624 101.107L54.771 105.783L61.9797 106.952ZM54.7122 105.729L58.7984 101.059L52.961 99.5024L54.7122 105.729ZM52.8251 99.4543L47.182 96.9247L47.7658 103.151L52.8251 99.4543ZM47.686 103.152L47.1016 96.9188L41.2579 99.4511L47.686 103.152ZM41.2155 99.3827L47.0532 96.8531L41.7993 93.3505L41.2155 99.3827ZM41.6888 93.2594L37.4096 88.9802L35.659 94.8155L41.6888 93.2594ZM35.584 94.7887L37.3361 88.9483L31.1063 89.3376L35.584 94.7887ZM31.0885 89.259L37.3185 88.8697L33.6195 83.4184L31.0885 89.259ZM33.5484 83.2964L31.0216 78.0483L27.7172 83.2964H33.5484ZM27.6544 83.2468L30.9638 77.9907L25.1237 76.4334L27.6544 83.2468ZM25.1334 76.3536L30.9739 77.9111L29.6111 71.4866L25.1334 76.3536ZM29.5861 71.3443L28.8083 65.5114L23.9475 69.4L29.5861 71.3443ZM23.9061 69.3313L28.7167 65.4828L23.9061 65.7452V69.3313ZM23.9061 65.6655L28.7237 65.4027L23.9061 61.934V65.6655ZM23.9437 61.8631L28.8073 65.3649L29.5855 59.1395L23.9437 61.8631ZM29.6119 58.9892L30.9739 52.9574L25.1368 54.1249L29.6119 58.9892ZM25.1176 54.0476L25.9297 51.4489L30.8602 52.8991L25.1176 54.0476ZM31.0178 52.8302L33.5476 47.3813L27.1257 47.7705L31.0178 52.8302ZM27.1223 47.691L33.5501 47.3015L30.8232 41.6528L27.1223 47.691ZM30.8926 41.6137L33.6182 47.2594L37.3171 42.003L30.8926 41.6137ZM37.4096 41.8903L41.6905 37.4148L35.6583 35.8581L37.4096 41.8903ZM35.6844 35.7827L41.7212 37.3406L41.137 31.109L35.6844 35.7827ZM41.2153 31.0921L41.7993 37.3212L47.0552 33.6227L41.2153 31.0921ZM47.1823 33.5501L52.8232 31.0214L47.7658 27.5201L47.1823 33.5501ZM47.8163 27.4583L52.873 30.9591L53.6509 25.1244L47.8163 27.4583ZM53.7294 25.1376L52.9514 30.973L58.7868 29.2224L53.7294 25.1376ZM58.937 29.1947L64.9653 28.8058L61.6595 23.7497L58.937 29.1947ZM61.7284 23.7098L64.9909 28.6995L64.8061 23.7098H61.7284ZM64.8031 23.6302L64.6038 18.2495L61.7213 23.6302H64.8031ZM61.6766 23.5452L64.5669 18.1499L60.9427 18.5919L61.6766 23.5452ZM60.9311 18.5132L64.5582 18.0708L60.1227 13.0568L60.9311 18.5132ZM59.9855 12.9856L55.3425 13.8747L56.5002 18.9881L59.9855 12.9856ZM56.4209 18.998L55.2643 13.8896L50.8112 14.7424L56.4209 18.998ZM56.3936 19.0771L50.7875 14.8242L52.3089 20.0983L56.3936 19.0771ZM52.2316 20.1176L50.7127 14.8521L48.5897 21.0281L52.2316 20.1176ZM48.4797 21.1523L41.2655 24.662L47.6998 27.3917L48.4797 21.1523ZM47.6415 27.4533L41.2092 30.9618V24.7245L47.6415 27.4533ZM41.0756 24.5954L38.1887 20.2651L34.5015 22.6618L41.0756 24.5954ZM41.0812 24.68L34.5185 22.7497L37.9468 26.9847L41.0812 24.68ZM37.8826 27.0319L34.4471 22.7879V29.558L37.8826 27.0319ZM34.3675 29.5308L31.0261 25.712L34.3675 22.7637V29.5308ZM34.3063 29.5816L30.9665 25.7646L27.7357 28.6153L34.3063 29.5816ZM34.3232 29.6645L27.7696 28.7007L31.7261 32.2616L34.3232 29.6645ZM34.3825 29.7177L31.7853 32.3148L35.539 35.6932L34.3825 29.7177ZM35.4899 35.756L31.729 32.3712L28.7305 35.3697L35.4899 35.756ZM28.6674 35.3203L31.6698 32.3179L27.7005 28.7456L28.6674 35.3203ZM28.5865 35.3171L24.6218 32.4588L27.619 28.738L28.5865 35.3171ZM28.5256 35.3712L24.5718 32.5208L21.9647 35.7571L28.5256 35.3712ZM28.5648 35.4486L22.0014 35.8347L26.4998 38.7337L28.5648 35.4486ZM26.4575 38.8011L21.9552 35.8996L24.2736 42.2754L26.4575 38.8011ZM24.1917 42.2829L19.5011 39.8399L21.8686 35.8942L24.1917 42.2829ZM24.1447 42.3481L19.4601 39.9082L17.1841 43.7015L24.1447 42.3481ZM24.1965 42.4191L17.2443 43.7709L22.6283 45.9244L24.1965 42.4191ZM22.5958 45.9971L17.2007 43.8391L20.8775 49.838L22.5958 45.9971ZM20.792 49.8509L15.7133 48.158L17.1152 43.8519L20.792 49.8509ZM21.0214 50.0053L25.0412 54.0251L25.8533 51.4264L21.0214 50.0053ZM25.9534 51.373L30.9201 52.8338L27.0636 47.8203L25.9534 51.373ZM26.9321 47.7316L22.6697 46.0267L20.9733 49.8185C21.0009 49.805 21.033 49.7902 21.0692 49.7742C21.1922 49.7199 21.3656 49.6507 21.5774 49.5702C22.001 49.4092 22.5801 49.2027 23.2198 48.9806C24.4563 48.5513 25.9209 48.0632 26.9321 47.7316ZM26.9875 47.7972L25.8771 51.3505L20.9727 49.9081C21.0045 49.8911 21.0476 49.8707 21.1013 49.847C21.2224 49.7936 21.3943 49.7249 21.6056 49.6446C22.0282 49.484 22.6063 49.2778 23.2459 49.0558C24.4944 48.6223 25.9756 48.1288 26.9875 47.7972ZM26.9639 47.6587L22.7022 45.954L24.2667 42.4569L26.9639 47.6587ZM27.0514 47.6545L24.3258 42.398L30.7504 41.6193L27.0514 47.6545ZM30.9079 41.5349L37.3367 41.9245L35.5834 35.8854L30.9079 41.5349ZM35.6267 35.7274L41.082 31.0514L34.4577 29.6876L35.6267 35.7274ZM34.5029 29.6157L37.9327 27.0938L41.0686 30.9675L34.5029 29.6157ZM41.26 31.0247L47.1017 33.5561L47.6859 27.5197L41.26 31.0247ZM41.1297 30.9165L37.9969 27.0466L41.1297 24.7431V30.9165ZM35.5198 35.8374L28.6971 35.4475L30.8414 41.4905L35.5198 35.8374ZM30.7508 41.4732L26.5667 38.7768L28.6295 35.495L30.7508 41.4732ZM30.7132 41.5436L26.5244 38.8442L24.3422 42.3159L30.7132 41.5436ZM20.7621 49.9248L15.6886 48.2336L14.3828 52.2445L20.7621 49.9248ZM47.7806 27.3869L53.6198 25.0512L48.5591 21.1584L47.7806 27.3869ZM53.7082 24.9493L52.3309 20.1748L56.4124 19.1544L53.7082 24.9493ZM56.4713 19.2163L53.7677 25.0099L57.6737 24.3263L56.4713 19.2163ZM57.6919 24.4039L53.7925 25.0863L58.8051 29.135L57.6919 24.4039ZM58.884 29.1228L57.7704 24.3902L61.584 23.7228L58.884 29.1228ZM61.5666 23.6451L57.7522 24.3126L56.5512 19.2083L61.5666 23.6451ZM56.5764 19.1244L60.8637 18.6015L61.5995 23.568L56.5764 19.1244ZM56.5583 19.0464L60.8521 18.5228L60.0411 13.0484L56.5583 19.0464ZM53.6275 24.9568L52.2537 20.1941L48.6178 21.1031L53.6275 24.9568ZM48.5229 20.9777L46.3354 16.2222L50.6523 14.7833L48.5229 20.9777ZM50.6153 14.7117L46.302 16.1495L44.0391 11.2303L50.6153 14.7117ZM64.8857 23.7098L65.0714 28.7251L68.7365 23.7098H64.8857ZM68.809 23.7453L65.111 28.8058L71.5832 29.198L71.6177 29.162L68.809 23.7453ZM71.6231 29.1563L75.8922 24.6931L72.3174 24.1966L71.6231 29.1563ZM72.3285 24.1179L75.9027 24.6143L73.0139 19.2218L72.3285 24.1179ZM73.0692 19.1566L75.9883 24.6056L80.7947 21.145L80.7359 21.1224L73.0692 19.1566ZM80.8723 21.1872L76.0578 24.6536L79.3591 25.9159L80.8723 21.1872ZM79.3348 25.9918L76.0344 24.7299L77.7672 30.8906L79.3348 25.9918ZM77.707 30.9707L75.9553 24.7423L71.6733 29.2189L77.707 30.9707ZM77.8413 31.0206L83.2875 33.5491L82.704 27.325L77.8413 31.0206ZM82.7839 27.3255L83.3679 33.5546L88.8184 31.024L82.7839 27.3255ZM88.8626 31.0912L83.414 33.6209L88.8626 37.3182V31.0912ZM88.973 37.4116L93.0597 41.8874L94.8111 35.4656L88.973 37.4116ZM94.8871 35.4891L93.1414 41.89C93.1498 41.8843 93.1588 41.8781 93.1685 41.8712C93.2219 41.833 93.2921 41.7775 93.3776 41.7063C93.5485 41.5641 93.7784 41.3605 94.0535 41.1095C94.6036 40.6076 95.3329 39.9176 96.1292 39.153C96.4495 38.8454 96.7806 38.5258 97.1152 38.2015L94.8871 35.4891ZM97.1659 38.2632C96.8328 38.586 96.5032 38.9041 96.1843 39.2103C95.3879 39.9751 94.6579 40.6657 94.1071 41.1683C93.8317 41.4195 93.6008 41.624 93.4285 41.7675C93.3667 41.819 93.3121 41.8628 93.2656 41.8982L99.3685 40.9446L97.1659 38.2632ZM99.3758 41.024L93.1491 41.9969L96.6516 46.8615L99.3758 41.024ZM96.7234 46.9837L99.449 52.8242L102.953 47.3731L96.7234 46.9837ZM103.016 47.4232L99.5493 52.8153L104.349 50.6605L103.016 47.4232ZM104.379 50.7341L99.5755 52.8907L105.743 54.0472L104.379 50.7341ZM105.726 54.1249L99.501 52.9577L101.252 58.5994L105.726 54.1249ZM101.28 58.7406L101.863 64.9671L106.922 61.4647L101.28 58.7406ZM106.961 61.5345L101.957 64.9988H106.961V61.5345ZM106.961 65.0783H101.952L106.961 68.7391V65.0783ZM106.922 68.8091L101.863 65.112L101.279 71.3387L106.922 68.8091ZM101.257 71.4803L99.895 77.5108L105.731 75.76L101.257 71.4803ZM105.745 75.8388L99.9743 77.57L104.63 79.0904L105.745 75.8388ZM104.604 79.1656L99.9411 77.6429L103.409 82.6522L104.604 79.1656ZM103.35 82.7062L97.1232 83.29L99.8473 77.6472L103.35 82.7062ZM103.485 82.6773L104.68 79.1903L109.458 80.7504L103.485 82.6773ZM109.648 80.6805L115.822 77.9791L110.72 76.8787L109.648 80.6805ZM110.742 76.8019L115.846 77.9028L111.792 73.0772L110.742 76.8019ZM111.818 72.9216L112.007 69.1354L117.609 69.4466L111.818 72.9216ZM117.683 69.495L111.835 73.0042L115.929 77.878L117.683 69.495ZM116.059 77.9475L121.499 79.0558L122.458 74.0689L116.059 77.9475ZM122.535 74.0903L121.577 79.0717L126.603 80.0955L122.535 74.0903ZM122.449 73.9813L117.765 69.4924L116.009 77.8847L122.449 73.9813ZM117.699 69.3308L117.596 64.4868L112.273 65.0675L117.699 69.3308ZM112.288 64.9859L117.595 64.407L117.504 60.1557L112.288 64.9859ZM117.584 60.1425L117.674 64.3983L122.999 63.8174L117.584 60.1425ZM117.676 64.4782L117.779 69.3176L123.006 63.8967L117.676 64.4782ZM117.645 60.0878L123.066 63.7669L122.783 59.1363L117.645 60.0878ZM117.643 60.0072L122.778 59.0563L122.481 54.2022L117.643 60.0072ZM122.391 54.0859L115.806 50.987L116.657 55.3369L122.391 54.0859ZM116.58 55.3539L115.73 51.013L111.671 56.4247L116.58 55.3539ZM111.591 56.3995L115.646 50.9934L110.466 52.6508L111.591 56.3995ZM110.444 52.5746L115.629 50.9151L109.25 48.5954L110.444 52.5746ZM109.3 48.529L115.685 50.8508L114.1 46.5906L109.3 48.529ZM114.173 46.5608L115.76 50.8244L119.439 44.4343L114.173 46.5608ZM115.863 50.9257L122.45 54.0255L121.024 49.3676L115.863 50.9257ZM115.837 50.8505L121.001 49.2915L119.52 44.4535L115.837 50.8505ZM121.077 49.2685L126.186 47.7262L119.596 44.4313L121.077 49.2685ZM114.146 46.4862L112.635 42.4253L119.409 44.3607L114.146 46.4862ZM112.677 42.3546L119.456 44.2915L117.328 39.9395L112.677 42.3546ZM112.643 42.2826L117.293 39.868L115.16 35.5051L112.643 42.2826ZM115.064 35.3519L111.772 31.1337L107.891 34.3826L115.064 35.3519ZM107.842 34.3197L111.723 31.071L108.817 27.3477C108.651 28.4744 108.411 30.1325 108.209 31.5614C108.105 32.2956 108.012 32.9692 107.945 33.4791C107.911 33.7341 107.884 33.948 107.865 34.108C107.855 34.1963 107.847 34.2674 107.842 34.3197ZM108.7 27.2129L105.331 23.7483L102.119 27.4064L108.7 27.2129ZM102.066 27.3464L105.276 23.691L101.873 20.1908L102.066 27.3464ZM101.726 20.073L97.5059 17.4833L94.9527 21.6212L101.726 20.073ZM94.92 21.5228L97.4381 17.4417L93.1474 14.8087C93.4778 15.9023 93.9476 17.5067 94.3207 18.8913C94.513 19.605 94.6798 20.2608 94.7885 20.7584C94.8429 21.007 94.8829 21.2169 94.9044 21.375C94.9119 21.4304 94.9172 21.4799 94.92 21.5228ZM92.9956 14.8L86.8074 17.5073L90.6961 19.4991L92.9956 14.8ZM90.6611 19.5706L86.7767 17.581L88.5152 23.9556L90.6611 19.5706ZM88.4456 24.0025L86.7071 17.6282L84.6943 22.5596L88.4456 24.0025ZM84.62 22.5311L86.6315 17.6029L80.9935 21.1024L81.0046 21.1405L84.62 22.5311ZM81.0325 21.2365L84.5899 22.6048L82.7432 27.1292L81.0325 21.2365ZM81.0412 20.9791L86.6241 17.5139L82.4418 15.9931C82.3562 16.3146 82.2715 16.6315 82.1886 16.9403C81.8836 18.0762 81.6026 19.1027 81.3879 19.8516C81.2805 20.2259 81.1897 20.5312 81.1206 20.7461C81.0897 20.8421 81.0631 20.9205 81.0412 20.9791ZM82.4623 15.9159L86.6468 17.4375L83.9374 10.2771C83.543 11.8081 82.9866 13.9451 82.4623 15.9159ZM84.0034 10.2268L86.7163 17.3966L88.7147 12.5824L84.0034 10.2268ZM88.7453 12.5087L91.0152 7.04033L84.0234 10.1478L88.7453 12.5087ZM88.786 12.6181L86.7893 17.4284L92.9853 14.7177L88.786 12.6181ZM83.834 10.1644L79.3491 9.13665L78.0292 14.2278L83.834 10.1644ZM77.9499 14.2168L79.2715 9.11887L74.4624 8.01677L77.9499 14.2168ZM74.4081 8.08261L73.714 13.6354L77.8889 14.2707L74.4081 8.08261ZM77.8778 14.3495L73.7042 13.7144L73.0448 18.9892L77.8778 14.3495ZM73.0705 19.0748L80.7624 21.0471L80.8719 21.0895L80.8975 21.071L77.9501 14.3904L73.0705 19.0748ZM78.0376 14.3916L82.3667 15.9658C82.2805 16.2896 82.1952 16.6087 82.1118 16.9196C81.8068 18.0554 81.5259 19.0815 81.3114 19.8296C81.2041 20.2038 81.1135 20.5081 81.0448 20.7218C81.0105 20.8287 80.9818 20.9124 80.9593 20.9707C80.9562 20.9789 80.9531 20.9865 80.9503 20.9936L78.0376 14.3916ZM78.049 14.3111L82.3872 15.8886C82.9129 13.9126 83.4706 11.7702 83.8648 10.24L78.049 14.3111ZM80.9451 21.2208L79.4335 25.9443L82.6764 27.1843L80.9451 21.2208ZM82.816 27.2518L88.8583 30.9552L88.4685 24.1331L82.816 27.2518ZM88.5491 24.1493L88.9351 30.9037L91.7571 26.4824L88.5491 24.1493ZM91.8216 26.5293L88.9982 30.9526L94.9834 28.8288L91.8216 26.5293ZM95.0264 28.898L88.9865 31.0412L94.8315 35.3275L95.0264 28.898ZM94.9121 35.2971L98.0173 31.8468L95.1049 28.9343L94.9121 35.2971ZM95.1486 28.8655L98.0706 31.7875L101.919 27.5114L95.1486 28.8655ZM101.967 27.5768L98.127 31.8439L100.809 34.526L101.967 27.5768ZM100.751 34.58L98.0737 31.9031L94.9709 35.3506L100.751 34.58ZM94.9451 35.4343L97.1725 38.146C98.4462 36.9109 99.7641 35.6147 100.724 34.6639L94.9451 35.4343ZM100.768 34.7318C99.8082 35.6829 98.4935 36.9759 97.2232 38.2076L99.4221 40.8846L100.768 34.7318ZM100.856 34.7032L99.4922 40.9364L105.725 41.326L100.856 34.7032ZM105.681 41.4029L99.514 41.0175L101.269 44.1375C102.832 43.1751 104.482 42.1506 105.681 41.4029ZM101.201 44.1793L99.4467 41.0602L96.7387 46.8631C96.7913 46.8364 96.8643 46.7966 96.9559 46.745C97.1408 46.6409 97.3998 46.4894 97.7157 46.3013C98.3476 45.9252 99.2064 45.4033 100.154 44.8229C100.494 44.6145 100.845 44.3986 101.201 44.1793ZM96.8208 46.9101C96.8685 46.8848 96.9268 46.8527 96.9949 46.8143C97.1807 46.7098 97.4403 46.5579 97.7564 46.3697C98.3887 45.9933 99.2479 45.4712 100.195 44.8907C100.534 44.6828 100.885 44.4675 101.24 44.2487L102.953 47.2933L96.8208 46.9101ZM103.088 47.3907L104.421 50.6279L109.058 48.5461L103.088 47.3907ZM103.081 47.3082L109.119 48.4769L105.808 41.4646L103.081 47.3082ZM105.875 41.4211L109.192 48.4434L112.508 42.3964L105.875 41.4211ZM112.561 42.274L115.077 35.5017L110.32 38.5381L112.561 42.274ZM110.279 38.4698L115.043 35.4292L107.873 34.4604L110.279 38.4698ZM107.811 34.5111L110.212 38.5126L105.904 41.2621C105.919 41.2254 105.935 41.1817 105.952 41.1317C106.002 40.987 106.066 40.7869 106.14 40.5447C106.287 40.0603 106.475 39.4062 106.676 38.6868C107.069 37.2861 107.512 35.6374 107.811 34.5111ZM105.715 41.4757C104.516 42.2234 102.868 43.2462 101.308 44.2069L103.02 47.2506L105.715 41.4757ZM105.919 41.3471L110.253 38.5809L112.493 42.3138L105.919 41.3471ZM105.804 41.298C105.807 41.2913 105.81 41.284 105.813 41.2759C105.831 41.2344 105.852 41.1772 105.877 41.1056C105.927 40.9623 105.99 40.7634 106.064 40.5216C106.211 40.038 106.399 39.3845 106.6 38.6653C106.996 37.2487 107.446 35.578 107.745 34.4512L100.913 34.6464L105.804 41.298ZM100.94 34.566L107.714 34.3725L104.866 30.935L100.94 34.566ZM104.924 30.8809L107.764 34.3078C107.769 34.2539 107.776 34.1833 107.786 34.0987C107.805 33.9381 107.832 33.7238 107.866 33.4687C107.933 32.9585 108.027 32.2846 108.13 31.5503C108.331 30.1294 108.57 28.482 108.735 27.3557L104.924 30.8809ZM108.686 27.2929L104.873 30.8196L102.112 27.4862L108.686 27.2929ZM101.987 27.3639L101.793 20.2026L98.4569 24.5203L101.987 27.3639ZM98.395 24.4704L101.731 20.1535L94.9579 21.7016L98.395 24.4704ZM94.8415 21.6224L90.7669 19.5354L93.0703 14.8285C93.4006 15.9217 93.8707 17.527 94.2439 18.912C94.4361 19.6254 94.6025 20.2797 94.7108 20.7754C94.765 21.0233 94.8045 21.2308 94.8255 21.3857C94.8361 21.4633 94.8418 21.5268 94.8426 21.5752C94.8429 21.5935 94.8425 21.6091 94.8415 21.6224ZM94.7707 21.6755L90.7319 19.6068L88.5843 23.9954L94.7707 21.6755ZM88.5878 24.0791L91.8 26.4153L94.7713 21.7602L88.5878 24.0791ZM94.8328 21.8117L91.8645 26.4621L95.0259 28.7613L94.8328 21.8117ZM94.9112 21.7662L98.3463 24.5334L95.1046 28.7286L94.9112 21.7662ZM95.1644 28.7812L98.4083 24.5833L101.938 27.4265L95.1644 28.7812ZM88.4106 24.0742L84.6642 22.6333L82.8163 27.1607L88.4106 24.0742ZM102.054 27.5413L104.815 30.8737L100.894 34.5006L102.054 27.5413ZM112.563 42.4608L114.072 46.516L109.277 48.4523L112.563 42.4608ZM109.089 48.6196L104.452 50.7015L105.815 54.0119L109.089 48.6196ZM105.781 54.1828L101.356 58.6075L106.328 57.5558L105.781 54.1828ZM106.341 57.6344L101.356 58.689L106.95 61.3895L106.341 57.6344ZM107.105 61.4048L111.835 60.78L111.542 56.5813L107.105 61.4048ZM111.621 56.5598L111.914 60.7696L117.424 60.0419L111.621 56.5598ZM117.565 59.9767L116.673 55.415L122.41 54.1633L117.565 59.9767ZM117.486 59.9862L116.595 55.432L111.682 56.5039L117.486 59.9862ZM111.513 56.4176L110.391 52.675L105.923 54.1045L111.513 56.4176ZM111.442 56.4741L106.406 57.5393L105.858 54.1638L111.442 56.4741ZM111.462 56.5511L106.419 57.6179L107.027 61.3714L111.462 56.5511ZM105.897 54.0294L110.368 52.5988L109.176 48.628L105.897 54.0294ZM117.423 60.1222L111.92 60.8491L112.206 64.9529L117.423 60.1222ZM112.127 64.9587L111.841 60.8595L107.108 61.4845L112.127 64.9587ZM107.041 61.5345V64.9988H112.045L107.041 61.5345ZM112.05 65.0783H107.041V68.7391L112.05 65.0783ZM112.128 65.1199L107.114 68.7839L111.932 69.0515L112.128 65.1199ZM112.011 69.0559L117.617 69.3673L112.208 65.1173L112.011 69.0559ZM111.928 69.1309L107.114 68.8635L111.739 72.91L111.928 69.1309ZM111.702 72.9838L107.028 68.8941L105.86 75.7103L111.702 72.9838ZM105.821 75.8619L104.706 79.1151L109.478 80.6733L105.821 75.8619ZM105.905 75.84L110.642 76.8619L109.57 80.663L105.905 75.84ZM105.932 75.7645L110.664 76.7851L111.713 73.0668L105.932 75.7645ZM105.781 75.698L106.949 68.8842L101.304 71.4151L105.781 75.698ZM94.7834 35.3909L88.9422 31.1073V37.338L94.7834 35.3909ZM82.6559 27.2616L79.4092 26.0202L77.841 30.9209L82.6559 27.2616ZM72.9342 19.2172L72.2497 24.1069L68.8951 23.641L72.9342 19.2172ZM68.8855 23.72L72.2386 24.1857L71.5771 28.9109L68.8855 23.72ZM72.9651 18.9858L73.6255 13.7024L68.8987 12.9831L72.9651 18.9858ZM68.9043 12.9035L74.331 8.05823L73.6354 13.6234L68.9043 12.9035ZM79.2915 9.04183L80.6828 3.67552L74.4808 7.93938L79.2915 9.04183ZM97.4799 17.3739L100.547 12.4036L93.1741 14.7318L97.4799 17.3739ZM105.328 23.6311L109.092 19.345L101.915 20.1208L105.328 23.6311ZM108.873 27.2898L111.784 31.0199L116.239 27.2898H108.873ZM115.227 35.4596L117.364 39.8313L122.794 37.0119L115.227 35.4596ZM122.857 59.0417L128.181 58.0558L122.559 54.1789L122.857 59.0417ZM117.797 69.413L122.48 73.9002L123.065 63.9503L117.797 69.413ZM115.887 78.0379L114.523 82.3242L109.698 80.7453L115.887 78.0379ZM109.519 80.8143L108.033 84.5788L103.537 82.7439L109.519 80.8143ZM25.0863 54.1876L24.4284 58.464L29.533 59.0209L25.0863 54.1876ZM29.4918 59.0964L24.4163 58.5427L23.9171 61.7877L29.4918 59.0964ZM23.8265 61.9327V65.6699L18.0366 65.9857L23.8265 61.9327ZM17.9476 65.9508L18.3627 61.696L23.7463 61.8918L17.9476 65.9508ZM17.8678 65.9496L18.2831 61.6931L13.0337 61.5022L17.8678 65.9496ZM17.8035 65.9986L12.9673 66.2723V61.5492L17.8035 65.9986ZM17.7909 66.079L12.9673 66.352V70.5167L17.7909 66.079ZM17.8714 66.113L13.0435 70.5547L18.4492 69.965L17.8714 66.113ZM18.4611 70.0437L13.0573 70.6332L19.0417 73.915L18.4611 70.0437ZM18.9865 73.9754L12.9832 70.6833L13.9099 75.3165L18.9865 73.9754ZM13.8328 75.3368L12.9066 70.7056L8.64792 76.7064L13.8328 75.3368ZM13.8484 75.415L14.6633 79.4892L8.67042 76.7827L13.8484 75.415ZM14.7117 79.6578L16.3068 84.0443L11.4218 86.2375L14.7117 79.6578ZM11.2727 86.2431L9.81182 81.2345L4.6779 82.9458L11.2727 86.2431ZM14.7844 79.6249L16.3795 84.0116L20.9774 81.9473L14.7844 79.6249ZM21.1532 81.9998L24.6623 89.2129L27.5865 83.3644L21.1532 81.9998ZM27.6473 83.4207L30.9579 89.263H24.7262L27.6473 83.4207ZM24.5992 89.3893L20.2697 92.1188L22.8563 96.3608L24.5992 89.3893ZM24.6788 89.3989L22.9236 96.4196L29.1643 96.0296L24.6788 89.3989ZM29.2202 95.9702L30.9745 89.3426H24.7368L29.2202 95.9702ZM31.0215 89.2137L27.7134 83.3759H33.5512L31.0215 89.2137ZM31.0448 89.3881L29.2908 96.0143L35.5272 94.8449L31.0448 89.3881ZM35.6404 94.9558L41.0937 99.4352L35.6404 101.772V94.9558ZM35.5608 101.743V94.9195L29.3223 96.0893L35.5608 101.743ZM29.1897 96.1077L28.2153 102.734L22.9532 96.4975L29.1897 96.1077ZM28.2888 102.781L29.2647 96.1445L35.5105 101.805L28.2888 102.781ZM28.3384 102.854L32.287 106.056L35.5099 101.885L28.3384 102.854ZM35.5608 101.949L32.3488 106.106L35.5608 108.71V101.949ZM35.6613 108.873L37.4041 115.844L39.8784 111.192L35.6613 108.873ZM39.9481 111.23L37.4805 115.869L43.4672 113.166L39.9481 111.23ZM43.6283 113.239L46.5322 120.209L48.0337 114.903L43.6283 113.239ZM48.0554 114.826L43.6495 113.162L49.4581 109.871L48.0554 114.826ZM48.1084 114.932L46.606 120.24L52.4174 116.559L48.1084 114.932ZM52.5877 116.601L56.4545 122.401L56.939 117.169L52.5877 116.601ZM57.018 117.179L56.5329 122.417L61.5654 117.772L57.018 117.179ZM57.0253 117.1L57.5078 111.889L61.5705 117.693L57.0253 117.1ZM57.5587 111.823L61.6195 117.624L61.8231 112.127L57.5587 111.823ZM57.5655 111.743L61.826 112.048L62.009 107.107L57.5655 111.743ZM62.088 107.123L61.9054 112.053L65.7507 112.328L62.088 107.123ZM65.7548 112.408L61.9025 112.133L61.6988 117.631C61.7247 117.6 61.7567 117.56 61.7946 117.513C61.8859 117.399 62.0091 117.243 62.1568 117.055C62.4522 116.679 62.8449 116.175 63.2742 115.621C64.1134 114.539 65.092 113.27 65.7548 112.408ZM65.7957 112.485C65.1334 113.346 64.1671 114.599 63.337 115.67C62.9078 116.223 62.5149 116.728 62.2194 117.104C62.0717 117.293 61.9482 117.449 61.8566 117.563C61.8111 117.62 61.7731 117.666 61.7437 117.702L65.982 117.608L65.7957 112.485ZM65.8751 112.48L66.0615 117.606L70.5157 117.507L65.8751 112.48ZM70.7029 117.568L76.7047 122.021L75.3878 116.753L70.7029 117.568ZM75.4664 116.74L76.7823 122.003L79.684 116.006L75.4664 116.74ZM79.8518 115.96L86.2363 119.249L84.1308 114.367L79.8518 115.96ZM79.8167 115.888L84.0992 114.294L81.9467 109.304L79.8167 115.888ZM82.0245 109.284L84.1739 114.266L88.2115 112.764L82.0245 109.284ZM88.4021 112.76L95.1754 114.889L92.3427 110.396L88.4021 112.76ZM92.411 110.355L95.2427 114.846L96.21 108.075L92.411 110.355ZM96.301 107.917L99.8353 105.168L96.301 101.143V107.917ZM96.2214 107.884V101.114L92.786 103.539L96.2214 107.884ZM92.7366 103.476L96.1661 101.056L89.6011 99.5109L92.7366 103.476ZM89.5847 99.4253L96.1407 100.968L92.4011 97.0262L89.5847 99.4253ZM92.4618 96.9745L96.1906 100.905L94.8447 94.9446L92.4618 96.9745ZM94.9349 94.983L96.2835 100.955L98.7284 98.3354L94.9349 94.983ZM98.7881 98.3881L96.3393 101.012L103.285 102.362L98.7881 98.3881ZM103.441 102.331L106.037 98.5359L101.893 95.1727L103.441 102.331ZM103.357 102.319L98.8424 98.3299L101.807 95.1533L103.357 102.319ZM101.709 95.0273L97.5009 91.7755L94.952 94.8342L101.709 95.0273ZM101.938 95.1071L106.082 98.47L108.515 94.9137L101.938 95.1071ZM101.741 95.1078L98.7827 98.2772L94.9776 94.9145L101.741 95.1078ZM94.7855 94.8905L92.4069 96.9167L89.0281 93.3552L94.7855 94.8905ZM88.9531 93.3918L92.3463 96.9684L89.5313 99.3663L88.9531 93.3918ZM89.5388 99.5605L92.6715 103.522L89.5388 105.734V99.5605ZM89.4593 105.683L86.417 101.266L89.4593 99.5148V105.683ZM89.3923 105.726L86.3479 101.306L83.0272 103.218L89.3923 105.726ZM89.3964 105.813L83.0253 103.303L85.4342 107.585L89.3964 105.813ZM85.3613 107.618L82.9565 103.343L81.9928 109.125L85.3613 107.618ZM81.9244 109.051L82.8851 103.287L79.9371 104.414L81.9244 109.051ZM79.9058 104.341L82.8533 103.214L77.8585 99.5638L79.9058 104.341ZM77.7747 99.5702L79.8314 104.369L76.2307 105.746L77.7747 99.5702ZM76.115 105.861L72.9291 106.391L74.1909 111.633L76.115 105.861ZM76.1747 105.933L74.2476 111.714L77.7975 110.531L76.1747 105.933ZM77.8239 110.606L74.2693 111.791L79.6723 115.843L77.8239 110.606ZM79.6561 115.93L75.4471 116.662L74.2505 111.876L79.6561 115.93ZM74.1154 111.659L72.8505 106.405L69.1003 107.03L74.1154 111.659ZM74.0902 111.744L69.0699 107.11L69.8155 112.049L74.0902 111.744ZM69.7359 112.055L68.991 107.12L65.9044 112.329L69.7359 112.055ZM65.9168 112.407L69.7478 112.134L70.5461 117.423L65.9168 112.407ZM70.628 117.432L69.8274 112.128L74.1099 111.822L70.628 117.432ZM70.6853 117.49L75.3685 116.676L74.169 111.878L70.6853 117.49ZM65.8286 112.3L68.9439 107.044H62.1293L65.8286 112.3ZM61.9715 107.031L54.7616 105.862L57.4897 111.708L61.9715 107.031ZM57.4069 111.718L54.7077 105.934C54.4221 107.258 54.0392 109.05 53.6747 110.785L57.4069 111.718ZM53.5975 110.766C53.9627 109.028 54.3464 107.232 54.632 105.908L49.6122 109.77L53.5975 110.766ZM49.5455 109.72L54.6126 105.823L47.7915 103.289L49.5455 109.72ZM47.6557 103.226L42.3922 106.54L41.2225 99.5225L47.6557 103.226ZM41.1371 99.3679L41.7211 93.3332L35.6864 94.8906L41.1371 99.3679ZM41.1386 99.5026L35.6817 101.841L42.3079 106.519L41.1386 99.5026ZM42.2749 106.593L35.6404 101.909V108.739L42.2749 106.593ZM35.7005 108.803L39.9158 111.122L42.2815 106.674L35.7005 108.803ZM42.3441 106.726L39.9855 111.16L43.502 113.094L42.3441 106.726ZM42.4154 106.673L43.5852 113.107L49.4345 109.792L42.4154 106.673ZM49.5919 109.846L53.5811 110.844C53.4677 111.384 53.3562 111.918 53.2502 112.43C53.0197 113.543 52.8151 114.552 52.6725 115.292C52.6012 115.662 52.5454 115.965 52.5095 116.181C52.496 116.262 52.4853 116.332 52.4776 116.387L49.5919 109.846ZM52.5934 116.522L56.9464 117.089L57.4288 111.88L52.5934 116.522ZM57.3988 111.798L53.6584 110.863C53.5452 111.402 53.4339 111.935 53.3281 112.446C53.0977 113.559 52.8932 114.567 52.7506 115.307C52.6794 115.677 52.6237 115.979 52.588 116.194C52.5702 116.301 52.5574 116.386 52.5502 116.447C52.5499 116.449 52.5497 116.451 52.5494 116.454L57.3988 111.798ZM52.4313 116.48L48.1301 114.855L49.5309 109.905L52.4313 116.48ZM49.4623 109.718L47.7085 103.287L42.4471 106.6L49.4623 109.718ZM47.8159 103.213L54.6343 105.746L52.881 99.5119L47.8159 103.213ZM62.1262 106.964H68.9378L65.4346 101.904L62.1262 106.964ZM79.7519 115.83L77.8994 110.581L81.8793 109.254L79.7519 115.83ZM81.8571 109.096L79.8628 104.442L76.2652 105.818L81.8571 109.096ZM76.2473 105.9L77.873 110.506L81.8456 109.181L76.2473 105.9ZM82.0297 109.196L85.4004 107.688L88.2014 112.667L82.0297 109.196ZM88.2855 112.654L85.4733 107.655L89.4473 105.877L88.2855 112.654ZM88.3596 112.693L92.3003 110.328L89.5207 105.919L88.3596 112.693ZM89.5912 105.882L92.3685 110.287L96.1657 108.009L89.5912 105.882ZM89.587 105.797L92.7209 103.585L96.1487 107.92L89.587 105.797ZM103.328 102.452L99.8982 105.119L96.368 101.098L103.328 102.452ZM95.1999 115.036L90.349 117.408L92.676 122.802L95.1999 115.036ZM88.2444 112.837L86.3103 119.219L84.2054 114.34L88.2444 112.837ZM76.6897 122.168L71.4829 122.758L72.4179 128.576L76.6897 122.168ZM70.5233 117.586L66.0644 117.685L66.2649 123.2L70.5233 117.586ZM37.2957 115.941L33.0662 113.285L30.3153 118.074L37.2957 115.941ZM35.5147 108.775L32.3002 106.169L28.9416 110.515L35.5147 108.775ZM27.5827 83.2823L25.0484 76.4592L21.1495 81.9177L27.5827 83.2823ZM24.9588 76.4477L20.1209 77.9363L21.0996 81.8507L24.9588 76.4477ZM21.0249 81.8801L20.0448 77.9597L14.8407 79.561L21.0249 81.8801ZM20.0255 77.8825L14.8273 79.4819L19.0741 74.0769L20.0255 77.8825ZM20.1016 77.859L24.9403 76.3702L19.1504 74.0543L20.1016 77.859ZM19.2228 73.9976L25.0084 76.3118L24.3942 72.7291L19.2228 73.9976ZM24.4717 72.7101L25.0851 76.2886L29.5155 71.4729L24.4717 72.7101ZM29.4933 71.3965L24.4582 72.6315L23.9168 69.4736L29.4933 71.3965ZM23.8397 69.4946L24.3807 72.6505L19.2277 73.9145L23.8397 69.4946ZM18.9884 74.0573L13.9255 75.3946L14.7395 79.4648L18.9884 74.0573ZM19.1209 73.9066L18.5402 70.0351L23.7543 69.4663L19.1209 73.9066ZM23.7394 69.3879L18.5284 69.9564L17.9511 66.1079L23.7394 69.3879ZM23.8265 69.3458V65.7495L18.0374 66.0653L23.8265 69.3458ZM99.4307 112.063L102.793 116.444L103.375 109.273L99.4307 112.063ZM81.2986 120.84L82.9441 126.188L86.2419 119.398L81.2986 120.84ZM15.5075 94.9666L17.8281 88.3914L13.4746 90.7072L15.5075 94.9666ZM13.4043 90.7446L8.66111 93.2675L15.4404 95.0108L13.4043 90.7446ZM13.4403 90.6353L11.4111 86.3837L17.7959 88.3185L13.4403 90.6353ZM7.32644 66.5314L7.7442 61.205L2.47778 60.9069L7.32644 66.5314ZM12.9798 61.3793L13.6086 57.2469L18.5797 57.9035L12.9798 61.3793ZM14.238 52.2535L10.7549 46.6419L9.53117 51.3484L14.238 52.2535ZM44.0166 11.0831L49.2413 9.75128L47.7205 4.47898C47.0914 5.57214 46.1735 7.17641 45.4056 8.5393C45.012 9.23784 44.6579 9.87283 44.4021 10.3431C44.2743 10.5782 44.1711 10.7719 44.1 10.9116C44.0645 10.9816 44.0371 11.0376 44.0187 11.0783C44.018 11.0799 44.0173 11.0815 44.0166 11.0831ZM54.1848 8.504L59.4616 7.87078L58.842 2.29441L54.1848 8.504Z" fill="#F7F8F9"/>
<path d="M59.9028 29.24C59.9986 29.7835 59.6357 30.3018 59.0922 30.3976C58.5487 30.4934 58.0304 30.1305 57.9346 29.587C57.8387 29.0435 58.2016 28.5252 58.7451 28.4294C59.2887 28.3335 59.8069 28.6964 59.9028 29.24Z" fill="#0695FE"/>
<path d="M53.7333 30.7127C53.9221 31.2313 53.6547 31.8048 53.1361 31.9935C52.6175 32.1823 52.044 31.9149 51.8553 31.3963C51.6665 30.8777 51.9339 30.3042 52.4525 30.1155C52.9711 29.9267 53.5446 30.1941 53.7333 30.7127Z" fill="#0695FE"/>
<path d="M47.9133 33.2344C48.1893 33.7124 48.0255 34.3235 47.5476 34.5995C47.0696 34.8754 46.4585 34.7117 46.1825 34.2337C45.9066 33.7558 46.0703 33.1446 46.5483 32.8687C47.0262 32.5927 47.6374 32.7565 47.9133 33.2344Z" fill="#0695FE"/>
<path d="M42.6197 36.7285C42.9744 37.1512 42.9193 37.7816 42.4965 38.1363C42.0737 38.4911 41.4434 38.4359 41.0887 38.0131C40.7339 37.5904 40.7891 36.9601 41.2118 36.6053C41.6346 36.2506 42.2649 36.3057 42.6197 36.7285Z" fill="#0695FE"/>
<path d="M38.0131 41.0887C38.4359 41.4434 38.4911 42.0737 38.1363 42.4965C37.7816 42.9193 37.1513 42.9744 36.7285 42.6197C36.3057 42.2649 36.2506 41.6346 36.6053 41.2118C36.9601 40.7891 37.5904 40.7339 38.0131 41.0887Z" fill="#0695FE"/>
<path d="M34.2337 46.1825C34.7117 46.4585 34.8754 47.0696 34.5995 47.5476C34.3236 48.0255 33.7124 48.1893 33.2344 47.9133C32.7565 47.6374 32.5927 47.0262 32.8687 46.5483C33.1446 46.0703 33.7558 45.9066 34.2337 46.1825Z" fill="#0695FE"/>
<path d="M31.3963 51.8553C31.9149 52.044 32.1823 52.6175 31.9935 53.1361C31.8048 53.6547 31.2314 53.9221 30.7127 53.7333C30.1941 53.5446 29.9267 52.9711 30.1155 52.4525C30.3043 51.9339 30.8777 51.6665 31.3963 51.8553Z" fill="#0695FE"/>
<path d="M29.587 57.9346C30.1305 58.0304 30.4934 58.5487 30.3976 59.0922C30.3018 59.6357 29.7835 59.9986 29.24 59.9028C28.6965 59.807 28.3336 59.2887 28.4294 58.7452C28.5252 58.2017 29.0435 57.8387 29.587 57.9346Z" fill="#0695FE"/>
<path d="M28.8609 64.2357C29.4128 64.2357 29.8602 64.6831 29.8602 65.235C29.8602 65.7869 29.4128 66.2343 28.8609 66.2343C28.309 66.2343 27.8616 65.7869 27.8616 65.235C27.8616 64.6831 28.309 64.2357 28.8609 64.2357Z" fill="#0695FE"/>
<path d="M29.24 70.5672C29.7835 70.4713 30.3018 70.8342 30.3976 71.3777C30.4935 71.9212 30.1305 72.4395 29.587 72.5354C29.0435 72.6312 28.5252 72.2683 28.4294 71.7248C28.3336 71.1813 28.6965 70.663 29.24 70.5672Z" fill="#0695FE"/>
<path d="M30.7128 76.7366C31.2314 76.5479 31.8048 76.8153 31.9936 77.3339C32.1823 77.8525 31.9149 78.4259 31.3963 78.6147C30.8777 78.8034 30.3043 78.536 30.1155 78.0174C29.9268 77.4988 30.1942 76.9254 30.7128 76.7366Z" fill="#0695FE"/>
<path d="M33.2345 82.5566C33.7124 82.2807 34.3236 82.4444 34.5995 82.9224C34.8755 83.4003 34.7117 84.0115 34.2338 84.2874C33.7558 84.5634 33.1446 84.3996 32.8687 83.9217C32.5928 83.4437 32.7565 82.8326 33.2345 82.5566Z" fill="#0695FE"/>
<path d="M36.7285 87.8503C37.1513 87.4955 37.7816 87.5507 38.1363 87.9734C38.4911 88.3962 38.4359 89.0265 38.0132 89.3813C37.5904 89.736 36.9601 89.6809 36.6053 89.2581C36.2506 88.8353 36.3057 88.205 36.7285 87.8503Z" fill="#0695FE"/>
<path d="M41.0887 92.4568C41.4434 92.034 42.0738 91.9789 42.4965 92.3336C42.9193 92.6884 42.9744 93.3187 42.6197 93.7415C42.2649 94.1642 41.6346 94.2194 41.2119 93.8646C40.7891 93.5099 40.7339 92.8796 41.0887 92.4568Z" fill="#0695FE"/>
<path d="M46.1826 96.2362C46.4585 95.7583 47.0697 95.5945 47.5476 95.8704C48.0256 96.1464 48.1893 96.7575 47.9134 97.2355C47.6374 97.7134 47.0263 97.8772 46.5483 97.6012C46.0704 97.3253 45.9066 96.7142 46.1826 96.2362Z" fill="#0695FE"/>
<path d="M51.8553 99.0736C52.0441 98.555 52.6175 98.2876 53.1361 98.4764C53.6547 98.6652 53.9221 99.2386 53.7334 99.7572C53.5446 100.276 52.9712 100.543 52.4526 100.354C51.934 100.166 51.6666 99.5922 51.8553 99.0736Z" fill="#0695FE"/>
<path d="M57.9346 100.883C58.0304 100.339 58.5487 99.9765 59.0922 100.072C59.6357 100.168 59.9987 100.686 59.9028 101.23C59.807 101.773 59.2887 102.136 58.7452 102.041C58.2017 101.945 57.8388 101.426 57.9346 100.883Z" fill="#0695FE"/>
<path d="M64.2357 101.609C64.2357 101.057 64.6831 100.61 65.235 100.61C65.7869 100.61 66.2343 101.057 66.2343 101.609C66.2343 102.161 65.7869 102.608 65.235 102.608C64.6831 102.608 64.2357 102.161 64.2357 101.609Z" fill="#0695FE"/>
<path d="M70.5672 101.23C70.4714 100.686 70.8343 100.168 71.3778 100.072C71.9213 99.9765 72.4396 100.339 72.5354 100.883C72.6312 101.426 72.2683 101.945 71.7248 102.041C71.1813 102.136 70.663 101.773 70.5672 101.23Z" fill="#0695FE"/>
<path d="M76.7366 99.7572C76.5479 99.2386 76.8153 98.6651 77.3339 98.4764C77.8525 98.2876 78.4259 98.555 78.6147 99.0736C78.8035 99.5922 78.5361 100.166 78.0174 100.354C77.4988 100.543 76.9254 100.276 76.7366 99.7572Z" fill="#0695FE"/>
<path d="M82.5566 97.2355C82.2807 96.7575 82.4445 96.1464 82.9224 95.8704C83.4004 95.5945 84.0115 95.7582 84.2875 96.2362C84.5634 96.7141 84.3996 97.3253 83.9217 97.6012C83.4437 97.8772 82.8326 97.7134 82.5566 97.2355Z" fill="#0695FE"/>
<path d="M87.8503 93.7414C87.4956 93.3186 87.5507 92.6883 87.9735 92.3336C88.3962 91.9788 89.0266 92.034 89.3813 92.4568C89.7361 92.8795 89.6809 93.5098 89.2581 93.8646C88.8354 94.2193 88.2051 94.1642 87.8503 93.7414Z" fill="#0695FE"/>
<path d="M92.4568 89.3812C92.0341 89.0265 91.9789 88.3962 92.3337 87.9734C92.6884 87.5506 93.3187 87.4955 93.7415 87.8502C94.1643 88.205 94.2194 88.8353 93.8647 89.2581C93.5099 89.6808 92.8796 89.736 92.4568 89.3812Z" fill="#0695FE"/>
<path d="M96.2362 84.2874C95.7583 84.0114 95.5945 83.4003 95.8705 82.9223C96.1464 82.4444 96.7576 82.2806 97.2355 82.5566C97.7135 82.8325 97.8772 83.4436 97.6013 83.9216C97.3253 84.3996 96.7142 84.5633 96.2362 84.2874Z" fill="#0695FE"/>
<path d="M99.0737 78.6146C98.5551 78.4259 98.2877 77.8524 98.4764 77.3338C98.6652 76.8152 99.2386 76.5478 99.7572 76.7366C100.276 76.9253 100.543 77.4988 100.354 78.0174C100.166 78.536 99.5923 78.8034 99.0737 78.6146Z" fill="#0695FE"/>
<path d="M100.883 72.5353C100.339 72.4395 99.9765 71.9212 100.072 71.3777C100.168 70.8342 100.686 70.4713 101.23 70.5671C101.773 70.6629 102.136 71.1812 102.041 71.7247C101.945 72.2682 101.426 72.6312 100.883 72.5353Z" fill="#0695FE"/>
<path d="M101.609 66.2342C101.057 66.2342 100.61 65.7868 100.61 65.2349C100.61 64.683 101.057 64.2356 101.609 64.2356C102.161 64.2356 102.608 64.683 102.608 65.2349C102.608 65.7868 102.161 66.2342 101.609 66.2342Z" fill="#0695FE"/>
<path d="M101.23 59.9027C100.686 59.9986 100.168 59.6357 100.072 59.0922C99.9765 58.5487 100.339 58.0304 100.883 57.9345C101.426 57.8387 101.945 58.2016 102.041 58.7451C102.136 59.2886 101.773 59.8069 101.23 59.9027Z" fill="#0695FE"/>
<path d="M99.7572 53.7333C99.2386 53.922 98.6652 53.6546 98.4764 53.136C98.2877 52.6174 98.555 52.044 99.0737 51.8552C99.5923 51.6665 100.166 51.9339 100.354 52.4525C100.543 52.9711 100.276 53.5445 99.7572 53.7333Z" fill="#0695FE"/>
<path d="M97.2355 47.9133C96.7575 48.1892 96.1464 48.0255 95.8704 47.5475C95.5945 47.0696 95.7583 46.4584 96.2362 46.1825C96.7142 45.9065 97.3253 46.0703 97.6013 46.5482C97.8772 47.0262 97.7135 47.6374 97.2355 47.9133Z" fill="#0695FE"/>
<path d="M93.7415 42.6196C93.3187 42.9744 92.6884 42.9192 92.3336 42.4965C91.9789 42.0737 92.034 41.4434 92.4568 41.0886C92.8796 40.7339 93.5099 40.789 93.8646 41.2118C94.2194 41.6346 94.1642 42.2649 93.7415 42.6196Z" fill="#0695FE"/>
<path d="M89.3813 38.0131C89.0265 38.4359 88.3962 38.491 87.9734 38.1363C87.5507 37.7815 87.4955 37.1512 87.8503 36.7284C88.205 36.3057 88.8353 36.2505 89.2581 36.6053C89.6809 36.96 89.736 37.5903 89.3813 38.0131Z" fill="#0695FE"/>
<path d="M84.2874 34.2337C84.0115 34.7117 83.4003 34.8754 82.9223 34.5995C82.4444 34.3235 82.2806 33.7124 82.5566 33.2344C82.8325 32.7565 83.4437 32.5927 83.9216 32.8686C84.3996 33.1446 84.5633 33.7558 84.2874 34.2337Z" fill="#0695FE"/>
<path d="M78.6146 31.3963C78.4259 31.9149 77.8525 32.1823 77.3339 31.9935C76.8152 31.8048 76.5478 31.2313 76.7366 30.7127C76.9254 30.1941 77.4988 29.9267 78.0174 30.1155C78.536 30.3042 78.8034 30.8777 78.6146 31.3963Z" fill="#0695FE"/>
<path d="M72.5354 29.587C72.4395 30.1305 71.9212 30.4934 71.3777 30.3976C70.8342 30.3017 70.4713 29.7835 70.5671 29.2399C70.663 28.6964 71.1813 28.3335 71.7248 28.4294C72.2683 28.5252 72.6312 29.0435 72.5354 29.587Z" fill="#0695FE"/>
<path d="M66.2343 28.8609C66.2343 29.4128 65.7869 29.8602 65.235 29.8602C64.6831 29.8602 64.2357 29.4128 64.2357 28.8609C64.2357 28.309 64.6831 27.8616 65.235 27.8616C65.7869 27.8616 66.2343 28.309 66.2343 28.8609Z" fill="#0695FE"/>
<path d="M55.3108 24.6504C55.4822 25.2901 55.1026 25.9476 54.4629 26.119C53.8232 26.2904 53.1657 25.9108 52.9943 25.2711C52.8229 24.6314 53.2025 23.9739 53.8422 23.8025C54.4819 23.631 55.1394 24.0107 55.3108 24.6504Z" fill="#0695FE"/>
<path d="M48.4142 26.9902C48.694 27.5904 48.4344 28.3039 47.8341 28.5838C47.2339 28.8637 46.5205 28.604 46.2406 28.0038C45.9607 27.4036 46.2204 26.6901 46.8206 26.4102C47.4208 26.1303 48.1343 26.39 48.4142 26.9902Z" fill="#0695FE"/>
<path d="M42.0286 30.4921C42.4084 31.0346 42.2766 31.7824 41.7341 32.1622C41.1916 32.5421 40.4439 32.4102 40.064 31.8677C39.6842 31.3252 39.816 30.5775 40.3585 30.1977C40.901 29.8178 41.6487 29.9496 42.0286 30.4921Z" fill="#0695FE"/>
<path d="M36.3481 35.0497C36.8164 35.518 36.8164 36.2773 36.3481 36.7456C35.8798 37.2138 35.1206 37.2138 34.6523 36.7456C34.184 36.2773 34.184 35.518 34.6523 35.0497C35.1206 34.5814 35.8798 34.5814 36.3481 35.0497Z" fill="#0695FE"/>
<path d="M31.5454 40.5245C32.0879 40.9043 32.2197 41.6521 31.8398 42.1946C31.46 42.7371 30.7123 42.8689 30.1698 42.489C29.6273 42.1092 29.4954 41.3615 29.8753 40.819C30.2551 40.2765 31.0029 40.1446 31.5454 40.5245Z" fill="#0695FE"/>
<path d="M27.7663 46.75C28.3665 47.0299 28.6262 47.7433 28.3463 48.3435C28.0664 48.9438 27.3529 49.2035 26.7527 48.9236C26.1525 48.6437 25.8928 47.9302 26.1727 47.33C26.4526 46.7298 27.166 46.4701 27.7663 46.75Z" fill="#0695FE"/>
<path d="M25.1256 53.5373C25.7653 53.7087 26.145 54.3662 25.9735 55.0059C25.8021 55.6456 25.1446 56.0252 24.5049 55.8538C23.8652 55.6824 23.4856 55.0249 23.657 54.3852C23.8284 53.7455 24.4859 53.3658 25.1256 53.5373Z" fill="#0695FE"/>
<path d="M23.7037 60.6799C24.3634 60.7376 24.8515 61.3192 24.7938 61.979C24.736 62.6387 24.1544 63.1268 23.4947 63.069C22.8349 63.0113 22.3469 62.4297 22.4046 61.7699C22.4623 61.1102 23.0439 60.6222 23.7037 60.6799Z" fill="#0695FE"/>
<path d="M23.5436 67.9609C24.2034 67.9032 24.785 68.3912 24.8427 69.0509C24.9005 69.7107 24.4124 70.2923 23.7527 70.35C23.0929 70.4078 22.5113 69.9197 22.4536 69.26C22.3959 68.6002 22.8839 68.0186 23.5436 67.9609Z" fill="#0695FE"/>
<path d="M24.6504 75.1591C25.2901 74.9877 25.9476 75.3673 26.119 76.007C26.2904 76.6467 25.9108 77.3043 25.2711 77.4757C24.6314 77.6471 23.9739 77.2675 23.8025 76.6278C23.6311 75.9881 24.0107 75.3305 24.6504 75.1591Z" fill="#0695FE"/>
<path d="M26.9903 82.0558C27.5905 81.7759 28.304 82.0356 28.5839 82.6358C28.8637 83.236 28.6041 83.9495 28.0038 84.2294C27.4036 84.5093 26.6902 84.2496 26.4103 83.6493C26.1304 83.0491 26.3901 82.3357 26.9903 82.0558Z" fill="#0695FE"/>
<path d="M30.4922 88.4414C31.0347 88.0615 31.7824 88.1934 32.1623 88.7359C32.5422 89.2784 32.4103 90.0261 31.8678 90.406C31.3253 90.7858 30.5776 90.654 30.1977 90.1115C29.8179 89.569 29.9497 88.8213 30.4922 88.4414Z" fill="#0695FE"/>
<path d="M35.0498 94.1218C35.5181 93.6535 36.2773 93.6535 36.7456 94.1218C37.2139 94.5901 37.2139 95.3494 36.7456 95.8177C36.2773 96.286 35.5181 96.286 35.0498 95.8177C34.5815 95.3494 34.5815 94.5901 35.0498 94.1218Z" fill="#0695FE"/>
<path d="M40.5245 98.9246C40.9044 98.3821 41.6521 98.2503 42.1946 98.6301C42.7371 99.01 42.8689 99.7577 42.4891 100.3C42.1092 100.843 41.3615 100.975 40.819 100.595C40.2765 100.215 40.1446 99.4671 40.5245 98.9246Z" fill="#0695FE"/>
<path d="M46.7501 102.704C47.0299 102.103 47.7434 101.844 48.3436 102.124C48.9439 102.404 49.2035 103.117 48.9236 103.717C48.6438 104.317 47.9303 104.577 47.3301 104.297C46.7299 104.017 46.4702 103.304 46.7501 102.704Z" fill="#0695FE"/>
<path d="M53.5373 105.344C53.7087 104.705 54.3662 104.325 55.0059 104.496C55.6456 104.668 56.0252 105.325 55.8538 105.965C55.6824 106.605 55.0249 106.984 54.3852 106.813C53.7455 106.642 53.3659 105.984 53.5373 105.344Z" fill="#0695FE"/>
<path d="M60.6799 106.766C60.7376 106.106 61.3192 105.618 61.979 105.676C62.6387 105.734 63.1268 106.316 63.0691 106.975C63.0113 107.635 62.4297 108.123 61.77 108.065C61.1102 108.008 60.6222 107.426 60.6799 106.766Z" fill="#0695FE"/>
<path d="M67.9609 106.926C67.9032 106.267 68.3913 105.685 69.051 105.627C69.7108 105.569 70.2924 106.058 70.3501 106.717C70.4078 107.377 69.9198 107.959 69.26 108.016C68.6003 108.074 68.0187 107.586 67.9609 106.926Z" fill="#0695FE"/>
<path d="M75.1591 105.82C74.9877 105.18 75.3674 104.522 76.0071 104.351C76.6468 104.179 77.3043 104.559 77.4757 105.199C77.6471 105.839 77.2675 106.496 76.6278 106.667C75.9881 106.839 75.3306 106.459 75.1591 105.82Z" fill="#0695FE"/>
<path d="M82.0558 103.48C81.7759 102.879 82.0356 102.166 82.6358 101.886C83.2361 101.606 83.9495 101.866 84.2294 102.466C84.5093 103.066 84.2496 103.78 83.6494 104.06C83.0492 104.34 82.3357 104.08 82.0558 103.48Z" fill="#0695FE"/>
<path d="M88.4414 99.9778C88.0615 99.4353 88.1934 98.6876 88.7359 98.3077C89.2784 97.9278 90.0261 98.0597 90.406 98.6022C90.7858 99.1447 90.654 99.8924 90.1115 100.272C89.569 100.652 88.8213 100.52 88.4414 99.9778Z" fill="#0695FE"/>
<path d="M94.1218 95.4201C93.6536 94.9518 93.6536 94.1926 94.1218 93.7243C94.5901 93.256 95.3494 93.256 95.8177 93.7243C96.286 94.1926 96.286 94.9518 95.8177 95.4201C95.3494 95.8884 94.5901 95.8884 94.1218 95.4201Z" fill="#0695FE"/>
<path d="M98.9246 89.9454C98.3821 89.5656 98.2503 88.8179 98.6301 88.2754C99.01 87.7329 99.7577 87.601 100.3 87.9809C100.843 88.3607 100.975 89.1085 100.595 89.651C100.215 90.1935 99.4671 90.3253 98.9246 89.9454Z" fill="#0695FE"/>
<path d="M102.704 83.7198C102.104 83.44 101.844 82.7265 102.124 82.1263C102.404 81.5261 103.117 81.2664 103.717 81.5463C104.318 81.8261 104.577 82.5396 104.297 83.1398C104.017 83.74 103.304 83.9997 102.704 83.7198Z" fill="#0695FE"/>
<path d="M105.344 76.9326C104.705 76.7612 104.325 76.1037 104.496 75.464C104.668 74.8243 105.325 74.4447 105.965 74.6161C106.605 74.7875 106.984 75.445 106.813 76.0847C106.642 76.7244 105.984 77.1041 105.344 76.9326Z" fill="#0695FE"/>
<path d="M106.766 69.79C106.107 69.7323 105.618 69.1507 105.676 68.4909C105.734 67.8312 106.316 67.3431 106.975 67.4009C107.635 67.4586 108.123 68.0402 108.065 68.7C108.008 69.3597 107.426 69.8478 106.766 69.79Z" fill="#0695FE"/>
<path d="M106.926 62.509C106.267 62.5668 105.685 62.0787 105.627 61.419C105.569 60.7592 106.058 60.1776 106.717 60.1199C107.377 60.0621 107.959 60.5502 108.016 61.2099C108.074 61.8697 107.586 62.4513 106.926 62.509Z" fill="#0695FE"/>
<path d="M105.82 55.3108C105.18 55.4822 104.522 55.1026 104.351 54.4629C104.18 53.8232 104.559 53.1656 105.199 52.9942C105.839 52.8228 106.496 53.2024 106.668 53.8421C106.839 54.4818 106.459 55.1394 105.82 55.3108Z" fill="#0695FE"/>
<path d="M103.48 48.4141C102.879 48.694 102.166 48.4343 101.886 47.8341C101.606 47.2339 101.866 46.5204 102.466 46.2405C103.066 45.9607 103.78 46.2203 104.06 46.8206C104.34 47.4208 104.08 48.1343 103.48 48.4141Z" fill="#0695FE"/>
<path d="M99.9778 42.0286C99.4353 42.4085 98.6876 42.2766 98.3077 41.7341C97.9278 41.1916 98.0597 40.4439 98.6022 40.064C99.1447 39.6842 99.8924 39.816 100.272 40.3585C100.652 40.901 100.52 41.6487 99.9778 42.0286Z" fill="#0695FE"/>
<path d="M95.4202 36.3481C94.9519 36.8164 94.1926 36.8164 93.7243 36.3481C93.2561 35.8798 93.2561 35.1205 93.7243 34.6522C94.1926 34.1839 94.9519 34.1839 95.4202 34.6522C95.8885 35.1205 95.8885 35.8798 95.4202 36.3481Z" fill="#0695FE"/>
<path d="M89.9455 31.5453C89.5656 32.0878 88.8179 32.2197 88.2754 31.8398C87.7329 31.4599 87.6011 30.7122 87.9809 30.1697C88.3608 29.6272 89.1085 29.4954 89.651 29.8752C90.1935 30.2551 90.3253 31.0028 89.9455 31.5453Z" fill="#0695FE"/>
<path d="M83.7199 27.7662C83.44 28.3664 82.7266 28.6261 82.1263 28.3462C81.5261 28.0663 81.2664 27.3529 81.5463 26.7527C81.8262 26.1524 82.5397 25.8928 83.1399 26.1726C83.7401 26.4525 83.9998 27.166 83.7199 27.7662Z" fill="#0695FE"/>
<path d="M76.9327 25.1255C76.7613 25.7652 76.1038 26.1449 75.4641 25.9735C74.8244 25.8021 74.4447 25.1445 74.6161 24.5048C74.7876 23.8651 75.4451 23.4855 76.0848 23.6569C76.7245 23.8283 77.1041 24.4858 76.9327 25.1255Z" fill="#0695FE"/>
<path d="M69.7901 23.7037C69.7324 24.3634 69.1507 24.8514 68.491 24.7937C67.8313 24.736 67.3432 24.1544 67.4009 23.4946C67.4586 22.8349 68.0403 22.3468 68.7 22.4046C69.3598 22.4623 69.8478 23.0439 69.7901 23.7037Z" fill="#0695FE"/>
<path d="M62.509 23.5436C62.5668 24.2034 62.0787 24.785 61.419 24.8427C60.7592 24.9004 60.1776 24.4124 60.1199 23.7526C60.0622 23.0929 60.5502 22.5113 61.21 22.4535C61.8697 22.3958 62.4513 22.8839 62.509 23.5436Z" fill="#0695FE"/>
<path d="M57.8688 18.6398C58.003 19.4007 57.4949 20.1263 56.734 20.2605C55.9731 20.3947 55.2475 19.8866 55.1133 19.1257C54.9791 18.3648 55.4872 17.6392 56.2481 17.505C57.009 17.3708 57.7346 17.8789 57.8688 18.6398Z" fill="#0695FE"/>
<path d="M49.8895 20.6268C50.1538 21.3529 49.7794 22.1557 49.0534 22.4199C48.3273 22.6842 47.5245 22.3099 47.2603 21.5838C46.996 20.8577 47.3703 20.0549 48.0964 19.7907C48.8224 19.5264 49.6253 19.9008 49.8895 20.6268Z" fill="#0695FE"/>
<path d="M42.3765 23.9692C42.7629 24.6383 42.5336 25.4939 41.8645 25.8802C41.1953 26.2666 40.3397 26.0373 39.9534 25.3682C39.5671 24.699 39.7963 23.8434 40.4655 23.4571C41.1346 23.0708 41.9902 23.3 42.3765 23.9692Z" fill="#0695FE"/>
<path d="M35.5581 28.5654C36.0547 29.1573 35.9775 30.0397 35.3856 30.5364C34.7937 31.033 33.9113 30.9558 33.4147 30.364C32.918 29.7721 32.9952 28.8896 33.5871 28.393C34.179 27.8963 35.0614 27.9735 35.5581 28.5654Z" fill="#0695FE"/>
<path d="M29.6413 34.2759C30.2332 34.7725 30.3104 35.6549 29.8138 36.2468C29.3171 36.8387 28.4347 36.9159 27.8428 36.4193C27.2509 35.9226 27.1737 35.0402 27.6704 34.4483C28.167 33.8564 29.0494 33.7792 29.6413 34.2759Z" fill="#0695FE"/>
<path d="M24.8061 40.927C25.4752 41.3133 25.7045 42.1689 25.3182 42.8381C24.9318 43.5072 24.0762 43.7365 23.4071 43.3501C22.738 42.9638 22.5087 42.1082 22.895 41.4391C23.2813 40.7699 24.137 40.5407 24.8061 40.927Z" fill="#0695FE"/>
<path d="M21.1993 48.3168C21.9253 48.581 22.2997 49.3838 22.0354 50.1099C21.7711 50.8359 20.9683 51.2103 20.2423 50.946C19.5162 50.6818 19.1419 49.879 19.4061 49.1529C19.6704 48.4269 20.4732 48.0525 21.1993 48.3168Z" fill="#0695FE"/>
<path d="M18.9304 56.2205C19.6914 56.3546 20.1994 57.0803 20.0653 57.8412C19.9311 58.6021 19.2055 59.1101 18.4446 58.976C17.6837 58.8418 17.1756 58.1162 17.3098 57.3553C17.4439 56.5944 18.1695 56.0863 18.9304 56.2205Z" fill="#0695FE"/>
<path d="M18.0686 64.3981C18.8412 64.3981 19.4676 65.0244 19.4676 65.7971C19.4676 66.5697 18.8412 67.1961 18.0686 67.1961C17.2959 67.1961 16.6695 66.5697 16.6695 65.7971C16.6695 65.0244 17.2959 64.3981 18.0686 64.3981Z" fill="#0695FE"/>
<path d="M18.6398 72.6013C19.4007 72.4671 20.1263 72.9752 20.2605 73.7361C20.3946 74.497 19.8866 75.2226 19.1257 75.3568C18.3648 75.4909 17.6392 74.9829 17.505 74.222C17.3708 73.4611 17.8789 72.7354 18.6398 72.6013Z" fill="#0695FE"/>
<path d="M20.6268 80.5805C21.3529 80.3162 22.1557 80.6906 22.4199 81.4166C22.6842 82.1427 22.3098 82.9455 21.5838 83.2097C20.8577 83.474 20.0549 83.0996 19.7907 82.3736C19.5264 81.6475 19.9008 80.8447 20.6268 80.5805Z" fill="#0695FE"/>
<path d="M23.9692 88.0936C24.6384 87.7073 25.494 87.9365 25.8803 88.6056C26.2666 89.2748 26.0374 90.1304 25.3682 90.5167C24.6991 90.903 23.8435 90.6738 23.4571 90.0046C23.0708 89.3355 23.3001 88.4799 23.9692 88.0936Z" fill="#0695FE"/>
<path d="M28.5655 94.9119C29.1574 94.4153 30.0398 94.4925 30.5364 95.0844C31.0331 95.6763 30.9559 96.5587 30.364 97.0553C29.7721 97.552 28.8897 97.4748 28.393 96.8829C27.8964 96.291 27.9736 95.4086 28.5655 94.9119Z" fill="#0695FE"/>
<path d="M34.2759 100.829C34.7726 100.237 35.655 100.16 36.2469 100.656C36.8388 101.153 36.916 102.035 36.4193 102.627C35.9227 103.219 35.0402 103.296 34.4484 102.8C33.8565 102.303 33.7793 101.421 34.2759 100.829Z" fill="#0695FE"/>
<path d="M40.927 105.664C41.3134 104.995 42.169 104.766 42.8381 105.152C43.5072 105.538 43.7365 106.394 43.3502 107.063C42.9639 107.732 42.1082 107.961 41.4391 107.575C40.77 107.189 40.5407 106.333 40.927 105.664Z" fill="#0695FE"/>
<path d="M48.3167 109.271C48.581 108.545 49.3838 108.17 50.1099 108.435C50.8359 108.699 51.2103 109.502 50.946 110.228C50.6817 110.954 49.8789 111.328 49.1529 111.064C48.4268 110.8 48.0525 109.997 48.3167 109.271Z" fill="#0695FE"/>
<path d="M56.2205 111.54C56.3546 110.779 57.0802 110.271 57.8412 110.405C58.6021 110.539 59.1101 111.265 58.976 112.025C58.8418 112.786 58.1162 113.294 57.3553 113.16C56.5944 113.026 56.0863 112.3 56.2205 111.54Z" fill="#0695FE"/>
<path d="M64.3981 112.401C64.3981 111.629 65.0245 111.002 65.7971 111.002C66.5698 111.002 67.1961 111.629 67.1961 112.401C67.1961 113.174 66.5698 113.8 65.7971 113.8C65.0245 113.8 64.3981 113.174 64.3981 112.401Z" fill="#0695FE"/>
<path d="M72.6012 111.83C72.467 111.069 72.9751 110.344 73.736 110.209C74.4969 110.075 75.2225 110.583 75.3567 111.344C75.4909 112.105 74.9828 112.831 74.2219 112.965C73.461 113.099 72.7354 112.591 72.6012 111.83Z" fill="#0695FE"/>
<path d="M80.5805 109.843C80.3162 109.117 80.6906 108.314 81.4166 108.05C82.1427 107.786 82.9455 108.16 83.2097 108.886C83.474 109.612 83.0996 110.415 82.3736 110.679C81.6475 110.944 80.8447 110.569 80.5805 109.843Z" fill="#0695FE"/>
<path d="M88.0935 106.501C87.7072 105.832 87.9364 104.976 88.6056 104.59C89.2747 104.203 90.1303 104.433 90.5166 105.102C90.903 105.771 90.6737 106.627 90.0046 107.013C89.3354 107.399 88.4798 107.17 88.0935 106.501Z" fill="#0695FE"/>
<path d="M94.9119 101.905C94.4153 101.313 94.4925 100.43 95.0844 99.9335C95.6762 99.4369 96.5587 99.5141 97.0553 100.106C97.552 100.698 97.4748 101.58 96.8829 102.077C96.291 102.574 95.4086 102.496 94.9119 101.905Z" fill="#0695FE"/>
<path d="M100.829 96.1941C100.237 95.6974 100.16 94.815 100.656 94.2231C101.153 93.6312 102.035 93.554 102.627 94.0507C103.219 94.5473 103.296 95.4297 102.8 96.0216C102.303 96.6135 101.421 96.6907 100.829 96.1941Z" fill="#0695FE"/>
<path d="M105.664 89.5429C104.995 89.1566 104.766 88.301 105.152 87.6319C105.538 86.9627 106.394 86.7335 107.063 87.1198C107.732 87.5061 107.961 88.3617 107.575 89.0309C107.189 89.7 106.333 89.9293 105.664 89.5429Z" fill="#0695FE"/>
<path d="M109.271 82.1533C108.545 81.889 108.17 81.0862 108.435 80.3601C108.699 79.6341 109.502 79.2597 110.228 79.524C110.954 79.7882 111.328 80.5911 111.064 81.3171C110.8 82.0432 109.997 82.4175 109.271 82.1533Z" fill="#0695FE"/>
<path d="M111.54 74.2495C110.779 74.1154 110.271 73.3898 110.405 72.6289C110.539 71.8679 111.265 71.3599 112.025 71.494C112.786 71.6282 113.294 72.3538 113.16 73.1147C113.026 73.8756 112.3 74.3837 111.54 74.2495Z" fill="#0695FE"/>
<path d="M112.401 66.0719C111.629 66.0719 111.002 65.4455 111.002 64.6729C111.002 63.9002 111.629 63.2739 112.401 63.2739C113.174 63.2739 113.8 63.9002 113.8 64.6729C113.8 65.4455 113.174 66.0719 112.401 66.0719Z" fill="#0695FE"/>
<path d="M111.83 57.8688C111.069 58.0029 110.344 57.4949 110.21 56.7339C110.075 55.973 110.583 55.2474 111.344 55.1133C112.105 54.9791 112.831 55.4872 112.965 56.2481C113.099 57.009 112.591 57.7346 111.83 57.8688Z" fill="#0695FE"/>
<path d="M109.843 49.8896C109.117 50.1538 108.314 49.7795 108.05 49.0534C107.786 48.3274 108.16 47.5245 108.886 47.2603C109.612 46.996 110.415 47.3704 110.679 48.0964C110.944 48.8225 110.569 49.6253 109.843 49.8896Z" fill="#0695FE"/>
<path d="M106.501 42.3766C105.832 42.763 104.976 42.5337 104.59 41.8646C104.203 41.1954 104.433 40.3398 105.102 39.9535C105.771 39.5672 106.627 39.7964 107.013 40.4656C107.399 41.1347 107.17 41.9903 106.501 42.3766Z" fill="#0695FE"/>
<path d="M101.905 35.5581C101.313 36.0547 100.43 35.9775 99.9336 35.3856C99.4369 34.7938 99.5141 33.9113 100.106 33.4147C100.698 32.918 101.58 32.9952 102.077 33.5871C102.574 34.179 102.496 35.0614 101.905 35.5581Z" fill="#0695FE"/>
<path d="M96.1941 29.6413C95.6974 30.2332 94.815 30.3104 94.2231 29.8137C93.6313 29.3171 93.5541 28.4347 94.0507 27.8428C94.5474 27.2509 95.4298 27.1737 96.0217 27.6704C96.6135 28.167 96.6908 29.0494 96.1941 29.6413Z" fill="#0695FE"/>
<path d="M89.543 24.8061C89.1566 25.4752 88.301 25.7045 87.6319 25.3181C86.9627 24.9318 86.7335 24.0762 87.1198 23.4071C87.5061 22.7379 88.3618 22.5087 89.0309 22.895C89.7 23.2813 89.9293 24.1369 89.543 24.8061Z" fill="#0695FE"/>
<path d="M82.1533 21.1992C81.889 21.9253 81.0862 22.2996 80.3601 22.0354C79.6341 21.7711 79.2597 20.9683 79.524 20.2422C79.7883 19.5162 80.5911 19.1418 81.3171 19.4061C82.0432 19.6704 82.4175 20.4732 82.1533 21.1992Z" fill="#0695FE"/>
<path d="M74.2495 18.9305C74.1154 19.6914 73.3898 20.1994 72.6289 20.0653C71.8679 19.9311 71.3599 19.2055 71.494 18.4446C71.6282 17.6837 72.3538 17.1756 73.1147 17.3098C73.8756 17.4439 74.3837 18.1695 74.2495 18.9305Z" fill="#0695FE"/>
<path d="M66.0719 18.0686C66.0719 18.8412 65.4455 19.4676 64.6729 19.4676C63.9002 19.4676 63.2739 18.8412 63.2739 18.0686C63.2739 17.2959 63.9002 16.6696 64.6729 16.6696C65.4455 16.6696 66.0719 17.2959 66.0719 18.0686Z" fill="#0695FE"/>
<path d="M52.3607 14.2679C52.5893 15.1208 52.0831 15.9975 51.2302 16.2261C50.3772 16.4546 49.5005 15.9484 49.272 15.0955C49.0434 14.2426 49.5496 13.3658 50.4025 13.1373C51.2555 12.9088 52.1322 13.4149 52.3607 14.2679Z" fill="#0695FE"/>
<path d="M43.706 17.2778C44.0791 18.0781 43.7329 19.0294 42.9326 19.4026C42.1323 19.7758 41.181 19.4295 40.8078 18.6292C40.4347 17.8289 40.7809 16.8776 41.5812 16.5045C42.3815 16.1313 43.3328 16.4775 43.706 17.2778Z" fill="#0695FE"/>
<path d="M35.7053 21.7447C36.2118 22.468 36.036 23.465 35.3127 23.9715C34.5894 24.478 33.5924 24.3022 33.0859 23.5788C32.5794 22.8555 32.7552 21.8585 33.4786 21.3521C34.2019 20.8456 35.1989 21.0214 35.7053 21.7447Z" fill="#0695FE"/>
<path d="M28.602 27.5332C29.2264 28.1576 29.2264 29.17 28.602 29.7944C27.9776 30.4188 26.9652 30.4188 26.3408 29.7944C25.7164 29.17 25.7164 28.1576 26.3408 27.5332C26.9652 26.9088 27.9776 26.9088 28.602 27.5332Z" fill="#0695FE"/>
<path d="M22.6117 34.4673C23.335 34.9738 23.5108 35.9707 23.0043 36.6941C22.4978 37.4174 21.5009 37.5932 20.7775 37.0867C20.0542 36.5802 19.8784 35.5833 20.3849 34.8599C20.8914 34.1366 21.8883 33.9608 22.6117 34.4673Z" fill="#0695FE"/>
<path d="M17.9165 42.3362C18.7168 42.7094 19.063 43.6607 18.6898 44.461C18.3166 45.2613 17.3654 45.6075 16.5651 45.2343C15.7648 44.8611 15.4185 43.9099 15.7917 43.1096C16.1649 42.3093 17.1162 41.963 17.9165 42.3362Z" fill="#0695FE"/>
<path d="M14.659 50.901C15.5119 51.1295 16.0181 52.0063 15.7896 52.8592C15.561 53.7121 14.6843 54.2183 13.8314 53.9898C12.9784 53.7612 12.4723 52.8845 12.7008 52.0316C12.9294 51.1786 13.8061 50.6725 14.659 50.901Z" fill="#0695FE"/>
<path d="M12.9383 59.9011C13.818 59.978 14.4687 60.7535 14.3917 61.6332C14.3148 62.5129 13.5393 63.1636 12.6596 63.0866C11.7799 63.0097 11.1292 62.2342 11.2062 61.3545C11.2831 60.4748 12.0586 59.8241 12.9383 59.9011Z" fill="#0695FE"/>
<path d="M12.8065 69.0633C13.6862 68.9863 14.4617 69.637 14.5387 70.5167C14.6156 71.3964 13.9649 72.1719 13.0852 72.2488C12.2056 72.3258 11.4301 71.6751 11.3531 70.7954C11.2762 69.9157 11.9269 69.1402 12.8065 69.0633Z" fill="#0695FE"/>
<path d="M14.2678 78.1093C15.1208 77.8808 15.9975 78.3869 16.226 79.2399C16.4546 80.0928 15.9484 80.9695 15.0955 81.1981C14.2425 81.4266 13.3658 80.9204 13.1373 80.0675C12.9087 79.2146 13.4149 78.3379 14.2678 78.1093Z" fill="#0695FE"/>
<path d="M17.2777 86.7641C18.078 86.3909 19.0293 86.7372 19.4025 87.5375C19.7757 88.3378 19.4295 89.289 18.6292 89.6622C17.8289 90.0354 16.8776 89.6892 16.5044 88.8889C16.1312 88.0886 16.4775 87.1373 17.2777 86.7641Z" fill="#0695FE"/>
<path d="M21.7448 94.7648C22.4681 94.2583 23.4651 94.4341 23.9716 95.1574C24.4781 95.8807 24.3023 96.8777 23.5789 97.3842C22.8556 97.8907 21.8586 97.7149 21.3522 96.9915C20.8457 96.2682 21.0215 95.2712 21.7448 94.7648Z" fill="#0695FE"/>
<path d="M27.5333 101.868C28.1577 101.244 29.17 101.244 29.7944 101.868C30.4188 102.492 30.4188 103.505 29.7944 104.129C29.17 104.754 28.1577 104.754 27.5333 104.129C26.9089 103.505 26.9089 102.492 27.5333 101.868Z" fill="#0695FE"/>
<path d="M34.4673 107.858C34.9738 107.135 35.9708 106.959 36.6941 107.466C37.4174 107.972 37.5932 108.969 37.0867 109.693C36.5803 110.416 35.5833 110.592 34.86 110.085C34.1366 109.579 33.9608 108.582 34.4673 107.858Z" fill="#0695FE"/>
<path d="M42.3362 112.554C42.7094 111.753 43.6607 111.407 44.461 111.78C45.2613 112.153 45.6075 113.105 45.2343 113.905C44.8612 114.705 43.9099 115.051 43.1096 114.678C42.3093 114.305 41.963 113.354 42.3362 112.554Z" fill="#0695FE"/>
<path d="M50.9009 115.811C51.1294 114.958 52.0062 114.452 52.8591 114.68C53.712 114.909 54.2182 115.786 53.9897 116.639C53.7611 117.492 52.8844 117.998 52.0315 117.769C51.1785 117.541 50.6723 116.664 50.9009 115.811Z" fill="#0695FE"/>
<path d="M59.9011 117.532C59.978 116.652 60.7535 116.001 61.6332 116.078C62.5129 116.155 63.1636 116.931 63.0866 117.81C63.0097 118.69 62.2342 119.341 61.3545 119.264C60.4748 119.187 59.8241 118.411 59.9011 117.532Z" fill="#0695FE"/>
<path d="M69.0633 117.664C68.9864 116.784 69.6371 116.008 70.5168 115.931C71.3964 115.854 72.1719 116.505 72.2489 117.385C72.3259 118.264 71.6751 119.04 70.7955 119.117C69.9158 119.194 69.1403 118.543 69.0633 117.664Z" fill="#0695FE"/>
<path d="M78.1093 116.202C77.8807 115.349 78.3869 114.472 79.2398 114.244C80.0928 114.015 80.9695 114.521 81.198 115.374C81.4266 116.227 80.9204 117.104 80.0675 117.333C79.2145 117.561 78.3378 117.055 78.1093 116.202Z" fill="#0695FE"/>
<path d="M86.764 113.192C86.3908 112.392 86.7371 111.441 87.5374 111.068C88.3377 110.694 89.289 111.041 89.6622 111.841C90.0353 112.641 89.6891 113.592 88.8888 113.966C88.0885 114.339 87.1372 113.993 86.764 113.192Z" fill="#0695FE"/>
<path d="M94.7647 108.725C94.2582 108.002 94.434 107.005 95.1573 106.499C95.8807 105.992 96.8776 106.168 97.3841 106.891C97.8906 107.614 97.7148 108.611 96.9914 109.118C96.2681 109.624 95.2712 109.449 94.7647 108.725Z" fill="#0695FE"/>
<path d="M101.868 102.937C101.244 102.312 101.244 101.3 101.868 100.676C102.492 100.051 103.505 100.051 104.129 100.676C104.754 101.3 104.754 102.312 104.129 102.937C103.505 103.561 102.492 103.561 101.868 102.937Z" fill="#0695FE"/>
<path d="M107.858 96.0026C107.135 95.4962 106.959 94.4992 107.466 93.7759C107.972 93.0525 108.969 92.8767 109.693 93.3832C110.416 93.8897 110.592 94.8867 110.085 95.61C109.579 96.3333 108.582 96.5091 107.858 96.0026Z" fill="#0695FE"/>
<path d="M112.554 88.1338C111.753 87.7606 111.407 86.8093 111.78 86.009C112.153 85.2087 113.105 84.8625 113.905 85.2357C114.705 85.6088 115.051 86.5601 114.678 87.3604C114.305 88.1607 113.354 88.507 112.554 88.1338Z" fill="#0695FE"/>
<path d="M115.811 79.5691C114.958 79.3405 114.452 78.4638 114.68 77.6109C114.909 76.7579 115.786 76.2518 116.639 76.4803C117.492 76.7089 117.998 77.5856 117.769 78.4385C117.541 79.2915 116.664 79.7976 115.811 79.5691Z" fill="#0695FE"/>
<path d="M117.532 70.569C116.652 70.4921 116.001 69.7165 116.078 68.8369C116.155 67.9572 116.931 67.3065 117.81 67.3835C118.69 67.4604 119.341 68.2359 119.264 69.1156C119.187 69.9952 118.411 70.646 117.532 70.569Z" fill="#0695FE"/>
<path d="M117.663 61.4066C116.784 61.4836 116.008 60.8329 115.931 59.9532C115.854 59.0735 116.505 58.298 117.385 58.2211C118.264 58.1441 119.04 58.7948 119.117 59.6745C119.194 60.5542 118.543 61.3297 117.663 61.4066Z" fill="#0695FE"/>
<path d="M116.202 52.3607C115.349 52.5892 114.473 52.0831 114.244 51.2301C114.015 50.3772 114.522 49.5005 115.375 49.2719C116.228 49.0434 117.104 49.5495 117.333 50.4025C117.561 51.2554 117.055 52.1321 116.202 52.3607Z" fill="#0695FE"/>
<path d="M113.192 43.7061C112.392 44.0792 111.441 43.733 111.067 42.9327C110.694 42.1324 111.041 41.1811 111.841 40.8079C112.641 40.4348 113.592 40.781 113.966 41.5813C114.339 42.3816 113.993 43.3329 113.192 43.7061Z" fill="#0695FE"/>
<path d="M108.725 35.7055C108.002 36.212 107.005 36.0362 106.498 35.3128C105.992 34.5895 106.168 33.5925 106.891 33.086C107.614 32.5796 108.611 32.7554 109.118 33.4787C109.624 34.202 109.449 35.199 108.725 35.7055Z" fill="#0695FE"/>
<path d="M102.937 28.602C102.312 29.2264 101.3 29.2264 100.676 28.602C100.051 27.9776 100.051 26.9653 100.676 26.3409C101.3 25.7165 102.312 25.7165 102.937 26.3409C103.561 26.9653 103.561 27.9776 102.937 28.602Z" fill="#0695FE"/>
<path d="M96.0027 22.6117C95.4962 23.335 94.4993 23.5108 93.7759 23.0043C93.0526 22.4978 92.8768 21.5009 93.3833 20.7776C93.8898 20.0542 94.8867 19.8784 95.6101 20.3849C96.3334 20.8914 96.5092 21.8884 96.0027 22.6117Z" fill="#0695FE"/>
<path d="M88.1338 17.9164C87.7606 18.7167 86.8093 19.0629 86.009 18.6897C85.2087 18.3165 84.8625 17.3653 85.2356 16.565C85.6088 15.7647 86.5601 15.4184 87.3604 15.7916C88.1607 16.1648 88.507 17.1161 88.1338 17.9164Z" fill="#0695FE"/>
<path d="M79.5691 14.659C79.3406 15.5119 78.4639 16.0181 77.6109 15.7895C76.758 15.561 76.2518 14.6843 76.4803 13.8313C76.7089 12.9784 77.5856 12.4722 78.4385 12.7008C79.2915 12.9293 79.7977 13.806 79.5691 14.659Z" fill="#0695FE"/>
<path d="M70.569 12.9383C70.492 13.818 69.7165 14.4687 68.8368 14.3917C67.9572 14.3148 67.3064 13.5393 67.3834 12.6596C67.4604 11.7799 68.2359 11.1292 69.1155 11.2062C69.9952 11.2831 70.6459 12.0586 70.569 12.9383Z" fill="#0695FE"/>
<path d="M61.4067 12.8066C61.4837 13.6862 60.8329 14.4617 59.9533 14.5387C59.0736 14.6156 58.2981 13.9649 58.2211 13.0853C58.1442 12.2056 58.7949 11.4301 59.6746 11.3531C60.5542 11.2762 61.3297 11.9269 61.4067 12.8066Z" fill="#0695FE"/>
<path d="M55.8348 8.03971C56.0073 9.01802 55.3541 9.95094 54.3758 10.1234C53.3974 10.2959 52.4645 9.64271 52.292 8.66439C52.1195 7.68608 52.7728 6.75316 53.7511 6.58066C54.7294 6.40815 55.6623 7.06139 55.8348 8.03971Z" fill="#0695FE"/>
<path d="M46.0457 10.541C46.3855 11.4745 45.9042 12.5066 44.9707 12.8464C44.0372 13.1862 43.005 12.7049 42.6652 11.7714C42.3255 10.8379 42.8068 9.80569 43.7403 9.46593C44.6738 9.12616 45.706 9.60748 46.0457 10.541Z" fill="#0695FE"/>
<path d="M36.8397 14.7039C37.3364 15.5642 37.0417 16.6643 36.1814 17.161C35.321 17.6577 34.221 17.3629 33.7243 16.5026C33.2276 15.6423 33.5223 14.5422 34.3826 14.0455C35.243 13.5488 36.343 13.8435 36.8397 14.7039Z" fill="#0695FE"/>
<path d="M28.4965 20.4024C29.1351 21.1634 29.0358 22.2979 28.2748 22.9365C27.5138 23.575 26.3793 23.4758 25.7407 22.7148C25.1022 21.9538 25.2014 20.8192 25.9624 20.1807C26.7234 19.5421 27.858 19.6414 28.4965 20.4024Z" fill="#0695FE"/>
<path d="M21.2696 27.4631C22.0306 28.1017 22.1298 29.2362 21.4913 29.9972C20.8527 30.7582 19.7182 30.8575 18.9572 30.2189C18.1962 29.5804 18.0969 28.4458 18.7355 27.6848C19.374 26.9238 20.5086 26.8246 21.2696 27.4631Z" fill="#0695FE"/>
<path d="M15.3785 35.6715C16.2388 36.1682 16.5336 37.2683 16.0369 38.1286C15.5402 38.9889 14.4401 39.2837 13.5798 38.787C12.7195 38.2903 12.4247 37.1902 12.9214 36.3299C13.4181 35.4696 14.5182 35.1748 15.3785 35.6715Z" fill="#0695FE"/>
<path d="M11.0023 44.7783C11.9358 45.118 12.4171 46.1502 12.0773 47.0837C11.7375 48.0172 10.7054 48.4985 9.77186 48.1588C8.83837 47.819 8.35705 46.7868 8.69682 45.8533C9.03658 44.9198 10.0688 44.4385 11.0023 44.7783Z" fill="#0695FE"/>
<path d="M8.27391 54.5063C9.25222 54.6788 9.90546 55.6117 9.73295 56.5901C9.56045 57.5684 8.62753 58.2216 7.64922 58.0491C6.67091 57.8766 6.01767 56.9437 6.19017 55.9654C6.36267 54.9871 7.29559 54.3338 8.27391 54.5063Z" fill="#0695FE"/>
<path d="M7.27624 64.5605C8.26965 64.5605 9.07496 65.3658 9.07496 66.3592C9.07496 67.3526 8.26965 68.1579 7.27624 68.1579C6.28284 68.1579 5.47752 67.3526 5.47752 66.3592C5.47752 65.3658 6.28284 64.5605 7.27624 64.5605Z" fill="#0695FE"/>
<path d="M8.03964 74.6353C9.01795 74.4628 9.95087 75.116 10.1234 76.0943C10.2959 77.0726 9.64264 78.0056 8.66433 78.1781C7.68602 78.3506 6.7531 77.6973 6.58059 76.719C6.40809 75.7407 7.06133 74.8078 8.03964 74.6353Z" fill="#0695FE"/>
<path d="M10.5409 84.4244C11.4744 84.0846 12.5066 84.5659 12.8463 85.4994C13.1861 86.4329 12.7048 87.4651 11.7713 87.8049C10.8378 88.1446 9.80562 87.6633 9.46585 86.7298C9.12609 85.7963 9.6074 84.7642 10.5409 84.4244Z" fill="#0695FE"/>
<path d="M14.704 93.6304C15.5643 93.1337 16.6644 93.4285 17.1611 94.2888C17.6578 95.1491 17.363 96.2492 16.5027 96.7459C15.6424 97.2426 14.5423 96.9478 14.0456 96.0875C13.5489 95.2272 13.8437 94.1271 14.704 93.6304Z" fill="#0695FE"/>
<path d="M20.4025 101.974C21.1635 101.335 22.298 101.434 22.9366 102.195C23.5751 102.956 23.4758 104.091 22.7149 104.729C21.9539 105.368 20.8193 105.269 20.1808 104.508C19.5422 103.747 19.6415 102.612 20.4025 101.974Z" fill="#0695FE"/>
<path d="M27.4631 109.201C28.1017 108.44 29.2363 108.34 29.9972 108.979C30.7582 109.617 30.8575 110.752 30.2189 111.513C29.5804 112.274 28.4458 112.373 27.6849 111.735C26.9239 111.096 26.8246 109.962 27.4631 109.201Z" fill="#0695FE"/>
<path d="M35.6715 115.091C36.1682 114.231 37.2683 113.936 38.1286 114.433C38.9889 114.93 39.2837 116.03 38.787 116.89C38.2903 117.751 37.1902 118.045 36.3299 117.549C35.4696 117.052 35.1748 115.952 35.6715 115.091Z" fill="#0695FE"/>
<path d="M44.7782 119.468C45.1179 118.534 46.1501 118.053 47.0836 118.393C48.0171 118.732 48.4984 119.765 48.1586 120.698C47.8189 121.632 46.7867 122.113 45.8532 121.773C44.9197 121.433 44.4384 120.401 44.7782 119.468Z" fill="#0695FE"/>
<path d="M54.5063 122.196C54.6788 121.218 55.6118 120.565 56.5901 120.737C57.5684 120.91 58.2216 121.842 58.0491 122.821C57.8766 123.799 56.9437 124.452 55.9654 124.28C54.9871 124.107 54.3338 123.174 54.5063 122.196Z" fill="#0695FE"/>
<path d="M64.5605 123.194C64.5605 122.2 65.3658 121.395 66.3592 121.395C67.3526 121.395 68.158 122.2 68.158 123.194C68.158 124.187 67.3526 124.993 66.3592 124.993C65.3658 124.993 64.5605 124.187 64.5605 123.194Z" fill="#0695FE"/>
<path d="M74.6352 122.43C74.4627 121.452 75.1159 120.519 76.0942 120.346C77.0726 120.174 78.0055 120.827 78.178 121.806C78.3505 122.784 77.6973 123.717 76.7189 123.889C75.7406 124.062 74.8077 123.409 74.6352 122.43Z" fill="#0695FE"/>
<path d="M84.4242 119.929C84.0845 118.996 84.5658 117.963 85.4993 117.624C86.4328 117.284 87.4649 117.765 87.8047 118.699C88.1445 119.632 87.6632 120.664 86.7297 121.004C85.7962 121.344 84.764 120.863 84.4242 119.929Z" fill="#0695FE"/>
<path d="M93.6303 115.766C93.1336 114.906 93.4284 113.806 94.2887 113.309C95.149 112.812 96.2491 113.107 96.7458 113.967C97.2425 114.828 96.9477 115.928 96.0874 116.425C95.2271 116.921 94.127 116.626 93.6303 115.766Z" fill="#0695FE"/>
<path d="M101.974 110.068C101.335 109.307 101.434 108.172 102.195 107.533C102.956 106.895 104.091 106.994 104.729 107.755C105.368 108.516 105.269 109.651 104.508 110.289C103.747 110.928 102.612 110.828 101.974 110.068Z" fill="#0695FE"/>
<path d="M109.2 103.007C108.439 102.368 108.34 101.234 108.979 100.473C109.617 99.7117 110.752 99.6124 111.513 100.251C112.274 100.89 112.373 102.024 111.735 102.785C111.096 103.546 109.961 103.645 109.2 103.007Z" fill="#0695FE"/>
<path d="M115.092 94.7984C114.231 94.3017 113.936 93.2017 114.433 92.3413C114.93 91.481 116.03 91.1863 116.89 91.683C117.751 92.1797 118.045 93.2797 117.549 94.1401C117.052 95.0004 115.952 95.2952 115.092 94.7984Z" fill="#0695FE"/>
<path d="M119.468 85.6919C118.534 85.3521 118.053 84.3199 118.393 83.3864C118.732 82.4529 119.765 81.9716 120.698 82.3114C121.632 82.6511 122.113 83.6833 121.773 84.6168C121.433 85.5503 120.401 86.0316 119.468 85.6919Z" fill="#0695FE"/>
<path d="M122.196 75.9637C121.218 75.7912 120.565 74.8583 120.737 73.88C120.91 72.9017 121.842 72.2485 122.821 72.421C123.799 72.5935 124.452 73.5264 124.28 74.5047C124.107 75.483 123.174 76.1362 122.196 75.9637Z" fill="#0695FE"/>
<path d="M123.194 65.9094C122.2 65.9094 121.395 65.1041 121.395 64.1107C121.395 63.1173 122.2 62.312 123.194 62.312C124.187 62.312 124.992 63.1173 124.992 64.1107C124.992 65.1041 124.187 65.9094 123.194 65.9094Z" fill="#0695FE"/>
<path d="M122.43 55.8347C121.452 56.0072 120.519 55.354 120.347 54.3757C120.174 53.3974 120.827 52.4644 121.806 52.2919C122.784 52.1194 123.717 52.7727 123.889 53.751C124.062 54.7293 123.409 55.6622 122.43 55.8347Z" fill="#0695FE"/>
<path d="M119.929 46.0458C118.996 46.3856 117.963 45.9043 117.624 44.9708C117.284 44.0373 117.765 43.0051 118.699 42.6653C119.632 42.3256 120.664 42.8069 121.004 43.7404C121.344 44.6739 120.863 45.7061 119.929 46.0458Z" fill="#0695FE"/>
<path d="M115.766 36.8398C114.906 37.3365 113.806 37.0418 113.309 36.1814C112.812 35.3211 113.107 34.2211 113.967 33.7243C114.828 33.2276 115.928 33.5224 116.424 34.3827C116.921 35.243 116.626 36.3431 115.766 36.8398Z" fill="#0695FE"/>
<path d="M110.068 28.4965C109.307 29.1351 108.172 29.0358 107.533 28.2748C106.895 27.5138 106.994 26.3793 107.755 25.7407C108.516 25.1022 109.651 25.2015 110.289 25.9624C110.928 26.7234 110.829 27.858 110.068 28.4965Z" fill="#0695FE"/>
<path d="M103.007 21.2696C102.368 22.0306 101.234 22.1299 100.473 21.4913C99.7118 20.8528 99.6125 19.7182 100.251 18.9572C100.89 18.1962 102.024 18.097 102.785 18.7355C103.546 19.3741 103.645 20.5086 103.007 21.2696Z" fill="#0695FE"/>
<path d="M94.7985 15.3783C94.3018 16.2386 93.2017 16.5334 92.3414 16.0367C91.4811 15.54 91.1863 14.4399 91.683 13.5796C92.1797 12.7193 93.2798 12.4245 94.1401 12.9212C95.0004 13.4179 95.2952 14.518 94.7985 15.3783Z" fill="#0695FE"/>
<path d="M85.6918 11.0022C85.3521 11.9357 84.3199 12.417 83.3864 12.0772C82.4529 11.7374 81.9716 10.7053 82.3114 9.77177C82.6511 8.83827 83.6833 8.35696 84.6168 8.69673C85.5503 9.03649 86.0316 10.0687 85.6918 11.0022Z" fill="#0695FE"/>
<path d="M75.9637 8.27393C75.7912 9.25224 74.8582 9.90548 73.8799 9.73298C72.9016 9.56048 72.2484 8.62756 72.4209 7.64924C72.5934 6.67093 73.5263 6.01769 74.5046 6.1902C75.4829 6.3627 76.1362 7.29562 75.9637 8.27393Z" fill="#0695FE"/>
<path d="M65.9095 7.27625C65.9095 8.26965 65.1042 9.07496 64.1108 9.07496C63.1174 9.07496 62.3121 8.26965 62.3121 7.27625C62.3121 6.28284 63.1174 5.47753 64.1108 5.47753C65.1042 5.47753 65.9095 6.28284 65.9095 7.27625Z" fill="#0695FE"/>
<path d="M49.4106 3.8853C49.6963 4.95147 49.0636 6.04737 47.9974 6.33305C46.9312 6.61873 45.8353 5.98601 45.5497 4.91984C45.264 3.85367 45.8967 2.75778 46.9629 2.4721C48.029 2.18642 49.1249 2.81913 49.4106 3.8853Z" fill="#0695FE"/>
<path d="M38.9977 7.56527C39.4642 8.56564 39.0314 9.75475 38.0311 10.2212C37.0307 10.6877 35.8416 10.2549 35.3751 9.25454C34.9086 8.25417 35.3414 7.06506 36.3418 6.59858C37.3422 6.1321 38.5313 6.5649 38.9977 7.56527Z" fill="#0695FE"/>
<path d="M29.3821 12.9972C30.0152 13.9014 29.7954 15.1476 28.8913 15.7807C27.9871 16.4138 26.7409 16.1941 26.1078 15.2899C25.4747 14.3857 25.6944 13.1395 26.5986 12.5064C27.5028 11.8733 28.749 12.0931 29.3821 12.9972Z" fill="#0695FE"/>
<path d="M20.8558 20.0167C21.6363 20.7972 21.6363 22.0626 20.8558 22.8431C20.0753 23.6236 18.8099 23.6236 18.0294 22.8431C17.2489 22.0626 17.2489 20.7972 18.0294 20.0167C18.8099 19.2362 20.0753 19.2362 20.8558 20.0167Z" fill="#0695FE"/>
<path d="M13.678 28.4101C14.5821 29.0432 14.8019 30.2894 14.1688 31.1935C13.5357 32.0977 12.2895 32.3174 11.3853 31.6843C10.4811 31.0512 10.2614 29.805 10.8945 28.9009C11.5276 27.9967 12.7738 27.777 13.678 28.4101Z" fill="#0695FE"/>
<path d="M8.06669 37.9224C9.06705 38.3888 9.49986 39.5779 9.03338 40.5783C8.5669 41.5787 7.37778 42.0115 6.37742 41.545C5.37705 41.0785 4.94425 39.8894 5.41073 38.889C5.87721 37.8887 7.06632 37.4559 8.06669 37.9224Z" fill="#0695FE"/>
<path d="M4.1924 48.2646C5.25857 48.5503 5.89128 49.6462 5.6056 50.7124C5.31992 51.7785 4.22403 52.4112 3.15786 52.1256C2.09169 51.8399 1.45897 50.744 1.74465 49.6778C2.03033 48.6116 3.12623 47.9789 4.1924 48.2646Z" fill="#0695FE"/>
<path d="M2.17288 59.1222C3.27247 59.2184 4.08587 60.1877 3.98967 61.2873C3.89347 62.3869 2.92409 63.2003 1.82451 63.1041C0.724926 63.0079 -0.0884755 62.0385 0.00772557 60.9389C0.103927 59.8394 1.0733 59.026 2.17288 59.1222Z" fill="#0695FE"/>
<path d="M2.06945 70.1657C3.16903 70.0695 4.13841 70.8829 4.23461 71.9825C4.33081 73.082 3.51741 74.0514 2.41783 74.1476C1.31824 74.2438 0.348868 73.4304 0.252667 72.3308C0.156466 71.2313 0.969868 70.2619 2.06945 70.1657Z" fill="#0695FE"/>
<path d="M3.88529 81.0594C4.95146 80.7737 6.04736 81.4064 6.33304 82.4726C6.61872 83.5388 5.986 84.6347 4.91983 84.9204C3.85366 85.2061 2.75776 84.5733 2.47208 83.5072C2.1864 82.441 2.81912 81.3451 3.88529 81.0594Z" fill="#0695FE"/>
<path d="M7.56522 91.4724C8.56559 91.0059 9.7547 91.4387 10.2212 92.439C10.6877 93.4394 10.2549 94.6285 9.25449 95.095C8.25412 95.5615 7.06501 95.1287 6.59853 94.1283C6.13205 93.1279 6.56485 91.9388 7.56522 91.4724Z" fill="#0695FE"/>
<path d="M12.9974 101.088C13.9016 100.455 15.1478 100.675 15.7809 101.579C16.414 102.483 16.1942 103.729 15.2901 104.362C14.3859 104.995 13.1397 104.776 12.5066 103.871C11.8735 102.967 12.0932 101.721 12.9974 101.088Z" fill="#0695FE"/>
<path d="M20.0168 109.614C20.7973 108.834 22.0627 108.834 22.8432 109.614C23.6237 110.395 23.6237 111.66 22.8432 112.441C22.0627 113.221 20.7973 113.221 20.0168 112.441C19.2363 111.66 19.2363 110.395 20.0168 109.614Z" fill="#0695FE"/>
<path d="M28.4101 116.792C29.0432 115.888 30.2894 115.668 31.1936 116.301C32.0978 116.934 32.3175 118.181 31.6844 119.085C31.0513 119.989 29.8051 120.209 28.9009 119.576C27.9968 118.942 27.777 117.696 28.4101 116.792Z" fill="#0695FE"/>
<path d="M37.9224 122.403C38.3888 121.403 39.5779 120.97 40.5783 121.437C41.5787 121.903 42.0115 123.092 41.545 124.093C41.0785 125.093 39.8894 125.526 38.889 125.059C37.8887 124.593 37.4559 123.404 37.9224 122.403Z" fill="#0695FE"/>
<path d="M48.2645 126.278C48.5502 125.211 49.6461 124.579 50.7122 124.864C51.7784 125.15 52.4111 126.246 52.1254 127.312C51.8398 128.378 50.7439 129.011 49.6777 128.725C48.6115 128.44 47.9788 127.344 48.2645 126.278Z" fill="#0695FE"/>
<path d="M59.1222 128.297C59.2184 127.198 60.1878 126.384 61.2874 126.48C62.387 126.577 63.2004 127.546 63.1042 128.645C63.008 129.745 62.0386 130.558 60.939 130.462C59.8394 130.366 59.026 129.397 59.1222 128.297Z" fill="#0695FE"/>
<path d="M70.1657 128.401C70.0695 127.301 70.8829 126.332 71.9825 126.235C73.0821 126.139 74.0515 126.953 74.1477 128.052C74.2439 129.152 73.4305 130.121 72.3309 130.217C71.2313 130.314 70.2619 129.5 70.1657 128.401Z" fill="#0695FE"/>
<path d="M81.0594 126.585C80.7737 125.518 81.4064 124.422 82.4726 124.137C83.5388 123.851 84.6346 124.484 84.9203 125.55C85.206 126.616 84.5733 127.712 83.5071 127.998C82.441 128.283 81.3451 127.651 81.0594 126.585Z" fill="#0695FE"/>
<path d="M91.4722 122.905C91.0057 121.904 91.4385 120.715 92.4389 120.249C93.4393 119.782 94.6284 120.215 95.0948 121.215C95.5613 122.216 95.1285 123.405 94.1282 123.871C93.1278 124.338 91.9387 123.905 91.4722 122.905Z" fill="#0695FE"/>
<path d="M101.088 117.473C100.455 116.569 100.675 115.322 101.579 114.689C102.483 114.056 103.729 114.276 104.362 115.18C104.995 116.084 104.776 117.33 103.871 117.964C102.967 118.597 101.721 118.377 101.088 117.473Z" fill="#0695FE"/>
<path d="M109.614 110.453C108.834 109.673 108.834 108.407 109.614 107.627C110.395 106.846 111.66 106.846 112.441 107.627C113.221 108.407 113.221 109.673 112.441 110.453C111.66 111.234 110.395 111.234 109.614 110.453Z" fill="#0695FE"/>
<path d="M116.792 102.06C115.888 101.427 115.668 100.18 116.301 99.2763C116.934 98.3721 118.181 98.1524 119.085 98.7855C119.989 99.4186 120.209 100.665 119.576 101.569C118.942 102.473 117.696 102.693 116.792 102.06Z" fill="#0695FE"/>
<path d="M122.403 92.5476C121.403 92.0811 120.97 90.892 121.437 89.8916C121.903 88.8912 123.092 88.4585 124.093 88.9249C125.093 89.3914 125.526 90.5805 125.059 91.5809C124.593 92.5812 123.404 93.0141 122.403 92.5476Z" fill="#0695FE"/>
<path d="M126.278 82.2055C125.211 81.9198 124.579 80.8239 124.864 79.7578C125.15 78.6916 126.246 78.0589 127.312 78.3445C128.378 78.6302 129.011 79.7261 128.725 80.7923C128.44 81.8585 127.344 82.4912 126.278 82.2055Z" fill="#0695FE"/>
<path d="M128.297 71.3479C127.198 71.2517 126.384 70.2823 126.48 69.1827C126.577 68.0831 127.546 67.2697 128.645 67.3659C129.745 67.4621 130.558 68.4315 130.462 69.5311C130.366 70.6307 129.397 71.4441 128.297 71.3479Z" fill="#0695FE"/>
<path d="M128.4 60.3042C127.301 60.4004 126.332 59.587 126.235 58.4874C126.139 57.3878 126.953 56.4184 128.052 56.3222C129.152 56.226 130.121 57.0394 130.217 58.139C130.313 59.2386 129.5 60.208 128.4 60.3042Z" fill="#0695FE"/>
<path d="M126.585 49.4105C125.519 49.6962 124.423 49.0635 124.137 47.9973C123.851 46.9311 124.484 45.8352 125.55 45.5496C126.616 45.2639 127.712 45.8966 127.998 46.9628C128.284 48.0289 127.651 49.1248 126.585 49.4105Z" fill="#0695FE"/>
<path d="M122.905 38.9978C121.904 39.4643 120.715 39.0315 120.249 38.0311C119.782 37.0308 120.215 35.8417 121.215 35.3752C122.216 34.9087 123.405 35.3415 123.871 36.3419C124.338 37.3422 123.905 38.5314 122.905 38.9978Z" fill="#0695FE"/>
<path d="M117.473 29.3822C116.568 30.0153 115.322 29.7955 114.689 28.8914C114.056 27.9872 114.276 26.741 115.18 26.1079C116.084 25.4748 117.33 25.6945 117.963 26.5987C118.596 27.5029 118.377 28.7491 117.473 29.3822Z" fill="#0695FE"/>
<path d="M110.453 20.8558C109.673 21.6363 108.407 21.6363 107.627 20.8558C106.846 20.0753 106.846 18.8099 107.627 18.0294C108.407 17.2489 109.673 17.2489 110.453 18.0294C111.234 18.8099 111.234 20.0753 110.453 20.8558Z" fill="#0695FE"/>
<path d="M102.06 13.678C101.427 14.5822 100.181 14.8019 99.2764 14.1688C98.3722 13.5357 98.1525 12.2895 98.7856 11.3854C99.4187 10.4812 100.665 10.2614 101.569 10.8946C102.473 11.5277 102.693 12.7739 102.06 13.678Z" fill="#0695FE"/>
<path d="M92.5476 8.06646C92.0811 9.06683 90.892 9.49963 89.8916 9.03315C88.8912 8.56667 88.4585 7.37756 88.9249 6.37719C89.3914 5.37683 90.5805 4.94403 91.5809 5.4105C92.5813 5.87698 93.0141 7.0661 92.5476 8.06646Z" fill="#0695FE"/>
<path d="M82.2055 4.19229C81.9198 5.25846 80.8239 5.89117 79.7578 5.60549C78.6916 5.31981 78.0589 4.22392 78.3445 3.15775C78.6302 2.09158 79.7261 1.45886 80.7923 1.74454C81.8585 2.03022 82.4912 3.12611 82.2055 4.19229Z" fill="#0695FE"/>
<path d="M71.3478 2.17288C71.2516 3.27247 70.2822 4.08587 69.1826 3.98967C68.083 3.89347 67.2696 2.92409 67.3658 1.82451C67.462 0.724926 68.4314 -0.0884755 69.531 0.00772557C70.6306 0.103927 71.444 1.0733 71.3478 2.17288Z" fill="#0695FE"/>
<path d="M60.3043 2.06944C60.4005 3.16902 59.5871 4.13839 58.4875 4.2346C57.3879 4.3308 56.4185 3.5174 56.3223 2.41781C56.2261 1.31823 57.0395 0.348855 58.1391 0.252654C59.2387 0.156453 60.2081 0.969854 60.3043 2.06944Z" fill="#0695FE"/>
<path fill-rule="evenodd" clip-rule="evenodd" d="M58.3203 48.5053C59.1794 48.1751 61.0957 46.5235 61.8886 42.5586H68.034C68.4965 44.4088 69.8974 48.2282 71.8005 48.704L66.7167 61.2178C66.2089 60.9985 65.6489 60.877 65.0605 60.877C64.4985 60.877 63.9624 60.9879 63.4729 61.189L58.3203 48.5053Z" fill="#EB363A"/>
<path fill-rule="evenodd" clip-rule="evenodd" d="M81.5314 58.1185C81.1575 57.2776 80.9703 54.7546 83.2133 51.3904L78.8678 47.0449C77.2324 48.0261 73.5412 49.7363 71.8591 48.727L66.605 61.1709C67.6487 61.586 68.4857 62.4095 68.9188 63.444L81.5314 58.1185Z" fill="#FF8C00"/>
<path fill-rule="evenodd" clip-rule="evenodd" d="M81.6138 71.7985C81.9441 70.9395 83.5957 69.0231 87.5606 68.2303V62.0849C85.7104 61.6223 81.891 60.2214 81.4152 58.3184L68.9009 63.4023C69.1199 63.9098 69.2413 64.4694 69.2413 65.0573C69.2413 65.6195 69.1303 66.1558 68.929 66.6455L81.6138 71.7985Z" fill="#FFD000"/>
<path fill-rule="evenodd" clip-rule="evenodd" d="M66.5986 68.946L71.8346 81.3996C73.5182 80.3928 77.2069 82.1086 78.8408 83.0923L83.1928 78.7534C80.955 75.3858 81.1459 72.8631 81.5212 72.0227L68.9156 66.6777C68.4808 67.7109 67.6428 68.5327 66.5986 68.946Z" fill="#7AC80B"/>
<path fill-rule="evenodd" clip-rule="evenodd" d="M63.4736 68.9273L58.3203 81.6126C59.1794 81.9428 61.0957 83.5945 61.8886 87.5593H68.034C68.4965 85.7091 69.8974 81.8897 71.8005 81.414L66.7161 68.8984C66.2084 69.1176 65.6486 69.239 65.0605 69.239C64.4988 69.239 63.9629 69.1282 63.4736 68.9273Z" fill="#00AB9D"/>
<path fill-rule="evenodd" clip-rule="evenodd" d="M61.1747 66.6035L48.7304 71.8577C49.7397 73.5398 48.0296 77.2311 47.0483 78.8665L51.3938 83.2119C54.758 80.969 57.281 81.1562 58.1219 81.5301L63.4478 68.9166C62.4134 68.4837 61.5899 67.647 61.1747 66.6035Z" fill="#0285DE"/>
<path fill-rule="evenodd" clip-rule="evenodd" d="M48.5073 71.7985C48.1771 70.9395 46.5254 69.0231 42.5605 68.2303V62.0849C44.4108 61.6223 48.2302 60.2214 48.7059 58.3184L61.2203 63.4023C61.0012 63.9098 60.8799 64.4694 60.8799 65.0573C60.8799 65.6195 60.9909 66.1558 61.1921 66.6455L48.5073 71.7985Z" fill="#9646FC"/>
<path fill-rule="evenodd" clip-rule="evenodd" d="M58.1469 48.5787C57.3054 48.9514 54.7822 49.1348 51.4214 46.8867L47.0693 51.2256C48.0481 52.8624 49.7526 56.5563 48.7408 58.2369L61.176 63.5095C61.5924 62.466 62.417 61.6295 63.4525 61.1976L58.1469 48.5787Z" fill="#C548B9"/>
</svg>
