<svg width="101" height="101" viewBox="0 0 101 101" fill="none" xmlns="http://www.w3.org/2000/svg">
<path d="M46.3722 22.6354C46.4464 23.0561 46.1654 23.4573 45.7447 23.5315C45.324 23.6057 44.9227 23.3248 44.8486 22.904C44.7744 22.4833 45.0553 22.0821 45.476 22.0079C45.8968 21.9337 46.298 22.2146 46.3722 22.6354Z" fill="white"/>
<path d="M41.5963 23.7755C41.7424 24.1769 41.5354 24.6208 41.1339 24.767C40.7325 24.9131 40.2885 24.7061 40.1424 24.3046C39.9963 23.9032 40.2033 23.4592 40.6048 23.3131C41.0062 23.167 41.4501 23.374 41.5963 23.7755Z" fill="white"/>
<path d="M37.0909 25.7276C37.3045 26.0976 37.1777 26.5707 36.8077 26.7843C36.4377 26.9979 35.9646 26.8712 35.751 26.5012C35.5374 26.1312 35.6642 25.6581 36.0342 25.4444C36.4042 25.2308 36.8773 25.3576 37.0909 25.7276Z" fill="white"/>
<path d="M32.9929 28.4324C33.2675 28.7597 33.2248 29.2476 32.8976 29.5222C32.5703 29.7969 32.0823 29.7542 31.8077 29.4269C31.5331 29.0996 31.5758 28.6117 31.9031 28.3371C32.2304 28.0624 32.7183 28.1051 32.9929 28.4324Z" fill="white"/>
<path d="M29.4269 31.8077C29.7542 32.0823 29.7969 32.5703 29.5222 32.8976C29.2476 33.2248 28.7597 33.2675 28.4324 32.9929C28.1051 32.7183 28.0624 32.2304 28.3371 31.9031C28.6117 31.5758 29.0996 31.5331 29.4269 31.8077Z" fill="white"/>
<path d="M26.5012 35.751C26.8712 35.9646 26.9979 36.4377 26.7843 36.8077C26.5707 37.1777 26.0976 37.3045 25.7276 37.0909C25.3576 36.8773 25.2308 36.4042 25.4444 36.0342C25.6581 35.6642 26.1312 35.5374 26.5012 35.751Z" fill="white"/>
<path d="M24.3046 40.1424C24.7061 40.2886 24.9131 40.7325 24.767 41.1339C24.6209 41.5354 24.1769 41.7424 23.7755 41.5963C23.374 41.4502 23.167 41.0062 23.3131 40.6048C23.4593 40.2033 23.9032 39.9963 24.3046 40.1424Z" fill="white"/>
<path d="M22.904 44.8486C23.3248 44.9227 23.6057 45.324 23.5315 45.7447C23.4573 46.1655 23.0561 46.4464 22.6354 46.3722C22.2146 46.298 21.9337 45.8968 22.0079 45.4761C22.0821 45.0553 22.4833 44.7744 22.904 44.8486Z" fill="white"/>
<path d="M22.3419 49.7264C22.7692 49.7264 23.1155 50.0728 23.1155 50.5C23.1155 50.9272 22.7692 51.2736 22.3419 51.2736C21.9147 51.2736 21.5684 50.9272 21.5684 50.5C21.5684 50.0728 21.9147 49.7264 22.3419 49.7264Z" fill="white"/>
<path d="M22.6354 54.6278C23.0561 54.5536 23.4573 54.8345 23.5315 55.2552C23.6057 55.676 23.3248 56.0772 22.904 56.1514C22.4833 56.2256 22.0821 55.9446 22.0079 55.5239C21.9337 55.1032 22.2146 54.7019 22.6354 54.6278Z" fill="white"/>
<path d="M23.7755 59.4037C24.177 59.2576 24.6209 59.4646 24.767 59.866C24.9131 60.2675 24.7061 60.7114 24.3046 60.8575C23.9032 61.0036 23.4593 60.7966 23.3132 60.3952C23.167 59.9937 23.374 59.5498 23.7755 59.4037Z" fill="white"/>
<path d="M25.7276 63.9091C26.0976 63.6955 26.5707 63.8222 26.7843 64.1922C26.9979 64.5622 26.8712 65.0353 26.5012 65.2489C26.1312 65.4626 25.6581 65.3358 25.4445 64.9658C25.2308 64.5958 25.3576 64.1227 25.7276 63.9091Z" fill="white"/>
<path d="M28.4324 68.007C28.7597 67.7324 29.2476 67.7751 29.5223 68.1024C29.7969 68.4297 29.7542 68.9176 29.4269 69.1922C29.0996 69.4668 28.6117 69.4241 28.3371 69.0969C28.0625 68.7696 28.1052 68.2816 28.4324 68.007Z" fill="white"/>
<path d="M31.8078 71.5731C32.0824 71.2458 32.5703 71.2031 32.8976 71.4777C33.2249 71.7523 33.2676 72.2403 32.9929 72.5676C32.7183 72.8948 32.2304 72.9375 31.9031 72.6629C31.5758 72.3883 31.5331 71.9003 31.8078 71.5731Z" fill="white"/>
<path d="M35.751 74.4988C35.9647 74.1288 36.4378 74.002 36.8078 74.2156C37.1778 74.4293 37.3045 74.9024 37.0909 75.2724C36.8773 75.6423 36.4042 75.7691 36.0342 75.5555C35.6642 75.3419 35.5374 74.8688 35.751 74.4988Z" fill="white"/>
<path d="M40.1425 76.6953C40.2886 76.2938 40.7325 76.0869 41.134 76.233C41.5354 76.3791 41.7424 76.823 41.5963 77.2245C41.4502 77.6259 41.0063 77.8329 40.6048 77.6868C40.2033 77.5407 39.9963 77.0968 40.1425 76.6953Z" fill="white"/>
<path d="M44.8486 78.0959C44.9228 77.6752 45.324 77.3942 45.7447 77.4684C46.1655 77.5426 46.4464 77.9438 46.3722 78.3646C46.298 78.7853 45.8968 79.0662 45.4761 78.9921C45.0553 78.9179 44.7744 78.5167 44.8486 78.0959Z" fill="white"/>
<path d="M49.7264 78.658C49.7264 78.2308 50.0728 77.8844 50.5 77.8844C50.9272 77.8844 51.2736 78.2308 51.2736 78.658C51.2736 79.0853 50.9272 79.4316 50.5 79.4316C50.0728 79.4316 49.7264 79.0853 49.7264 78.658Z" fill="white"/>
<path d="M54.6278 78.3646C54.5536 77.9438 54.8345 77.5426 55.2553 77.4684C55.676 77.3942 56.0772 77.6752 56.1514 78.0959C56.2256 78.5166 55.9447 78.9179 55.5239 78.9921C55.1032 79.0662 54.702 78.7853 54.6278 78.3646Z" fill="white"/>
<path d="M59.4037 77.2244C59.2576 76.823 59.4646 76.3791 59.866 76.233C60.2675 76.0868 60.7114 76.2938 60.8575 76.6953C61.0037 77.0968 60.7967 77.5407 60.3952 77.6868C59.9937 77.8329 59.5498 77.6259 59.4037 77.2244Z" fill="white"/>
<path d="M63.9091 75.2723C63.6955 74.9024 63.8223 74.4292 64.1922 74.2156C64.5622 74.002 65.0354 74.1288 65.249 74.4988C65.4626 74.8688 65.3358 75.3419 64.9658 75.5555C64.5958 75.7691 64.1227 75.6423 63.9091 75.2723Z" fill="white"/>
<path d="M68.0071 72.5675C67.7324 72.2402 67.7751 71.7523 68.1024 71.4777C68.4297 71.2031 68.9176 71.2457 69.1922 71.573C69.4669 71.9003 69.4242 72.3882 69.0969 72.6629C68.7696 72.9375 68.2817 72.8948 68.0071 72.5675Z" fill="white"/>
<path d="M71.5731 69.1922C71.2458 68.9176 71.2031 68.4296 71.4777 68.1023C71.7524 67.7751 72.2403 67.7324 72.5676 68.007C72.8949 68.2816 72.9375 68.7696 72.6629 69.0968C72.3883 69.4241 71.9004 69.4668 71.5731 69.1922Z" fill="white"/>
<path d="M74.4988 65.2489C74.1288 65.0353 74.002 64.5622 74.2157 64.1922C74.4293 63.8222 74.9024 63.6954 75.2724 63.909C75.6424 64.1227 75.7691 64.5958 75.5555 64.9658C75.3419 65.3357 74.8688 65.4625 74.4988 65.2489Z" fill="white"/>
<path d="M76.6953 60.8575C76.2939 60.7114 76.0869 60.2675 76.233 59.866C76.3791 59.4645 76.823 59.2575 77.2245 59.4036C77.626 59.5498 77.833 59.9937 77.6868 60.3951C77.5407 60.7966 77.0968 61.0036 76.6953 60.8575Z" fill="white"/>
<path d="M78.0959 56.1514C77.6752 56.0772 77.3942 55.676 77.4684 55.2552C77.5426 54.8345 77.9438 54.5535 78.3646 54.6277C78.7853 54.7019 79.0663 55.1031 78.9921 55.5239C78.9179 55.9446 78.5167 56.2256 78.0959 56.1514Z" fill="white"/>
<path d="M78.658 51.2735C78.2308 51.2735 77.8845 50.9272 77.8845 50.4999C77.8845 50.0727 78.2308 49.7264 78.658 49.7264C79.0853 49.7264 79.4316 50.0727 79.4316 50.4999C79.4316 50.9272 79.0853 51.2735 78.658 51.2735Z" fill="white"/>
<path d="M78.3646 46.3722C77.9438 46.4464 77.5426 46.1654 77.4684 45.7447C77.3942 45.3239 77.6752 44.9227 78.0959 44.8485C78.5167 44.7743 78.9179 45.0553 78.9921 45.476C79.0663 45.8968 78.7853 46.298 78.3646 46.3722Z" fill="white"/>
<path d="M77.2245 41.5962C76.823 41.7424 76.3791 41.5354 76.233 41.1339C76.0869 40.7324 76.2939 40.2885 76.6953 40.1424C77.0968 39.9963 77.5407 40.2033 77.6868 40.6047C77.8329 41.0062 77.626 41.4501 77.2245 41.5962Z" fill="white"/>
<path d="M75.2724 37.0909C74.9024 37.3045 74.4293 37.1777 74.2156 36.8077C74.002 36.4377 74.1288 35.9646 74.4988 35.751C74.8688 35.5374 75.3419 35.6641 75.5555 36.0341C75.7691 36.4041 75.6424 36.8772 75.2724 37.0909Z" fill="white"/>
<path d="M72.5675 32.9929C72.2403 33.2675 71.7523 33.2248 71.4777 32.8975C71.2031 32.5703 71.2458 32.0823 71.5731 31.8077C71.9003 31.5331 72.3883 31.5758 72.6629 31.9031C72.9375 32.2303 72.8948 32.7183 72.5675 32.9929Z" fill="white"/>
<path d="M69.1922 29.4269C68.9176 29.7541 68.4297 29.7968 68.1024 29.5222C67.7751 29.2476 67.7324 28.7597 68.007 28.4324C68.2816 28.1051 68.7696 28.0624 69.0969 28.337C69.4241 28.6117 69.4668 29.0996 69.1922 29.4269Z" fill="white"/>
<path d="M65.2489 26.5011C65.0353 26.8711 64.5622 26.9979 64.1922 26.7843C63.8222 26.5707 63.6954 26.0976 63.9091 25.7276C64.1227 25.3576 64.5958 25.2308 64.9658 25.4444C65.3358 25.658 65.4625 26.1311 65.2489 26.5011Z" fill="white"/>
<path d="M60.8575 24.3046C60.7114 24.7061 60.2675 24.9131 59.866 24.767C59.4646 24.6208 59.2575 24.1769 59.4037 23.7755C59.5498 23.374 59.9937 23.167 60.3952 23.3131C60.7966 23.4592 61.0036 23.9031 60.8575 24.3046Z" fill="white"/>
<path d="M56.1514 22.904C56.0772 23.3248 55.676 23.6057 55.2552 23.5315C54.8345 23.4573 54.5536 23.0561 54.6277 22.6354C54.7019 22.2146 55.1032 21.9337 55.5239 22.0079C55.9446 22.082 56.2256 22.4833 56.1514 22.904Z" fill="white"/>
<path d="M51.2735 22.3419C51.2735 22.7691 50.9272 23.1155 50.5 23.1155C50.0727 23.1155 49.7264 22.7691 49.7264 22.3419C49.7264 21.9147 50.0727 21.5683 50.5 21.5683C50.9272 21.5683 51.2735 21.9147 51.2735 22.3419Z" fill="white"/>
<path d="M42.8175 19.0825C42.9502 19.5777 42.6563 20.0867 42.1611 20.2194C41.6658 20.3521 41.1568 20.0582 41.0241 19.563C40.8915 19.0678 41.1853 18.5587 41.6805 18.4261C42.1758 18.2934 42.6848 18.5872 42.8175 19.0825Z" fill="white"/>
<path d="M37.4786 20.8938C37.6952 21.3584 37.4942 21.9107 37.0296 22.1274C36.5649 22.3441 36.0126 22.1431 35.7959 21.6784C35.5793 21.2138 35.7803 20.6615 36.2449 20.4448C36.7096 20.2281 37.2619 20.4291 37.4786 20.8938Z" fill="white"/>
<path d="M32.5353 23.6047C32.8294 24.0247 32.7273 24.6035 32.3074 24.8976C31.8874 25.1916 31.3086 25.0896 31.0145 24.6696C30.7205 24.2496 30.8225 23.6708 31.2425 23.3767C31.6625 23.0827 32.2413 23.1847 32.5353 23.6047Z" fill="white"/>
<path d="M28.138 27.1328C28.5005 27.4953 28.5005 28.0831 28.138 28.4456C27.7754 28.8081 27.1877 28.8081 26.8252 28.4456C26.4626 28.0831 26.4626 27.4953 26.8252 27.1328C27.1877 26.7703 27.7754 26.7703 28.138 27.1328Z" fill="white"/>
<path d="M24.42 31.371C24.84 31.665 24.9421 32.2439 24.648 32.6638C24.3539 33.0838 23.7751 33.1859 23.3551 32.8918C22.9352 32.5977 22.8331 32.0189 23.1272 31.5989C23.4212 31.179 24.0001 31.0769 24.42 31.371Z" fill="white"/>
<path d="M21.4945 36.1903C21.9592 36.407 22.1602 36.9593 21.9435 37.4239C21.7269 37.8886 21.1746 38.0896 20.7099 37.8729C20.2453 37.6563 20.0442 37.1039 20.2609 36.6393C20.4776 36.1747 21.0299 35.9736 21.4945 36.1903Z" fill="white"/>
<path d="M19.4504 41.4445C19.9456 41.5772 20.2394 42.0862 20.1068 42.5814C19.9741 43.0766 19.465 43.3705 18.9698 43.2378C18.4746 43.1051 18.1807 42.5961 18.3134 42.1009C18.4461 41.6057 18.9551 41.3118 19.4504 41.4445Z" fill="white"/>
<path d="M18.3496 46.9738C18.8603 47.0185 19.2381 47.4687 19.1934 47.9794C19.1488 48.4902 18.6985 48.868 18.1878 48.8233C17.6771 48.7786 17.2993 48.3283 17.3439 47.8176C17.3886 47.3069 17.8389 46.9291 18.3496 46.9738Z" fill="white"/>
<path d="M18.2257 52.6102C18.7364 52.5655 19.1867 52.9433 19.2314 53.454C19.2761 53.9647 18.8983 54.415 18.3875 54.4597C17.8768 54.5044 17.4265 54.1266 17.3819 53.6158C17.3372 53.1051 17.715 52.6549 18.2257 52.6102Z" fill="white"/>
<path d="M19.0825 58.1825C19.5777 58.0498 20.0867 58.3437 20.2194 58.8389C20.3521 59.3341 20.0582 59.8431 19.563 59.9758C19.0678 60.1085 18.5588 59.8146 18.4261 59.3194C18.2934 58.8242 18.5873 58.3152 19.0825 58.1825Z" fill="white"/>
<path d="M20.8938 63.5214C21.3585 63.3047 21.9108 63.5057 22.1275 63.9704C22.3441 64.435 22.1431 64.9873 21.6785 65.204C21.2138 65.4207 20.6615 65.2196 20.4448 64.755C20.2282 64.2904 20.4292 63.738 20.8938 63.5214Z" fill="white"/>
<path d="M23.6048 68.4646C24.0247 68.1706 24.6036 68.2726 24.8976 68.6926C25.1917 69.1126 25.0896 69.6914 24.6696 69.9855C24.2497 70.2795 23.6709 70.1775 23.3768 69.7575C23.0827 69.3375 23.1848 68.7587 23.6048 68.4646Z" fill="white"/>
<path d="M27.1329 72.862C27.4954 72.4995 28.0832 72.4995 28.4457 72.862C28.8082 73.2245 28.8082 73.8123 28.4457 74.1748C28.0832 74.5373 27.4954 74.5373 27.1329 74.1748C26.7704 73.8123 26.7704 73.2245 27.1329 72.862Z" fill="white"/>
<path d="M31.371 76.5799C31.6651 76.16 32.2439 76.0579 32.6639 76.352C33.0838 76.646 33.1859 77.2249 32.8918 77.6448C32.5978 78.0648 32.0189 78.1669 31.599 77.8728C31.179 77.5787 31.0769 76.9999 31.371 76.5799Z" fill="white"/>
<path d="M36.1904 79.5054C36.407 79.0408 36.9593 78.8398 37.424 79.0564C37.8886 79.2731 38.0897 79.8254 37.873 80.29C37.6563 80.7547 37.104 80.9557 36.6394 80.7391C36.1747 80.5224 35.9737 79.9701 36.1904 79.5054Z" fill="white"/>
<path d="M41.4445 81.5496C41.5772 81.0544 42.0862 80.7605 42.5814 80.8932C43.0766 81.0259 43.3705 81.5349 43.2378 82.0301C43.1051 82.5253 42.5961 82.8192 42.1009 82.6865C41.6057 82.5538 41.3118 82.0448 41.4445 81.5496Z" fill="white"/>
<path d="M46.9738 82.6504C47.0185 82.1396 47.4687 81.7618 47.9794 81.8065C48.4902 81.8512 48.868 82.3014 48.8233 82.8122C48.7786 83.3229 48.3284 83.7007 47.8176 83.656C47.3069 83.6113 46.9291 83.1611 46.9738 82.6504Z" fill="white"/>
<path d="M52.6102 82.7743C52.5655 82.2635 52.9433 81.8133 53.4541 81.7686C53.9648 81.7239 54.415 82.1017 54.4597 82.6124C54.5044 83.1232 54.1266 83.5734 53.6159 83.6181C53.1051 83.6628 52.6549 83.285 52.6102 82.7743Z" fill="white"/>
<path d="M58.1825 81.9175C58.0498 81.4223 58.3437 80.9132 58.8389 80.7805C59.3341 80.6479 59.8431 80.9417 59.9758 81.437C60.1085 81.9322 59.8146 82.4412 59.3194 82.5739C58.8242 82.7066 58.3152 82.4127 58.1825 81.9175Z" fill="white"/>
<path d="M63.5214 80.1061C63.3047 79.6415 63.5058 79.0892 63.9704 78.8725C64.4351 78.6558 64.9874 78.8569 65.204 79.3215C65.4207 79.7862 65.2197 80.3385 64.755 80.5551C64.2904 80.7718 63.7381 80.5708 63.5214 80.1061Z" fill="white"/>
<path d="M68.4646 77.3952C68.1706 76.9753 68.2726 76.3964 68.6926 76.1024C69.1126 75.8083 69.6914 75.9104 69.9855 76.3303C70.2795 76.7503 70.1775 77.3291 69.7575 77.6232C69.3375 77.9173 68.7587 77.8152 68.4646 77.3952Z" fill="white"/>
<path d="M72.862 73.867C72.4995 73.5045 72.4995 72.9168 72.862 72.5542C73.2245 72.1917 73.8123 72.1917 74.1748 72.5542C74.5373 72.9168 74.5373 73.5045 74.1748 73.867C73.8123 74.2296 73.2245 74.2296 72.862 73.867Z" fill="white"/>
<path d="M76.5799 69.629C76.16 69.3349 76.0579 68.7561 76.352 68.3361C76.646 67.9161 77.2249 67.8141 77.6448 68.1081C78.0648 68.4022 78.1669 68.981 77.8728 69.401C77.5787 69.821 76.9999 69.923 76.5799 69.629Z" fill="white"/>
<path d="M79.5055 64.8096C79.0408 64.5929 78.8398 64.0406 79.0564 63.5759C79.2731 63.1113 79.8254 62.9103 80.2901 63.1269C80.7547 63.3436 80.9557 63.8959 80.7391 64.3606C80.5224 64.8252 79.9701 65.0262 79.5055 64.8096Z" fill="white"/>
<path d="M81.5496 59.5554C81.0544 59.4227 80.7605 58.9137 80.8932 58.4185C81.0259 57.9233 81.5349 57.6294 82.0302 57.7621C82.5254 57.8948 82.8192 58.4038 82.6865 58.899C82.5539 59.3943 82.0448 59.6881 81.5496 59.5554Z" fill="white"/>
<path d="M82.6504 54.0262C82.1396 53.9815 81.7618 53.5312 81.8065 53.0205C81.8512 52.5098 82.3015 52.132 82.8122 52.1767C83.3229 52.2213 83.7007 52.6716 83.656 53.1823C83.6114 53.693 83.1611 54.0709 82.6504 54.0262Z" fill="white"/>
<path d="M82.7743 48.3898C82.2635 48.4345 81.8133 48.0566 81.7686 47.5459C81.7239 47.0352 82.1017 46.5849 82.6124 46.5403C83.1232 46.4956 83.5734 46.8734 83.6181 47.3841C83.6628 47.8948 83.285 48.3451 82.7743 48.3898Z" fill="white"/>
<path d="M81.9175 42.8174C81.4223 42.9501 80.9133 42.6562 80.7806 42.161C80.6479 41.6658 80.9418 41.1568 81.437 41.0241C81.9322 40.8914 82.4412 41.1853 82.5739 41.6805C82.7066 42.1757 82.4127 42.6847 81.9175 42.8174Z" fill="white"/>
<path d="M80.1061 37.4786C79.6415 37.6952 79.0892 37.4942 78.8725 37.0296C78.6558 36.5649 78.8569 36.0126 79.3215 35.7959C79.7862 35.5793 80.3385 35.7803 80.5551 36.2449C80.7718 36.7096 80.5708 37.2619 80.1061 37.4786Z" fill="white"/>
<path d="M77.3952 32.5354C76.9753 32.8294 76.3965 32.7273 76.1024 32.3074C75.8083 31.8874 75.9104 31.3086 76.3304 31.0145C76.7503 30.7205 77.3291 30.8225 77.6232 31.2425C77.9173 31.6625 77.8152 32.2413 77.3952 32.5354Z" fill="white"/>
<path d="M73.8671 28.1379C73.5046 28.5004 72.9168 28.5004 72.5543 28.1379C72.1918 27.7754 72.1918 27.1877 72.5543 26.8251C72.9168 26.4626 73.5046 26.4626 73.8671 26.8251C74.2296 27.1877 74.2296 27.7754 73.8671 28.1379Z" fill="white"/>
<path d="M69.629 24.42C69.3349 24.8399 68.7561 24.942 68.3361 24.648C67.9162 24.3539 67.8141 23.7751 68.1082 23.3551C68.4022 22.9351 68.9811 22.8331 69.401 23.1271C69.821 23.4212 69.923 24 69.629 24.42Z" fill="white"/>
<path d="M64.8096 21.4945C64.5929 21.9591 64.0406 22.1602 63.576 21.9435C63.1113 21.7268 62.9103 21.1745 63.127 20.7099C63.3437 20.2452 63.896 20.0442 64.3606 20.2609C64.8253 20.4775 65.0263 21.0299 64.8096 21.4945Z" fill="white"/>
<path d="M59.5555 19.4503C59.4228 19.9455 58.9138 20.2394 58.4186 20.1067C57.9234 19.974 57.6295 19.465 57.7622 18.9698C57.8949 18.4746 58.4039 18.1807 58.8991 18.3134C59.3943 18.4461 59.6882 18.9551 59.5555 19.4503Z" fill="white"/>
<path d="M54.0262 18.3496C53.9815 18.8603 53.5313 19.2381 53.0205 19.1934C52.5098 19.1487 52.132 18.6985 52.1767 18.1878C52.2214 17.677 52.6716 17.2992 53.1824 17.3439C53.6931 17.3886 54.0709 17.8388 54.0262 18.3496Z" fill="white"/>
<path d="M48.3898 18.2257C48.4345 18.7364 48.0567 19.1867 47.5459 19.2313C47.0352 19.276 46.5849 18.8982 46.5403 18.3875C46.4956 17.8768 46.8734 17.4265 47.3841 17.3818C47.8948 17.3371 48.3451 17.715 48.3898 18.2257Z" fill="white"/>
<path d="M44.7976 14.4295C44.9015 15.0186 44.5082 15.5803 43.9192 15.6841C43.3301 15.788 42.7684 15.3947 42.6645 14.8056C42.5607 14.2166 42.954 13.6549 43.543 13.551C44.1321 13.4472 44.6938 13.8405 44.7976 14.4295Z" fill="white"/>
<path d="M38.6207 15.9677C38.8253 16.5298 38.5355 17.1513 37.9734 17.3558C37.4114 17.5604 36.7899 17.2706 36.5853 16.7085C36.3807 16.1465 36.6705 15.525 37.2326 15.3204C37.7946 15.1159 38.4161 15.4057 38.6207 15.9677Z" fill="white"/>
<path d="M32.8047 18.5551C33.1038 19.0731 32.9263 19.7355 32.4083 20.0345C31.8903 20.3336 31.228 20.1561 30.9289 19.6381C30.6298 19.1201 30.8073 18.4578 31.3253 18.1587C31.8433 17.8596 32.5056 18.0371 32.8047 18.5551Z" fill="white"/>
<path d="M27.5264 22.1132C27.9108 22.5714 27.8511 23.2545 27.3929 23.639C26.9347 24.0234 26.2516 23.9637 25.8671 23.5055C25.4826 23.0473 25.5424 22.3642 26.0006 21.9797C26.4588 21.5952 27.1419 21.655 27.5264 22.1132Z" fill="white"/>
<path d="M22.9461 26.5338C23.4043 26.9183 23.464 27.6014 23.0796 28.0596C22.6951 28.5177 22.012 28.5775 21.5538 28.193C21.0956 27.8086 21.0358 27.1255 21.4203 26.6673C21.8048 26.2091 22.4879 26.1493 22.9461 26.5338Z" fill="white"/>
<path d="M19.203 31.6826C19.721 31.9816 19.8985 32.644 19.5994 33.162C19.3003 33.68 18.638 33.8575 18.12 33.5584C17.602 33.2593 17.4245 32.597 17.7236 32.079C18.0227 31.561 18.685 31.3835 19.203 31.6826Z" fill="white"/>
<path d="M16.4109 37.4032C16.9729 37.6078 17.2627 38.2292 17.0581 38.7913C16.8536 39.3533 16.2321 39.6431 15.67 39.4386C15.108 39.234 14.8182 38.6125 15.0228 38.0505C15.2273 37.4884 15.8488 37.1986 16.4109 37.4032Z" fill="white"/>
<path d="M14.6545 43.5216C15.2436 43.6255 15.6369 44.1872 15.533 44.7763C15.4291 45.3653 14.8674 45.7586 14.2784 45.6547C13.6894 45.5509 13.296 44.9892 13.3999 44.4001C13.5038 43.8111 14.0655 43.4178 14.6545 43.5216Z" fill="white"/>
<path d="M13.9873 49.8521C14.5854 49.8521 15.0703 50.337 15.0703 50.9351C15.0703 51.5332 14.5854 52.0181 13.9873 52.0181C13.3892 52.0181 12.9043 51.5332 12.9043 50.9351C12.9043 50.337 13.3892 49.8521 13.9873 49.8521Z" fill="white"/>
<path d="M14.4295 56.2024C15.0186 56.0985 15.5803 56.4919 15.6841 57.0809C15.788 57.6699 15.3947 58.2316 14.8056 58.3355C14.2166 58.4394 13.6549 58.0461 13.551 57.457C13.4472 56.868 13.8405 56.3063 14.4295 56.2024Z" fill="white"/>
<path d="M15.9677 62.3793C16.5298 62.1747 17.1512 62.4645 17.3558 63.0266C17.5604 63.5886 17.2706 64.2101 16.7085 64.4147C16.1465 64.6192 15.525 64.3295 15.3204 63.7674C15.1159 63.2053 15.4057 62.5839 15.9677 62.3793Z" fill="white"/>
<path d="M18.5552 68.1954C19.0731 67.8963 19.7355 68.0738 20.0346 68.5918C20.3336 69.1098 20.1562 69.7721 19.6382 70.0712C19.1202 70.3703 18.4578 70.1928 18.1588 69.6748C17.8597 69.1568 18.0372 68.4944 18.5552 68.1954Z" fill="white"/>
<path d="M22.1132 73.4736C22.5714 73.0892 23.2545 73.1489 23.639 73.6071C24.0235 74.0653 23.9637 74.7484 23.5055 75.1329C23.0473 75.5174 22.3642 75.4576 21.9797 74.9994C21.5953 74.5412 21.655 73.8581 22.1132 73.4736Z" fill="white"/>
<path d="M26.5338 78.054C26.9183 77.5958 27.6014 77.536 28.0596 77.9205C28.5178 78.3049 28.5775 78.9881 28.1931 79.4462C27.8086 79.9044 27.1255 79.9642 26.6673 79.5797C26.2091 79.1953 26.1493 78.5122 26.5338 78.054Z" fill="white"/>
<path d="M31.6826 81.797C31.9817 81.279 32.644 81.1016 33.162 81.4006C33.68 81.6997 33.8575 82.362 33.5584 82.88C33.2594 83.398 32.597 83.5755 32.079 83.2765C31.561 82.9774 31.3835 82.315 31.6826 81.797Z" fill="white"/>
<path d="M37.4032 84.5891C37.6077 84.0271 38.2292 83.7373 38.7913 83.9418C39.3533 84.1464 39.6431 84.7679 39.4385 85.3299C39.234 85.892 38.6125 86.1818 38.0504 85.9772C37.4884 85.7727 37.1986 85.1512 37.4032 84.5891Z" fill="white"/>
<path d="M43.5216 86.3455C43.6255 85.7564 44.1872 85.3631 44.7762 85.467C45.3653 85.5709 45.7586 86.1326 45.6547 86.7216C45.5509 87.3107 44.9892 87.704 44.4001 87.6001C43.8111 87.4962 43.4178 86.9345 43.5216 86.3455Z" fill="white"/>
<path d="M49.8522 87.0127C49.8522 86.4146 50.337 85.9297 50.9352 85.9297C51.5333 85.9297 52.0182 86.4146 52.0182 87.0127C52.0182 87.6108 51.5333 88.0957 50.9352 88.0957C50.337 88.0957 49.8522 87.6108 49.8522 87.0127Z" fill="white"/>
<path d="M56.2024 86.5704C56.0985 85.9814 56.4918 85.4197 57.0808 85.3158C57.6699 85.212 58.2316 85.6053 58.3355 86.1943C58.4393 86.7833 58.046 87.3451 57.457 87.4489C56.8679 87.5528 56.3062 87.1595 56.2024 86.5704Z" fill="white"/>
<path d="M62.3793 85.0323C62.1747 84.4702 62.4645 83.8488 63.0266 83.6442C63.5886 83.4396 64.2101 83.7294 64.4147 84.2915C64.6192 84.8535 64.3295 85.475 63.7674 85.6796C63.2053 85.8841 62.5839 85.5943 62.3793 85.0323Z" fill="white"/>
<path d="M68.1953 82.4449C67.8962 81.9269 68.0737 81.2646 68.5917 80.9655C69.1097 80.6664 69.7721 80.8439 70.0711 81.3619C70.3702 81.8799 70.1927 82.5423 69.6747 82.8413C69.1567 83.1404 68.4944 82.9629 68.1953 82.4449Z" fill="white"/>
<path d="M73.4736 78.8867C73.0892 78.4286 73.1489 77.7455 73.6071 77.361C74.0653 76.9765 74.7484 77.0363 75.1329 77.4945C75.5173 77.9527 75.4576 78.6358 74.9994 79.0202C74.5412 79.4047 73.8581 79.3449 73.4736 78.8867Z" fill="white"/>
<path d="M78.0539 74.4662C77.5957 74.0817 77.536 73.3986 77.9205 72.9404C78.3049 72.4822 78.988 72.4224 79.4462 72.8069C79.9044 73.1914 79.9642 73.8745 79.5797 74.3327C79.1952 74.7909 78.5121 74.8506 78.0539 74.4662Z" fill="white"/>
<path d="M81.797 69.3174C81.279 69.0183 81.1015 68.3559 81.4006 67.838C81.6997 67.32 82.362 67.1425 82.88 67.4416C83.398 67.7406 83.5755 68.403 83.2764 68.921C82.9774 69.439 82.315 69.6164 81.797 69.3174Z" fill="white"/>
<path d="M84.5891 63.5968C84.0271 63.3923 83.7373 62.7708 83.9419 62.2087C84.1464 61.6467 84.7679 61.3569 85.33 61.5615C85.892 61.766 86.1818 62.3875 85.9772 62.9496C85.7727 63.5116 85.1512 63.8014 84.5891 63.5968Z" fill="white"/>
<path d="M86.3455 57.4784C85.7565 57.3745 85.3631 56.8128 85.467 56.2238C85.5709 55.6347 86.1326 55.2414 86.7216 55.3453C87.3107 55.4491 87.704 56.0108 87.6001 56.5999C87.4962 57.1889 86.9345 57.5822 86.3455 57.4784Z" fill="white"/>
<path d="M87.0127 51.1478C86.4146 51.1478 85.9297 50.663 85.9297 50.0648C85.9297 49.4667 86.4146 48.9818 87.0127 48.9818C87.6108 48.9818 88.0957 49.4667 88.0957 50.0648C88.0957 50.663 87.6108 51.1478 87.0127 51.1478Z" fill="white"/>
<path d="M86.5705 44.7976C85.9815 44.9015 85.4197 44.5082 85.3159 43.9191C85.212 43.3301 85.6053 42.7684 86.1944 42.6645C86.7834 42.5606 87.3451 42.954 87.449 43.543C87.5528 44.132 87.1595 44.6937 86.5705 44.7976Z" fill="white"/>
<path d="M85.0323 38.6207C84.4702 38.8253 83.8487 38.5355 83.6442 37.9734C83.4396 37.4114 83.7294 36.7899 84.2915 36.5853C84.8535 36.3808 85.475 36.6706 85.6796 37.2326C85.8841 37.7947 85.5943 38.4161 85.0323 38.6207Z" fill="white"/>
<path d="M82.4449 32.8048C81.9269 33.1038 81.2645 32.9264 80.9654 32.4084C80.6664 31.8904 80.8439 31.228 81.3619 30.929C81.8799 30.6299 82.5422 30.8074 82.8413 31.3254C83.1403 31.8434 82.9628 32.5057 82.4449 32.8048Z" fill="white"/>
<path d="M78.8868 27.5264C78.4286 27.9108 77.7455 27.8511 77.361 27.3929C76.9765 26.9347 77.0363 26.2516 77.4945 25.8671C77.9527 25.4827 78.6358 25.5424 79.0203 26.0006C79.4047 26.4588 79.345 27.1419 78.8868 27.5264Z" fill="white"/>
<path d="M74.4662 22.9461C74.0817 23.4043 73.3986 23.464 72.9404 23.0795C72.4822 22.6951 72.4225 22.012 72.8069 21.5538C73.1914 21.0956 73.8745 21.0358 74.3327 21.4203C74.7909 21.8048 74.8507 22.4879 74.4662 22.9461Z" fill="white"/>
<path d="M69.3174 19.203C69.0183 19.721 68.356 19.8984 67.838 19.5994C67.32 19.3003 67.1425 18.638 67.4416 18.12C67.7406 17.602 68.403 17.4245 68.921 17.7236C69.439 18.0226 69.6164 18.685 69.3174 19.203Z" fill="white"/>
<path d="M63.5968 16.4108C63.3923 16.9729 62.7708 17.2627 62.2087 17.0581C61.6467 16.8535 61.3569 16.2321 61.5615 15.67C61.766 15.108 62.3875 14.8182 62.9496 15.0227C63.5116 15.2273 63.8014 15.8488 63.5968 16.4108Z" fill="white"/>
<path d="M57.4784 14.6545C57.3745 15.2436 56.8128 15.6369 56.2238 15.533C55.6347 15.4292 55.2414 14.8674 55.3453 14.2784C55.4491 13.6894 56.0108 13.2961 56.5999 13.3999C57.1889 13.5038 57.5822 14.0655 57.4784 14.6545Z" fill="white"/>
<path d="M51.1478 13.9873C51.1478 14.5854 50.663 15.0703 50.0648 15.0703C49.4667 15.0703 48.9818 14.5854 48.9818 13.9873C48.9818 13.3892 49.4667 12.9043 50.0648 12.9043C50.663 12.9043 51.1478 13.3892 51.1478 13.9873Z" fill="white"/>
<path d="M40.5337 11.0451C40.7106 11.7054 40.3188 12.3841 39.6585 12.561C38.9982 12.7379 38.3196 12.3461 38.1426 11.6858C37.9657 11.0255 38.3575 10.3468 39.0178 10.1699C39.6781 9.99298 40.3568 10.3848 40.5337 11.0451Z" fill="white"/>
<path d="M33.8338 13.3752C34.1227 13.9947 33.8547 14.7311 33.2352 15.02C32.6157 15.3089 31.8792 15.0409 31.5903 14.4213C31.3014 13.8018 31.5695 13.0654 32.189 12.7765C32.8085 12.4876 33.545 12.7556 33.8338 13.3752Z" fill="white"/>
<path d="M27.6404 16.8331C28.0324 17.3931 27.8964 18.1648 27.3364 18.5569C26.7765 18.949 26.0047 18.8129 25.6126 18.253C25.2205 17.693 25.3566 16.9212 25.9166 16.5291C26.4765 16.1371 27.2483 16.2732 27.6404 16.8331Z" fill="white"/>
<path d="M22.1415 21.3141C22.6248 21.7975 22.6248 22.5812 22.1415 23.0645C21.6581 23.5479 20.8744 23.5479 20.3911 23.0645C19.9077 22.5812 19.9077 21.7975 20.3911 21.3141C20.8744 20.8308 21.6581 20.8308 22.1415 21.3141Z" fill="white"/>
<path d="M17.5042 26.682C18.0642 27.074 18.2003 27.8458 17.8082 28.4058C17.4161 28.9657 16.6443 29.1018 16.0844 28.7097C15.5244 28.3176 15.3884 27.5459 15.7804 26.9859C16.1725 26.426 16.9443 26.2899 17.5042 26.682Z" fill="white"/>
<path d="M13.8696 32.7735C14.4891 33.0624 14.7571 33.7988 14.4682 34.4183C14.1794 35.0378 13.4429 35.3059 12.8234 35.017C12.2039 34.7281 11.9359 33.9917 12.2247 33.3722C12.5136 32.7526 13.2501 32.4846 13.8696 32.7735Z" fill="white"/>
<path d="M11.3479 39.4037C12.0082 39.5806 12.4 40.2593 12.2231 40.9196C12.0462 41.5799 11.3675 41.9717 10.7072 41.7948C10.0469 41.6179 9.65509 40.9392 9.83201 40.2789C10.0089 39.6186 10.6876 39.2268 11.3479 39.4037Z" fill="white"/>
<path d="M10.0158 46.3709C10.6968 46.4305 11.2006 47.0308 11.141 47.7118C11.0814 48.3927 10.4811 48.8965 9.80009 48.8369C9.11912 48.7773 8.61538 48.177 8.67496 47.496C8.73454 46.815 9.33487 46.3113 10.0158 46.3709Z" fill="white"/>
<path d="M9.91386 53.4636C10.5948 53.404 11.1952 53.9077 11.2547 54.5887C11.3143 55.2697 10.8106 55.87 10.1296 55.9296C9.44864 55.9892 8.8483 55.4854 8.78873 54.8045C8.72915 54.1235 9.23289 53.5231 9.91386 53.4636Z" fill="white"/>
<path d="M11.0451 60.4663C11.7054 60.2894 12.3841 60.6812 12.561 61.3415C12.7379 62.0018 12.3461 62.6805 11.6858 62.8574C11.0255 63.0343 10.3468 62.6425 10.1699 61.9822C9.99297 61.3219 10.3848 60.6432 11.0451 60.4663Z" fill="white"/>
<path d="M13.3751 67.1662C13.9947 66.8773 14.7311 67.1453 15.02 67.7649C15.3088 68.3844 15.0408 69.1208 14.4213 69.4097C13.8018 69.6986 13.0653 69.4306 12.7765 68.811C12.4876 68.1915 12.7556 67.4551 13.3751 67.1662Z" fill="white"/>
<path d="M16.8332 73.3597C17.3931 72.9676 18.1649 73.1037 18.557 73.6637C18.9491 74.2236 18.813 74.9954 18.253 75.3875C17.6931 75.7795 16.9213 75.6435 16.5292 75.0835C16.1371 74.5236 16.2732 73.7518 16.8332 73.3597Z" fill="white"/>
<path d="M21.3142 78.8586C21.7975 78.3752 22.5812 78.3752 23.0646 78.8586C23.5479 79.3419 23.5479 80.1256 23.0646 80.609C22.5812 81.0923 21.7975 81.0923 21.3142 80.609C20.8308 80.1256 20.8308 79.3419 21.3142 78.8586Z" fill="white"/>
<path d="M26.682 83.4958C27.0741 82.9358 27.8458 82.7998 28.4058 83.1918C28.9657 83.5839 29.1018 84.3557 28.7097 84.9156C28.3177 85.4756 27.5459 85.6117 26.9859 85.2196C26.426 84.8275 26.2899 84.0557 26.682 83.4958Z" fill="white"/>
<path d="M32.7735 87.1304C33.0624 86.5109 33.7988 86.2429 34.4183 86.5318C35.0379 86.8207 35.3059 87.5571 35.017 88.1766C34.7281 88.7961 33.9917 89.0642 33.3722 88.7753C32.7526 88.4864 32.4846 87.75 32.7735 87.1304Z" fill="white"/>
<path d="M39.4036 89.6521C39.5805 88.9918 40.2592 88.6 40.9195 88.7769C41.5798 88.9538 41.9716 89.6325 41.7947 90.2928C41.6178 90.953 40.9391 91.3449 40.2788 91.168C39.6185 90.991 39.2267 90.3124 39.4036 89.6521Z" fill="white"/>
<path d="M46.3709 90.9842C46.4305 90.3032 47.0308 89.7995 47.7118 89.8591C48.3927 89.9187 48.8965 90.519 48.8369 91.2C48.7773 91.8809 48.177 92.3847 47.496 92.3251C46.815 92.2655 46.3113 91.6652 46.3709 90.9842Z" fill="white"/>
<path d="M53.4636 91.0862C53.404 90.4052 53.9078 89.8049 54.5887 89.7453C55.2697 89.6857 55.87 90.1895 55.9296 90.8704C55.9892 91.5514 55.4855 92.1517 54.8045 92.2113C54.1235 92.2709 53.5232 91.7672 53.4636 91.0862Z" fill="white"/>
<path d="M60.4663 89.9548C60.2894 89.2946 60.6812 88.6159 61.3415 88.4389C62.0018 88.262 62.6804 88.6539 62.8574 89.3141C63.0343 89.9744 62.6424 90.6531 61.9822 90.83C61.3219 91.007 60.6432 90.6151 60.4663 89.9548Z" fill="white"/>
<path d="M67.1661 87.6249C66.8773 87.0054 67.1453 86.2689 67.7648 85.9801C68.3843 85.6912 69.1208 85.9592 69.4097 86.5787C69.6985 87.1983 69.4305 87.9347 68.811 88.2236C68.1915 88.5125 67.455 88.2444 67.1661 87.6249Z" fill="white"/>
<path d="M73.3596 84.1669C72.9676 83.6069 73.1036 82.8352 73.6636 82.4431C74.2235 82.051 74.9953 82.1871 75.3874 82.747C75.7795 83.307 75.6434 84.0788 75.0834 84.4708C74.5235 84.8629 73.7517 84.7268 73.3596 84.1669Z" fill="white"/>
<path d="M78.8585 79.6858C78.3752 79.2024 78.3752 78.4187 78.8585 77.9354C79.3419 77.452 80.1256 77.452 80.6089 77.9354C81.0923 78.4187 81.0923 79.2024 80.6089 79.6858C80.1256 80.1692 79.3419 80.1692 78.8585 79.6858Z" fill="white"/>
<path d="M83.4958 74.318C82.9358 73.9259 82.7997 73.1541 83.1918 72.5942C83.5839 72.0342 84.3557 71.8981 84.9156 72.2902C85.4756 72.6823 85.6117 73.4541 85.2196 74.014C84.8275 74.574 84.0557 74.7101 83.4958 74.318Z" fill="white"/>
<path d="M87.1304 68.2265C86.5109 67.9376 86.2429 67.2012 86.5318 66.5817C86.8207 65.9622 87.5571 65.6941 88.1766 65.983C88.7961 66.2719 89.0642 67.0083 88.7753 67.6278C88.4864 68.2474 87.75 68.5154 87.1304 68.2265Z" fill="white"/>
<path d="M89.6521 61.5964C88.9918 61.4194 88.6 60.7408 88.7769 60.0805C88.9538 59.4202 89.6325 59.0284 90.2928 59.2053C90.9531 59.3822 91.3449 60.0609 91.168 60.7212C90.9911 61.3814 90.3124 61.7733 89.6521 61.5964Z" fill="white"/>
<path d="M90.9842 54.6292C90.3032 54.5696 89.7995 53.9693 89.859 53.2883C89.9186 52.6073 90.519 52.1036 91.1999 52.1632C91.8809 52.2227 92.3846 52.8231 92.3251 53.5041C92.2655 54.185 91.6651 54.6888 90.9842 54.6292Z" fill="white"/>
<path d="M91.0861 47.5364C90.4051 47.596 89.8048 47.0922 89.7452 46.4112C89.6857 45.7303 90.1894 45.1299 90.8704 45.0704C91.5513 45.0108 92.1517 45.5145 92.2113 46.1955C92.2708 46.8765 91.7671 47.4768 91.0861 47.5364Z" fill="white"/>
<path d="M89.9549 40.5337C89.2947 40.7106 88.616 40.3188 88.439 39.6585C88.2621 38.9982 88.654 38.3195 89.3143 38.1426C89.9745 37.9657 90.6532 38.3575 90.8301 39.0178C91.0071 39.6781 90.6152 40.3568 89.9549 40.5337Z" fill="white"/>
<path d="M87.6249 33.8339C87.0053 34.1228 86.2689 33.8548 85.98 33.2352C85.6911 32.6157 85.9592 31.8793 86.5787 31.5904C87.1982 31.3015 87.9347 31.5696 88.2235 32.1891C88.5124 32.8086 88.2444 33.545 87.6249 33.8339Z" fill="white"/>
<path d="M84.1668 27.6405C83.6069 28.0326 82.8351 27.8965 82.443 27.3365C82.051 26.7766 82.187 26.0048 82.747 25.6127C83.307 25.2206 84.0787 25.3567 84.4708 25.9167C84.8629 26.4766 84.7268 27.2484 84.1668 27.6405Z" fill="white"/>
<path d="M79.6858 22.1415C79.2024 22.6249 78.4188 22.6249 77.9354 22.1415C77.4521 21.6581 77.4521 20.8745 77.9354 20.3911C78.4188 19.9077 79.2024 19.9077 79.6858 20.3911C80.1692 20.8745 80.1692 21.6581 79.6858 22.1415Z" fill="white"/>
<path d="M74.318 17.5043C73.9259 18.0642 73.1542 18.2003 72.5942 17.8082C72.0343 17.4161 71.8982 16.6444 72.2903 16.0844C72.6824 15.5245 73.4541 15.3884 74.0141 15.7805C74.574 16.1725 74.7101 16.9443 74.318 17.5043Z" fill="white"/>
<path d="M68.2265 13.8695C67.9376 14.489 67.2012 14.7571 66.5817 14.4682C65.9621 14.1793 65.6941 13.4429 65.983 12.8233C66.2719 12.2038 67.0083 11.9358 67.6278 12.2247C68.2473 12.5136 68.5154 13.25 68.2265 13.8695Z" fill="white"/>
<path d="M61.5964 11.3479C61.4195 12.0081 60.7408 12.4 60.0805 12.2231C59.4202 12.0461 59.0284 11.3675 59.2053 10.7072C59.3822 10.0469 60.0609 9.65505 60.7212 9.83197C61.3815 10.0089 61.7733 10.6876 61.5964 11.3479Z" fill="white"/>
<path d="M54.6291 10.0159C54.5696 10.6968 53.9692 11.2006 53.2883 11.141C52.6073 11.0814 52.1035 10.4811 52.1631 9.8001C52.2227 9.11913 52.823 8.61539 53.504 8.67497C54.185 8.73455 54.6887 9.33488 54.6291 10.0159Z" fill="white"/>
<path d="M47.5364 9.91387C47.596 10.5948 47.0922 11.1952 46.4113 11.2548C45.7303 11.3143 45.13 10.8106 45.0704 10.1296C45.0108 9.44865 45.5146 8.84832 46.1955 8.78874C46.8765 8.72916 47.4768 9.2329 47.5364 9.91387Z" fill="white"/>
<path d="M43.2231 6.22373C43.3566 6.98107 42.8509 7.70326 42.0936 7.8368C41.3363 7.97034 40.6141 7.46465 40.4805 6.70732C40.347 5.94998 40.8527 5.22779 41.61 5.09425C42.3673 4.96071 43.0895 5.4664 43.2231 6.22373Z" fill="white"/>
<path d="M35.6451 8.16002C35.9081 8.88266 35.5355 9.6817 34.8129 9.94472C34.0903 10.2077 33.2912 9.83514 33.0282 9.1125C32.7652 8.38986 33.1378 7.59083 33.8604 7.32781C34.5831 7.06479 35.3821 7.43738 35.6451 8.16002Z" fill="white"/>
<path d="M28.5185 11.3826C28.903 12.0486 28.6749 12.9002 28.0089 13.2847C27.3429 13.6692 26.4913 13.441 26.1068 12.775C25.7223 12.1091 25.9505 11.2575 26.6164 10.8729C27.2824 10.4884 28.134 10.7166 28.5185 11.3826Z" fill="white"/>
<path d="M22.0598 15.794C22.5542 16.3831 22.4773 17.2614 21.8882 17.7557C21.2991 18.25 20.4208 18.1732 19.9265 17.5841C19.4322 16.995 19.509 16.1167 20.0981 15.6224C20.6872 15.1281 21.5655 15.2049 22.0598 15.794Z" fill="white"/>
<path d="M16.4653 21.2599C17.0544 21.7542 17.1312 22.6325 16.6369 23.2216C16.1426 23.8107 15.2643 23.8875 14.6752 23.3932C14.0861 22.8989 14.0093 22.0206 14.5036 21.4315C14.9979 20.8424 15.8762 20.7656 16.4653 21.2599Z" fill="white"/>
<path d="M11.9049 27.6142C12.5709 27.9987 12.799 28.8503 12.4145 29.5163C12.03 30.1823 11.1784 30.4105 10.5124 30.026C9.84645 29.6415 9.61826 28.7899 10.0028 28.1239C10.3873 27.4579 11.2389 27.2297 11.9049 27.6142Z" fill="white"/>
<path d="M8.51712 34.664C9.23976 34.927 9.61235 35.726 9.34933 36.4487C9.08631 37.1713 8.28728 37.5439 7.56464 37.2809C6.84199 37.0179 6.4694 36.2188 6.73242 35.4962C6.99544 34.7735 7.79447 34.4009 8.51712 34.664Z" fill="white"/>
<path d="M6.40503 42.1947C7.16237 42.3282 7.66805 43.0504 7.53452 43.8077C7.40098 44.5651 6.67878 45.0708 5.92145 44.9372C5.16411 44.8037 4.65842 44.0815 4.79196 43.3242C4.9255 42.5668 5.6477 42.0611 6.40503 42.1947Z" fill="white"/>
<path d="M5.63272 49.9778C6.40173 49.9778 7.02515 50.6013 7.02515 51.3703C7.02515 52.1393 6.40173 52.7627 5.63272 52.7627C4.8637 52.7627 4.24028 52.1393 4.24028 51.3703C4.24028 50.6013 4.8637 49.9778 5.63272 49.9778Z" fill="white"/>
<path d="M6.22368 57.777C6.98102 57.6434 7.70321 58.1491 7.83675 58.9065C7.97029 59.6638 7.4646 60.386 6.70727 60.5195C5.94993 60.6531 5.22774 60.1474 5.0942 59.39C4.96066 58.6327 5.46635 57.9105 6.22368 57.777Z" fill="white"/>
<path d="M8.15997 65.355C8.88261 65.0919 9.68164 65.4646 9.94466 66.1872C10.2077 66.9098 9.83509 67.7089 9.11245 67.9719C8.3898 68.2349 7.59077 67.8623 7.32775 67.1397C7.06473 66.417 7.43732 65.618 8.15997 65.355Z" fill="white"/>
<path d="M11.3827 72.4816C12.0487 72.0971 12.9003 72.3252 13.2848 72.9912C13.6693 73.6572 13.4411 74.5088 12.7752 74.8933C12.1092 75.2778 11.2576 75.0496 10.8731 74.3837C10.4885 73.7177 10.7167 72.8661 11.3827 72.4816Z" fill="white"/>
<path d="M15.794 78.9402C16.3831 78.4459 17.2614 78.5228 17.7557 79.1119C18.2501 79.701 18.1732 80.5793 17.5841 81.0736C16.995 81.5679 16.1167 81.4911 15.6224 80.9019C15.1281 80.3128 15.2049 79.4346 15.794 78.9402Z" fill="white"/>
<path d="M21.2599 84.5348C21.7542 83.9457 22.6325 83.8689 23.2216 84.3632C23.8107 84.8575 23.8875 85.7358 23.3932 86.3249C22.8989 86.914 22.0206 86.9908 21.4315 86.4965C20.8424 86.0022 20.7656 85.1239 21.2599 84.5348Z" fill="white"/>
<path d="M27.6142 89.0951C27.9987 88.4291 28.8503 88.201 29.5163 88.5855C30.1823 88.97 30.4105 89.8216 30.0259 90.4876C29.6414 91.1535 28.7898 91.3817 28.1238 90.9972C27.4579 90.6127 27.2297 89.7611 27.6142 89.0951Z" fill="white"/>
<path d="M34.6639 92.4829C34.9269 91.7602 35.7259 91.3876 36.4486 91.6507C37.1712 91.9137 37.5438 92.7127 37.2808 93.4354C37.0178 94.158 36.2187 94.5306 35.4961 94.2676C34.7734 94.0046 34.4008 93.2055 34.6639 92.4829Z" fill="white"/>
<path d="M42.1947 94.595C42.3282 93.8377 43.0504 93.332 43.8078 93.4655C44.5651 93.5991 45.0708 94.3212 44.9372 95.0786C44.8037 95.8359 44.0815 96.3416 43.3242 96.2081C42.5668 96.0745 42.0611 95.3523 42.1947 94.595Z" fill="white"/>
<path d="M49.9779 95.3673C49.9779 94.5983 50.6013 93.9749 51.3703 93.9749C52.1393 93.9749 52.7627 94.5983 52.7627 95.3673C52.7627 96.1363 52.1393 96.7598 51.3703 96.7598C50.6013 96.7598 49.9779 96.1363 49.9779 95.3673Z" fill="white"/>
<path d="M57.7769 94.7762C57.6434 94.0189 58.1491 93.2967 58.9064 93.1631C59.6637 93.0296 60.3859 93.5353 60.5195 94.2926C60.653 95.0499 60.1473 95.7721 59.39 95.9057C58.6327 96.0392 57.9105 95.5335 57.7769 94.7762Z" fill="white"/>
<path d="M65.3548 92.84C65.0918 92.1174 65.4644 91.3183 66.1871 91.0553C66.9097 90.7923 67.7087 91.1649 67.9718 91.8875C68.2348 92.6102 67.8622 93.4092 67.1395 93.6722C66.4169 93.9353 65.6179 93.5627 65.3548 92.84Z" fill="white"/>
<path d="M72.4815 89.6174C72.097 88.9514 72.3252 88.0998 72.9912 87.7153C73.6572 87.3308 74.5087 87.5589 74.8932 88.2249C75.2778 88.8909 75.0496 89.7425 74.3836 90.127C73.7176 90.5116 72.866 90.2834 72.4815 89.6174Z" fill="white"/>
<path d="M78.9402 85.2059C78.4459 84.6168 78.5227 83.7385 79.1118 83.2442C79.7009 82.7499 80.5792 82.8268 81.0735 83.4159C81.5678 84.005 81.491 84.8832 80.9019 85.3776C80.3128 85.8719 79.4345 85.795 78.9402 85.2059Z" fill="white"/>
<path d="M84.5347 79.74C83.9456 79.2457 83.8688 78.3674 84.3631 77.7783C84.8574 77.1892 85.7357 77.1124 86.3248 77.6067C86.9139 78.101 86.9908 78.9793 86.4964 79.5684C86.0021 80.1575 85.1238 80.2344 84.5347 79.74Z" fill="white"/>
<path d="M89.0952 73.3858C88.4292 73.0013 88.201 72.1497 88.5855 71.4837C88.97 70.8177 89.8216 70.5895 90.4876 70.974C91.1536 71.3585 91.3818 72.2101 90.9973 72.8761C90.6127 73.5421 89.7612 73.7703 89.0952 73.3858Z" fill="white"/>
<path d="M92.4829 66.3362C91.7602 66.0731 91.3876 65.2741 91.6507 64.5515C91.9137 63.8288 92.7127 63.4562 93.4354 63.7192C94.158 63.9823 94.5306 64.7813 94.2676 65.5039C94.0046 66.2266 93.2055 66.5992 92.4829 66.3362Z" fill="white"/>
<path d="M94.595 58.8054C93.8376 58.6718 93.332 57.9496 93.4655 57.1923C93.599 56.435 94.3212 55.9293 95.0786 56.0628C95.8359 56.1964 96.3416 56.9186 96.2081 57.6759C96.0745 58.4332 95.3523 58.9389 94.595 58.8054Z" fill="white"/>
<path d="M95.3673 51.0221C94.5982 51.0221 93.9748 50.3987 93.9748 49.6297C93.9748 48.8606 94.5982 48.2372 95.3673 48.2372C96.1363 48.2372 96.7597 48.8606 96.7597 49.6297C96.7597 50.3987 96.1363 51.0221 95.3673 51.0221Z" fill="white"/>
<path d="M94.7764 43.223C94.019 43.3566 93.2968 42.8509 93.1633 42.0935C93.0298 41.3362 93.5355 40.614 94.2928 40.4805C95.0501 40.3469 95.7723 40.8526 95.9059 41.6099C96.0394 42.3673 95.5337 43.0895 94.7764 43.223Z" fill="white"/>
<path d="M92.84 35.6452C92.1174 35.9082 91.3183 35.5356 91.0553 34.813C90.7923 34.0903 91.1649 33.2913 91.8875 33.0283C92.6102 32.7653 93.4092 33.1379 93.6722 33.8605C93.9353 34.5831 93.5627 35.3822 92.84 35.6452Z" fill="white"/>
<path d="M89.6173 28.5186C88.9513 28.9031 88.0997 28.6749 87.7152 28.0089C87.3307 27.3429 87.5589 26.4914 88.2249 26.1068C88.8908 25.7223 89.7424 25.9505 90.127 26.6165C90.5115 27.2825 90.2833 28.1341 89.6173 28.5186Z" fill="white"/>
<path d="M85.206 22.0599C84.6169 22.5542 83.7386 22.4773 83.2443 21.8882C82.7499 21.2991 82.8268 20.4208 83.4159 19.9265C84.005 19.4322 84.8833 19.5091 85.3776 20.0982C85.8719 20.6873 85.7951 21.5655 85.206 22.0599Z" fill="white"/>
<path d="M79.7401 16.4653C79.2458 17.0544 78.3675 17.1313 77.7784 16.6369C77.1893 16.1426 77.1125 15.2643 77.6068 14.6752C78.1011 14.0861 78.9794 14.0093 79.5685 14.5036C80.1576 14.9979 80.2344 15.8762 79.7401 16.4653Z" fill="white"/>
<path d="M73.3858 11.9047C73.0013 12.5707 72.1497 12.7989 71.4837 12.4144C70.8177 12.0299 70.5895 11.1783 70.974 10.5123C71.3585 9.84631 72.2101 9.61813 72.8761 10.0026C73.5421 10.3871 73.7703 11.2387 73.3858 11.9047Z" fill="white"/>
<path d="M66.3361 8.51704C66.0731 9.23969 65.2741 9.61228 64.5514 9.34926C63.8288 9.08624 63.4562 8.28721 63.7192 7.56456C63.9822 6.84192 64.7813 6.46933 65.5039 6.73235C66.2266 6.99537 66.5992 7.7944 66.3361 8.51704Z" fill="white"/>
<path d="M58.8053 6.40505C58.6718 7.16239 57.9496 7.66807 57.1923 7.53454C56.4349 7.401 55.9292 6.6788 56.0628 5.92147C56.1963 5.16413 56.9185 4.65844 57.6758 4.79198C58.4332 4.92552 58.9389 5.64772 58.8053 6.40505Z" fill="white"/>
<path d="M51.0221 5.63272C51.0221 6.40174 50.3987 7.02515 49.6297 7.02515C48.8607 7.02515 48.2373 6.40174 48.2373 5.63272C48.2373 4.8637 48.8607 4.24029 49.6297 4.24029C50.3987 4.24029 51.0221 4.8637 51.0221 5.63272Z" fill="white"/>
<path d="M38.25 3.00771C38.4711 3.83306 37.9813 4.68141 37.156 4.90257C36.3306 5.12372 35.4823 4.63392 35.2611 3.80857C35.0399 2.98322 35.5297 2.13486 36.3551 1.91371C37.1804 1.69256 38.0288 2.18236 38.25 3.00771Z" fill="white"/>
<path d="M30.1891 5.85646C30.5502 6.63087 30.2152 7.55139 29.4408 7.9125C28.6664 8.27361 27.7458 7.93857 27.3847 7.16416C27.0236 6.38976 27.3587 5.46923 28.1331 5.10812C28.9075 4.74701 29.828 5.08205 30.1891 5.85646Z" fill="white"/>
<path d="M22.7454 10.0615C23.2355 10.7614 23.0654 11.7261 22.3654 12.2162C21.6655 12.7063 20.7008 12.5362 20.2107 11.8363C19.7206 11.1363 19.8907 10.1716 20.5906 9.68152C21.2906 9.19142 22.2553 9.36153 22.7454 10.0615Z" fill="white"/>
<path d="M16.145 15.4954C16.7492 16.0996 16.7492 17.0792 16.145 17.6834C15.5408 18.2876 14.5612 18.2876 13.957 17.6834C13.3528 17.0792 13.3528 16.0996 13.957 15.4954C14.5612 14.8912 15.5408 14.8912 16.145 15.4954Z" fill="white"/>
<path d="M10.5885 21.9929C11.2884 22.483 11.4585 23.4477 10.9684 24.1477C10.4783 24.8476 9.51358 25.0177 8.81364 24.5276C8.1137 24.0375 7.9436 23.0728 8.4337 22.3729C8.9238 21.6729 9.88852 21.5028 10.5885 21.9929Z" fill="white"/>
<path d="M6.24462 29.3566C7.01903 29.7177 7.35407 30.6382 6.99296 31.4127C6.63184 32.1871 5.71132 32.5221 4.93691 32.161C4.16251 31.7999 3.82746 30.8794 4.18858 30.1049C4.54969 29.3305 5.47021 28.9955 6.24462 29.3566Z" fill="white"/>
<path d="M3.24544 37.3628C4.07079 37.584 4.56059 38.4323 4.33943 39.2577C4.11828 40.083 3.26993 40.5728 2.44458 40.3517C1.61923 40.1305 1.12943 39.2822 1.35058 38.4568C1.57173 37.6315 2.42009 37.1417 3.24544 37.3628Z" fill="white"/>
<path d="M1.68208 45.7679C2.5333 45.8424 3.16297 46.5928 3.0885 47.444C3.01403 48.2952 2.26361 48.9249 1.4124 48.8504C0.561183 48.7759 -0.068491 48.0255 0.00598055 47.1743C0.0804521 46.3231 0.830868 45.6934 1.68208 45.7679Z" fill="white"/>
<path d="M1.60201 54.317C2.45323 54.2425 3.20364 54.8722 3.27811 55.7234C3.35259 56.5746 2.72291 57.325 1.8717 57.3995C1.02048 57.4739 0.270067 56.8443 0.195596 55.9931C0.121124 55.1418 0.750798 54.3914 1.60201 54.317Z" fill="white"/>
<path d="M3.0077 62.7501C3.83305 62.5289 4.68141 63.0187 4.90256 63.8441C5.12371 64.6694 4.63391 65.5178 3.80856 65.7389C2.98321 65.9601 2.13485 65.4703 1.9137 64.6449C1.69255 63.8196 2.18235 62.9712 3.0077 62.7501Z" fill="white"/>
<path d="M5.85642 70.811C6.63083 70.4499 7.55135 70.7849 7.91246 71.5593C8.27358 72.3337 7.93853 73.2542 7.16412 73.6153C6.38972 73.9765 5.46919 73.6414 5.10808 72.867C4.74697 72.0926 5.08201 71.1721 5.85642 70.811Z" fill="white"/>
<path d="M10.0616 78.2547C10.7615 77.7646 11.7263 77.9347 12.2164 78.6346C12.7065 79.3346 12.5363 80.2993 11.8364 80.7894C11.1365 81.2795 10.1718 81.1094 9.68166 80.4094C9.19156 79.7095 9.36166 78.7448 10.0616 78.2547Z" fill="white"/>
<path d="M15.4955 84.8551C16.0997 84.2509 17.0793 84.2509 17.6835 84.8551C18.2877 85.4593 18.2877 86.4389 17.6835 87.0431C17.0793 87.6473 16.0997 87.6473 15.4955 87.0431C14.8913 86.4389 14.8913 85.4593 15.4955 84.8551Z" fill="white"/>
<path d="M21.993 90.4116C22.4831 89.7116 23.4478 89.5415 24.1477 90.0316C24.8477 90.5217 25.0178 91.4865 24.5277 92.1864C24.0376 92.8863 23.0728 93.0564 22.3729 92.5663C21.673 92.0762 21.5029 91.1115 21.993 90.4116Z" fill="white"/>
<path d="M29.3566 94.7554C29.7177 93.981 30.6383 93.6459 31.4127 94.007C32.1871 94.3681 32.5221 95.2887 32.161 96.0631C31.7999 96.8375 30.8794 97.1725 30.105 96.8114C29.3305 96.4503 28.9955 95.5298 29.3566 94.7554Z" fill="white"/>
<path d="M37.3627 97.7545C37.5839 96.9292 38.4322 96.4394 39.2576 96.6605C40.0829 96.8817 40.5727 97.73 40.3516 98.5554C40.1304 99.3807 39.2821 99.8705 38.4567 99.6494C37.6314 99.4282 37.1416 98.5799 37.3627 97.7545Z" fill="white"/>
<path d="M45.768 99.3179C45.8424 98.4667 46.5928 97.837 47.4441 97.9115C48.2953 97.986 48.9249 98.7364 48.8505 99.5876C48.776 100.439 48.0256 101.068 47.1744 100.994C46.3232 100.92 45.6935 100.169 45.768 99.3179Z" fill="white"/>
<path d="M54.317 99.398C54.2425 98.5468 54.8722 97.7964 55.7234 97.7219C56.5746 97.6474 57.325 98.2771 57.3995 99.1283C57.474 99.9795 56.8443 100.73 55.9931 100.804C55.1419 100.879 54.3915 100.249 54.317 99.398Z" fill="white"/>
<path d="M62.75 97.9922C62.5289 97.1668 63.0187 96.3185 63.844 96.0973C64.6694 95.8762 65.5177 96.366 65.7389 97.1913C65.96 98.0167 65.4702 98.865 64.6449 99.0862C63.8195 99.3073 62.9712 98.8175 62.75 97.9922Z" fill="white"/>
<path d="M70.8108 95.1436C70.4497 94.3691 70.7848 93.4486 71.5592 93.0875C72.3336 92.7264 73.2541 93.0614 73.6152 93.8358C73.9763 94.6103 73.6413 95.5308 72.8669 95.8919C72.0925 96.253 71.172 95.918 70.8108 95.1436Z" fill="white"/>
<path d="M78.2546 90.9385C77.7645 90.2385 77.9346 89.2738 78.6346 88.7837C79.3345 88.2936 80.2992 88.4637 80.7893 89.1637C81.2794 89.8636 81.1093 90.8283 80.4094 91.3184C79.7094 91.8085 78.7447 91.6384 78.2546 90.9385Z" fill="white"/>
<path d="M84.855 85.5045C84.2508 84.9003 84.2508 83.9207 84.855 83.3165C85.4592 82.7123 86.4388 82.7123 87.043 83.3165C87.6472 83.9207 87.6472 84.9003 87.043 85.5045C86.4388 86.1087 85.4592 86.1087 84.855 85.5045Z" fill="white"/>
<path d="M90.4116 79.007C89.7116 78.5169 89.5415 77.5521 90.0316 76.8522C90.5217 76.1523 91.4864 75.9822 92.1864 76.4723C92.8863 76.9624 93.0564 77.9271 92.5663 78.627C92.0762 79.327 91.1115 79.4971 90.4116 79.007Z" fill="white"/>
<path d="M94.7554 71.6433C93.981 71.2822 93.6459 70.3617 94.007 69.5873C94.3682 68.8129 95.2887 68.4778 96.0631 68.839C96.8375 69.2001 97.1726 70.1206 96.8114 70.895C96.4503 71.6694 95.5298 72.0044 94.7554 71.6433Z" fill="white"/>
<path d="M97.7546 63.6373C96.9292 63.4161 96.4394 62.5678 96.6606 61.7424C96.8817 60.9171 97.7301 60.4273 98.5554 60.6484C99.3808 60.8696 99.8706 61.7179 99.6494 62.5433C99.4283 63.3686 98.5799 63.8584 97.7546 63.6373Z" fill="white"/>
<path d="M99.3179 55.2321C98.4667 55.1576 97.837 54.4072 97.9115 53.556C97.986 52.7048 98.7364 52.0751 99.5876 52.1496C100.439 52.2241 101.068 52.9745 100.994 53.8257C100.92 54.6769 100.169 55.3066 99.3179 55.2321Z" fill="white"/>
<path d="M99.3979 46.6829C98.5467 46.7574 97.7963 46.1277 97.7218 45.2765C97.6474 44.4253 98.277 43.6749 99.1283 43.6004C99.9795 43.5259 100.73 44.1556 100.804 45.0068C100.879 45.858 100.249 46.6084 99.3979 46.6829Z" fill="white"/>
<path d="M97.9923 38.2499C97.167 38.471 96.3186 37.9812 96.0975 37.1559C95.8763 36.3305 96.3661 35.4822 97.1915 35.261C98.0168 35.0399 98.8652 35.5297 99.0863 36.355C99.3075 37.1804 98.8177 38.0287 97.9923 38.2499Z" fill="white"/>
<path d="M95.1436 30.1892C94.3692 30.5503 93.4486 30.2152 93.0875 29.4408C92.7264 28.6664 93.0615 27.7459 93.8359 27.3848C94.6103 27.0237 95.5308 27.3587 95.8919 28.1331C96.253 28.9075 95.918 29.8281 95.1436 30.1892Z" fill="white"/>
<path d="M90.9384 22.7455C90.2385 23.2356 89.2738 23.0655 88.7836 22.3655C88.2935 21.6656 88.4636 20.7009 89.1636 20.2108C89.8635 19.7207 90.8282 19.8908 91.3183 20.5907C91.8084 21.2906 91.6383 22.2554 90.9384 22.7455Z" fill="white"/>
<path d="M85.5045 16.145C84.9003 16.7492 83.9207 16.7492 83.3165 16.145C82.7123 15.5408 82.7123 14.5612 83.3165 13.957C83.9207 13.3528 84.9003 13.3528 85.5045 13.957C86.1087 14.5612 86.1087 15.5408 85.5045 16.145Z" fill="white"/>
<path d="M79.007 10.5885C78.5169 11.2884 77.5522 11.4585 76.8523 10.9684C76.1524 10.4783 75.9822 9.51362 76.4723 8.81368C76.9624 8.11374 77.9272 7.94364 78.6271 8.43374C79.327 8.92384 79.4971 9.88856 79.007 10.5885Z" fill="white"/>
<path d="M71.6433 6.24445C71.2822 7.01885 70.3617 7.3539 69.5873 6.99278C68.8129 6.63167 68.4778 5.71115 68.839 4.93674C69.2001 4.16233 70.1206 3.82729 70.895 4.1884C71.6694 4.54952 72.0044 5.47004 71.6433 6.24445Z" fill="white"/>
<path d="M63.6373 3.24535C63.4161 4.0707 62.5678 4.5605 61.7424 4.33935C60.9171 4.1182 60.4273 3.26984 60.6484 2.44449C60.8696 1.61914 61.7179 1.12934 62.5433 1.35049C63.3686 1.57164 63.8584 2.42 63.6373 3.24535Z" fill="white"/>
<path d="M55.2321 1.68208C55.1576 2.5333 54.4072 3.16297 53.5559 3.0885C52.7047 3.01403 52.0751 2.26361 52.1495 1.4124C52.224 0.561183 52.9744 -0.068491 53.8256 0.00598055C54.6768 0.0804521 55.3065 0.830868 55.2321 1.68208Z" fill="white"/>
<path d="M46.683 1.602C46.7575 2.45322 46.1278 3.20363 45.2766 3.2781C44.4254 3.35257 43.675 2.7229 43.6005 1.87169C43.526 1.02047 44.1557 0.270057 45.0069 0.195585C45.8581 0.121114 46.6085 0.750788 46.683 1.602Z" fill="white"/>
</svg>
