<svg width="82" height="81" viewBox="0 0 82 81" fill="none" xmlns="http://www.w3.org/2000/svg">
<circle cx="41" cy="40.5" r="40" fill="#3B9CD9" stroke="#2C2C2C"/>
<path d="M57.6667 48.8995V28.7829C57.6667 26.7829 56.0333 25.2995 54.05 25.4662H53.95C50.45 25.7662 45.1333 27.5495 42.1667 29.4162L41.8833 29.5995C41.4 29.8995 40.6 29.8995 40.1167 29.5995L39.7 29.3495C36.7333 27.4995 31.4333 25.7329 27.9333 25.4495C25.95 25.2829 24.3333 26.7829 24.3333 28.7662V48.8995C24.3333 50.4995 25.6333 51.9995 27.2333 52.1995L27.7167 52.2662C31.3333 52.7495 36.9167 54.5829 40.1167 56.3329L40.1833 56.3662C40.6333 56.6162 41.35 56.6162 41.7833 56.3662C44.9833 54.5995 50.5833 52.7495 54.2167 52.2662L54.7667 52.1995C56.3667 51.9995 57.6667 50.4995 57.6667 48.8995Z" stroke="white" stroke-linecap="round" stroke-linejoin="round"/>
<path d="M41 30.1504V55.1504" stroke="white" stroke-linecap="round" stroke-linejoin="round"/>
<path d="M33.9167 35.1504H30.1667" stroke="white" stroke-linecap="round" stroke-linejoin="round"/>
<path d="M35.1667 40.1504H30.1667" stroke="white" stroke-linecap="round" stroke-linejoin="round"/>
</svg>
