<svg width="82" height="81" viewBox="0 0 82 81" fill="none" xmlns="http://www.w3.org/2000/svg">
<circle cx="41" cy="40.5" r="40" fill="#3B9CD9" stroke="#2C2C2C"/>
<path d="M41.8833 55.0333H31.35C26.0833 55.0333 24.3333 51.5333 24.3333 48.0167V33.9833C24.3333 28.7167 26.0833 26.9667 31.35 26.9667H41.8833C47.15 26.9667 48.9 28.7167 48.9 33.9833V48.0167C48.9 53.2833 47.1333 55.0333 41.8833 55.0333Z" stroke="white" stroke-width="1.5" stroke-linecap="round" stroke-linejoin="round"/>
<path d="M53.5333 49.5L48.9 46.25V35.7333L53.5333 32.4833C55.8 30.9 57.6667 31.8666 57.6667 34.65V47.35C57.6667 50.1333 55.8 51.1 53.5333 49.5Z" stroke="white" stroke-width="1.5" stroke-linecap="round" stroke-linejoin="round"/>
<path d="M40.1667 39.3334C41.5474 39.3334 42.6667 38.2141 42.6667 36.8334C42.6667 35.4527 41.5474 34.3334 40.1667 34.3334C38.786 34.3334 37.6667 35.4527 37.6667 36.8334C37.6667 38.2141 38.786 39.3334 40.1667 39.3334Z" stroke="white" stroke-width="1.5" stroke-linecap="round" stroke-linejoin="round"/>
</svg>
