<svg width="81" height="81" viewBox="0 0 81 81" fill="none" xmlns="http://www.w3.org/2000/svg">
<circle cx="40.5" cy="40.5" r="40" fill="#3B9CD9" stroke="#2C2C2C"/>
<path d="M57.1333 49.2667L51.9167 37.0833C50.15 32.95 46.9 32.7833 44.7167 36.7167L41.5667 42.4C39.9667 45.2833 36.9833 45.5333 34.9167 42.95L34.55 42.4833C32.4 39.7833 29.3667 40.1167 27.8167 43.2L24.95 48.95C22.9333 52.95 25.85 57.6667 30.3167 57.6667H51.5833C55.9167 57.6667 58.8333 53.25 57.1333 49.2667Z" stroke="white" stroke-width="2" stroke-linecap="round" stroke-linejoin="round"/>
<path d="M32.6167 34.3334C35.3781 34.3334 37.6167 32.0948 37.6167 29.3334C37.6167 26.572 35.3781 24.3334 32.6167 24.3334C29.8552 24.3334 27.6167 26.572 27.6167 29.3334C27.6167 32.0948 29.8552 34.3334 32.6167 34.3334Z" stroke="white" stroke-width="2" stroke-linecap="round" stroke-linejoin="round"/>
</svg>
