<svg width="158" height="158" viewBox="0 0 158 158" fill="none" xmlns="http://www.w3.org/2000/svg">
<path fill-rule="evenodd" clip-rule="evenodd" d="M84.0801 2.35938L84.118 2.40484L97.7974 4.28767L110.33 8.385L121.899 14.8924L132.262 23.3272L140.94 32.9692L148.891 44.7771L152.988 57.7898L152.99 57.7952L155.398 70.3196L155.399 70.3261L156.122 84.061L153.47 97.0783L149.375 109.843L149.374 109.848L149.372 109.852L143.109 121.413L143.108 121.416L134.675 132.258L134.672 132.261L134.669 132.264L124.553 141.176L124.55 141.178L124.547 141.18L112.259 148.891L100.447 152.989L87.6761 155.88H74.1795L60.6883 153.953L60.6833 153.952L60.6786 153.95L48.1542 149.374L48.1509 149.373L48.1478 149.371L36.5828 143.107L26.2197 134.672L17.3024 124.79L10.3132 112.981L5.4932 100.449L2.84204 87.4342V73.697L4.77001 60.9243L8.86706 48.3921L15.1336 36.5821L23.8119 26.2164L33.6901 17.3025L44.536 10.3129L57.7915 5.25174L71.2875 2.60074L84.0801 2.35938ZM83.8172 2.46069L71.4068 2.69485L77.5549 8.8429L83.9226 2.47519L83.8172 2.46069ZM84.0027 2.53132L77.6649 8.86912L83.6282 9.21316C83.7589 6.85594 83.9009 4.3298 84.0027 2.53132ZM83.6229 9.30935L77.6651 8.96563L83.291 15.5292C83.316 14.9026 83.4601 12.2472 83.6229 9.30935ZM83.2306 15.6068L77.6108 9.05036L77.9751 15.6068H83.2306ZM77.8786 15.6068L77.5144 9.05059L72.8314 15.6068H77.8786ZM72.7718 15.5245L77.4522 8.97186L72.1149 9.61234L72.7718 15.5245ZM72.1042 9.51658L77.4507 8.875L71.3557 2.77999L72.1042 9.51658ZM71.1789 2.72027L57.93 5.32273L65.5008 10.291L71.1789 2.72027ZM65.3944 10.3365L59.7252 11.7815L57.8872 5.40987L65.3944 10.3365ZM57.6956 5.3915L44.6962 10.3549L53.1972 13.4247C53.2031 13.4098 53.2105 13.3924 53.2193 13.3728C53.2425 13.3214 53.2764 13.252 53.3198 13.1669C53.4065 12.9965 53.5318 12.761 53.6868 12.476C53.9969 11.9059 54.426 11.1364 54.9027 10.2903C55.8285 8.64741 56.9339 6.71502 57.6956 5.3915ZM53.1092 13.4953L44.6722 10.4486L48.1733 16.0754L53.1092 13.4953ZM48.0877 16.1202L44.5793 10.4818L42.7006 18.9362L48.0877 16.1202ZM42.5703 19.1344L37.9702 22.6729L41.6331 27.3348L42.5703 19.1344ZM41.5556 27.3921L37.8938 22.7317L33.3578 26.221L41.5556 27.3921ZM33.2915 26.1504L37.8343 22.6559L33.7607 17.4713L33.2915 26.1504ZM33.8367 17.4121L42.5165 19.0542L37.9107 22.5972L33.8367 17.4121ZM33.847 17.316L42.5942 18.9709L44.4854 10.4601L33.847 17.316ZM33.6651 17.4549L23.9698 26.2043H33.1921L33.6651 17.4549ZM33.1929 26.3677L28.9865 30.6877L33.4273 34.5735L33.1929 26.3677ZM33.3609 34.6433L28.9192 30.7569L24.45 35.3468L33.3609 34.6433ZM24.3685 35.2924L28.8466 30.6933L23.8986 26.3638L24.3685 35.2924ZM23.9727 26.3007H33.1236L28.9139 30.6242L23.9727 26.3007ZM23.8028 26.3773L15.2901 36.5453L24.2757 35.363L23.8028 26.3773ZM24.3078 35.5205L21.2456 40.1704L26.416 43.2506L24.3078 35.5205ZM26.365 43.3324L21.1926 40.2509L17.9288 45.2071L26.365 43.3324ZM17.8393 45.1679L21.1097 40.2016L15.2563 36.7144L17.8393 45.1679ZM15.3176 36.6388L24.228 35.4664L21.1628 40.121L15.3176 36.6388ZM15.1617 36.7346L9.01188 48.3247L17.7636 45.2498L15.1617 36.7346ZM17.8198 45.4083L15.4367 50.8895L20.6305 52.9034L17.8198 45.4083ZM20.5871 52.9899L15.3983 50.9779L13.0992 56.2659L20.5871 52.9899ZM13.0024 56.2469L15.3084 50.9431L9.01253 48.5018L13.0024 56.2469ZM9.05054 48.4132L17.7349 45.362L15.3468 50.8547L9.05054 48.4132ZM8.92152 48.5356L4.90112 60.8332L12.9419 56.3399L8.92152 48.5356ZM12.931 56.4563L11.4477 62.1615L4.95581 60.913L12.931 56.4563ZM4.92214 61.0047L9.85514 68.2867L11.4234 62.2549L4.92214 61.0047ZM11.5182 62.2732L9.95374 68.2903L17.2181 63.3693L11.5182 62.2732ZM17.2772 63.4456L10.0069 68.3707L16.3993 69.215L17.2772 63.4456ZM16.3848 69.3102L9.91902 68.4563L9.48221 74.0255L15.6144 74.3727L16.3848 69.3102ZM15.5398 74.4649L8.96923 80.5661L9.47468 74.1216L15.5398 74.4649ZM9.386 74.0201L9.81815 68.5103C8.73418 69.3925 7.1334 70.6767 5.74369 71.7517C5.03001 72.3038 4.37159 72.801 3.86728 73.1603C3.61521 73.3399 3.401 73.4855 3.23735 73.5864C3.18882 73.6163 3.14444 73.6425 3.10462 73.6645L9.386 74.0201ZM2.94888 73.6347C2.96039 73.6299 2.97319 73.6241 2.9873 73.6172C3.03937 73.5919 3.10625 73.5541 3.18679 73.5044C3.34773 73.4052 3.55991 73.261 3.81137 73.0819C4.31413 72.7236 4.97137 72.2274 5.68475 71.6755C7.09645 70.5835 8.7264 69.2752 9.81035 68.3924L4.84628 61.0645L2.94888 73.6347ZM2.93838 73.8303V87.303L8.84747 80.6849L2.93838 73.8303ZM8.87622 80.7973L9.53276 86.378L3.01512 87.3617L8.87622 80.7973ZM2.96252 87.5429L5.56321 100.31L10.2917 92.9807L2.96252 87.5429ZM10.34 93.0837L11.8554 98.2794L5.65437 100.346L10.34 93.0837ZM5.62915 100.534L10.3576 112.828L13.6674 104.553L5.62915 100.534ZM13.7325 104.65L16.1913 109.802L10.4503 112.855L13.7325 104.65ZM10.4574 113.035L17.3139 124.621L18.7325 115.163L10.4574 113.035ZM18.8166 115.252L26.1529 125.428L17.3967 124.718L18.8166 115.252ZM17.4585 124.819L26.2048 134.511V125.529L17.4585 124.819ZM26.3012 125.598L34.8143 133.875L26.3012 134.584V125.598ZM26.3761 134.675L36.5386 142.947L34.8843 133.966L26.3761 134.675ZM34.991 134.013L39.9619 137.134L36.6333 142.929L34.991 134.013ZM36.7338 143.079L48.0877 149.229L45.2492 140.477L36.7338 143.079ZM45.3609 140.509L50.491 142.963L48.1739 149.182L45.3609 140.509ZM48.2996 149.324L60.5939 153.817L56.3381 145.778L48.2996 149.324ZM56.451 145.785L62.1978 147.05L60.6768 153.767L56.451 145.785ZM60.8204 153.874L74.072 155.767L68.3928 148.432L60.8204 153.874ZM68.5074 148.422L80.1016 149.369L74.1862 155.757L68.5074 148.422ZM74.2932 155.784H87.5421L80.2078 149.396L74.2932 155.784ZM80.3184 149.364L86.4706 148.668L87.602 155.708L80.3184 149.364ZM87.7777 155.758L100.317 152.919L92.9827 147.951L87.7777 155.758ZM93.0813 147.901L98.3609 146.361L100.35 152.825L93.0813 147.901ZM100.53 152.858L112.121 148.837L104.551 144.579L100.53 152.858ZM104.634 144.515L109.327 142.22L112.137 148.735L104.634 144.515ZM112.325 148.736L124.395 141.162L115.401 139.269L112.325 148.736ZM115.487 139.188L120.333 135.761L124.404 141.066L115.487 139.188ZM124.579 141.025L134.51 132.276H125.288L124.579 141.025ZM125.356 132.18L129.492 127.807L134.509 132.18H125.356ZM134.672 132.105L142.949 121.463L133.726 123.355L134.672 132.105ZM133.552 123.375L125.361 124.077L129.486 127.673L133.552 123.375ZM129.559 127.737L134.576 132.111L133.637 123.425L129.559 127.737ZM133.777 123.246L137.126 118.103L142.931 121.368L133.777 123.246ZM143.079 121.267L149.227 109.916L140.478 112.99L143.079 121.267ZM140.515 112.874L143.262 107.501L149.191 109.826L140.515 112.874ZM149.322 109.693L153.335 97.1816L146.017 102.139L149.322 109.693ZM145.861 102.203L137.189 105.016L143.216 107.38L145.861 102.203ZM143.306 107.415L149.238 109.741L145.954 102.234L143.306 107.415ZM143.172 107.466L137.135 105.098L140.422 112.846L143.172 107.466ZM136.95 105.084L129.232 106.955L134.368 109.687L136.95 105.084ZM134.406 109.816L140.279 112.941L131.6 114.817L134.406 109.816ZM134.32 109.771L129.177 107.035L131.519 114.764L134.32 109.771ZM131.42 114.77L129.08 107.047L126.16 111.183L131.42 114.77ZM126.08 111.129L128.998 106.996L121.047 107.697L126.08 111.129ZM120.997 107.605L128.929 106.905L123.151 103.895L120.997 107.605ZM123.199 103.812L128.974 106.82L125.244 100.291L123.199 103.812ZM125.355 100.292L129.09 106.827L130.793 102.512L125.355 100.292ZM130.882 102.548L136.89 105L129.176 106.87L130.882 102.548ZM130.918 102.458L132.719 97.8946L136.93 104.912L130.918 102.458ZM132.818 97.872L137.032 104.895L138.659 99.7834L132.818 97.872ZM138.75 99.8134L145.802 102.121L137.12 104.937L138.75 99.8134ZM137.04 105.121L134.453 109.732L140.32 112.853L137.04 105.121ZM138.779 99.7216L140.435 94.52L145.832 102.03L138.779 99.7216ZM140.529 94.4858L145.931 102.002L147.118 95.8282L140.529 94.4858ZM147.213 95.8474L146.027 102.016L153.302 97.0878L147.213 95.8474ZM153.399 96.9416L156.001 84.1683L148.432 89.6088L153.399 96.9416ZM148.42 89.4988L149.13 77.4209L155.998 84.0519L148.42 89.4988ZM156.019 83.9378L155.309 70.4477L149.155 77.3111L156.019 83.9378ZM149.129 77.1955L148.786 71.5933L155.22 70.4018L149.129 77.1955ZM155.281 70.2222L152.919 57.938L148.43 65.4975L155.281 70.2222ZM148.38 65.3934L146.653 59.7531L152.837 57.8862L148.38 65.3934ZM152.862 57.7104L148.839 44.9319L144.816 53.6876L152.862 57.7104ZM144.752 53.5974L142.171 48.3191L148.745 44.9057L144.752 53.5974ZM148.742 44.7273L140.929 33.1266L139.508 42.8333L148.742 44.7273ZM139.423 42.7529L135.431 37.6377L140.833 33.1144L139.423 42.7529ZM140.791 32.9482L132.271 23.4812L131.798 32.9482H140.791ZM131.704 32.8835L127.621 28.6832L132.174 23.4979L131.704 32.8835ZM132.109 23.3268L121.939 15.0487L123.358 24.2728L132.109 23.3268ZM123.254 24.2302L118.131 21.0868L121.844 15.069L123.254 24.2302ZM121.751 14.9199L110.386 8.52658L112.754 17.7613L121.751 14.9199ZM112.647 17.7323L107.558 15.1878L110.3 8.58104L112.647 17.7323ZM110.177 8.43617L97.8794 4.41583L101.663 12.22L110.177 8.43617ZM101.553 12.2136L96.1167 10.9677L97.8003 4.47362L101.553 12.2136ZM97.6568 4.36557L84.2095 2.51469L90.0881 9.56901L97.6568 4.36557ZM89.9711 9.57909L83.7244 9.21871C83.8552 6.86058 83.9973 4.3326 84.0991 2.53265L89.9711 9.57909ZM89.9605 9.67499L83.7191 9.3149C83.555 12.2754 83.41 14.9478 83.3868 15.5444L89.9605 9.67499ZM83.3319 15.7358L78.3696 21.8796L88.2942 23.0611L83.3319 15.7358ZM88.2945 23.1581L78.3835 21.9783L83.339 28.5856L88.2945 23.1581ZM83.239 28.6129H78.5736L78.3312 22.0692L83.239 28.6129ZM78.3186 21.7895L77.9804 15.7031H83.2345L78.3186 21.7895ZM78.2216 21.7813L77.8839 15.7031H72.8447L78.2216 21.7813ZM72.6778 15.5512L72.0192 9.62382L65.639 10.3894L72.6778 15.5512ZM72.6202 15.6284L65.5876 10.4712L66.999 16.7048L72.6202 15.6284ZM66.9043 16.7229L65.4933 10.4908L61.5091 17.7561L66.9043 16.7229ZM61.4316 17.697L65.4166 10.4302L59.7519 11.8742L61.4316 17.697ZM61.3399 17.727L59.6585 11.898L53.3615 13.5031L61.3399 17.727ZM53.1559 13.5796L48.2243 16.1575L51.2826 21.0726L53.1559 13.5796ZM53.2421 13.6319L51.3698 21.1211L55.9802 19.5843L53.2421 13.6319ZM56.0208 19.6723L51.4183 21.2065L58.6609 25.4119L56.0208 19.6723ZM58.6659 25.5262L51.3379 21.2712L49.9195 29.7811L58.6659 25.5262ZM49.8292 29.7372L51.2363 21.2946L46.3278 24.4851L49.8292 29.7372ZM46.2743 24.405L51.1828 21.2145L42.7403 19.1038L46.2743 24.405ZM51.198 21.119L48.1387 16.2022L42.7657 19.0109L51.198 21.119ZM46.1936 24.4575L41.7271 27.3606L42.664 19.1631L46.1936 24.4575ZM41.5575 27.4897L33.3596 26.3185L37.5096 31.0614L41.5575 27.4897ZM37.4373 31.1251L33.2898 26.385L33.5238 34.5782L37.4373 31.1251ZM33.371 34.7392L24.4608 35.4426L29.739 39.2478L33.371 34.7392ZM29.6785 39.323L24.4085 35.5236L26.5155 43.2494L29.6785 39.323ZM26.3949 43.4244L17.9626 45.2983L23.5306 48.1982L26.3949 43.4244ZM23.4809 48.281L17.9124 45.3807L20.7234 52.8769L23.4809 48.281ZM20.6343 53.0744L13.1402 56.3531L18.9377 58.2856L20.6343 53.0744ZM18.9078 58.3772L13.1173 56.447L17.3277 63.2305L18.9078 58.3772ZM17.3723 63.4612L16.4948 69.2276L22.5293 70.0246L17.3723 63.4612ZM17.4204 63.3665L22.6191 69.983L25.2184 60.5308L17.4204 63.3665ZM25.3141 60.5463L22.7183 69.9855L30.2696 65.5019L25.3141 60.5463ZM30.2844 65.6051L22.7889 70.0556L29.4873 70.7863L30.2844 65.6051ZM29.4726 70.8817L22.8057 70.1544L28.8672 74.8171L29.4726 70.8817ZM28.7537 74.8513L22.6797 70.179L22.247 74.6147L28.7537 74.8513ZM22.1505 74.6112L22.5828 70.1802L15.8151 74.3808L22.1505 74.6112ZM15.6073 74.5337L9.04227 80.6298L15.6073 80.2582V74.5337ZM15.6073 80.3547L9.05093 80.7258L15.6073 85.4089V80.3547ZM15.5307 85.4726L8.97211 80.7879L9.62807 86.3636L15.5307 85.4726ZM9.54402 86.4737L3.01195 87.4597L10.2958 92.8638L9.54402 86.4737ZM9.63934 86.4593L15.5506 85.567L10.3899 92.8389L9.63934 86.4593ZM10.4322 93.0559L11.9468 98.2489L17.6911 96.3341L10.4322 93.0559ZM17.728 96.4234L11.9738 98.3414L13.7405 104.399L17.728 96.4234ZM13.8658 104.521L21.5986 106.864L19.7808 101.865L13.8658 104.521ZM19.8689 101.826L21.6838 106.817L25.427 99.3304L19.8689 101.826ZM25.5299 99.34L21.7496 106.9L29.7826 108.082L25.5299 99.34ZM29.73 108.171L21.7714 107.001L24.4967 111.471L29.73 108.171ZM24.4152 111.522L21.6885 107.05L18.8781 115.013L24.4152 111.522ZM18.9158 115.103L24.4654 111.604L27.6006 116.746L18.9158 115.103ZM27.6429 116.852L18.8962 115.197L26.2245 125.362L27.6429 116.852ZM26.3111 125.429L34.1069 124.484L27.7285 116.924L26.3111 125.429ZM34.2578 124.629L39.0411 128.507L34.9622 133.786L34.2578 124.629ZM34.8659 133.791L34.157 124.575L26.3588 125.52L34.8659 133.791ZM35.0433 133.932L40.01 137.051L43.0135 131.823L35.0433 133.932ZM43.095 131.874L40.0916 137.102L45.2047 140.313L43.095 131.874ZM45.3947 140.418L50.5248 142.872L52.6614 137.137L45.3947 140.418ZM52.7494 137.176L50.612 142.914L56.2668 145.618L52.7494 137.176ZM56.2444 145.714L50.5783 143.004L48.2557 149.239L56.2444 145.714ZM56.4843 145.694L62.2191 146.956L63.5126 141.243L56.4843 145.694ZM63.6075 141.26L62.3132 146.976L68.296 148.293L63.6075 141.26ZM68.2867 148.389L62.2919 147.07L60.7701 153.792L68.2867 148.389ZM68.5158 148.326L80.0949 149.271L74.6598 142.655L68.5158 148.326ZM74.7647 142.631L79.9083 142.516L80.1509 149.188L74.7647 142.631ZM80.3106 149.268L86.4553 148.573L85.4733 142.463L80.3106 149.268ZM85.5694 142.453L86.5511 148.562L92.8427 147.849L85.5694 142.453ZM93.0601 147.807L98.3325 146.269L96.5723 140.548L93.0601 147.807ZM96.662 140.512L98.425 146.242L104.401 144.499L96.662 140.512ZM104.609 144.42L109.289 142.132L106.947 136.703L104.609 144.42ZM107.025 136.641L109.375 142.089L115.239 139.223L107.025 136.641ZM115.432 139.109L120.274 135.684L116.605 130.903L115.432 139.109ZM116.686 130.851L125.121 132.256L120.353 135.629L116.686 130.851ZM116.689 130.754L125.119 132.158L120.965 127.428L116.689 130.754ZM121.041 127.369L125.196 132.1V124.138L121.041 127.369ZM125.292 124.145V132.107L129.42 127.743L125.292 124.145ZM125.341 123.982L133.31 123.299L128.487 119.385L125.341 123.982ZM128.541 119.305L133.448 123.287L133.613 123.273L131.486 115.001L128.541 119.305ZM131.581 114.984L133.693 123.198L137.042 118.056L131.581 114.984ZM137.179 118.022L142.985 121.288L140.402 113.072L137.179 118.022ZM140.313 113.032L137.095 117.975L131.64 114.907L140.313 113.032ZM131.356 114.843L126.105 111.262L123.412 115.076L131.356 114.843ZM123.333 115.021L126.025 111.208L120.998 107.78L123.333 115.021ZM123.223 114.994L120.89 107.759L118.136 111.063L123.223 114.994ZM118.06 111.004L120.813 107.701L112.879 107.001L118.06 111.004ZM112.813 106.898L120.827 107.605L117.527 101.006L112.813 106.898ZM117.646 101.028L123.065 103.851L120.912 107.56L117.646 101.028ZM117.704 100.95L123.114 103.768L125.155 100.251L117.704 100.95ZM117.496 100.891L120.863 93.9164L122.547 86.4583L123.269 78.7586L122.547 71.0607L120.382 64.0839L117.013 56.8654L112.682 50.85L107.63 45.3166L100.894 40.7458L94.1568 37.6178L86.699 35.4527L78.7592 34.9715L71.3012 35.4526L64.0839 37.6178L57.1062 40.7458L50.6108 45.3166L45.3178 50.8502L40.7461 57.3468L37.619 64.0821L35.9347 71.5413L34.9723 79.2401L35.9347 86.4577L37.6191 94.3984L40.7461 100.893L45.3178 107.63L50.6099 112.922L57.1057 117.253L64.0832 120.381L71.3018 122.306L79.2406 123.268L86.6982 122.306L94.1575 120.381L100.894 117.253L107.629 112.923L112.682 106.908L112.683 106.907L117.496 100.891ZM112.804 107.064L117.998 111.078L114.909 114.785L112.804 107.064ZM114.819 114.819L112.697 107.04L107.747 112.933L114.819 114.819ZM107.621 113.043L101.021 117.286L108.328 120.351L107.621 113.043ZM108.276 120.433L101.051 117.403L104.597 122.551L108.276 120.433ZM104.513 122.599L100.957 117.437L100.49 124.916L104.513 122.599ZM100.393 124.912L100.865 117.373L94.2681 120.436L100.393 124.912ZM94.1074 120.493L86.799 122.379L92.2213 128.037L94.1074 120.493ZM92.149 128.101L86.7958 122.515L88.2952 128.743L92.149 128.101ZM88.2 128.759L86.6942 122.504L83.6556 129.517L88.2 128.759ZM83.5665 129.48L86.6294 122.412L79.3255 123.354L83.5665 129.48ZM79.1581 123.355L71.3787 122.412L75.1505 129.484L79.1581 123.355ZM75.0581 129.516L71.283 122.437L66.3282 128.1L75.0581 129.516ZM66.257 128.035L71.2054 122.38L64.1363 120.495L66.257 128.035ZM63.9717 120.436L57.138 117.373L57.8449 124.914L63.9717 120.436ZM57.7482 124.914L57.0405 117.366L49.9638 120.432L57.7482 124.914ZM49.9125 120.35L56.9819 117.286L50.6194 113.045L49.9125 120.35ZM50.4855 112.934L45.3034 107.752L43.1835 114.819L50.4855 112.934ZM43.0926 114.786L45.2145 107.713L37.6701 108.185L43.0926 114.786ZM37.6486 108.09L45.1932 107.618L40.7136 101.017L37.6486 108.09ZM40.6276 100.869L37.5675 94.5134L33.5659 100.869H40.6276ZM33.4898 100.809L37.4975 94.4438L30.4251 92.5578L33.4898 100.809ZM30.4369 92.4612L37.5097 94.3473L35.8594 86.5672L30.4369 92.4612ZM35.8291 86.3949L34.8873 79.3312L29.0008 84.0403L35.8291 86.3949ZM28.9506 83.9571L34.7763 79.2966L28.9506 79.6143V83.9571ZM28.9506 79.5179L34.7848 79.1996L28.9506 74.999V79.5179ZM28.9962 74.9131L34.886 79.1538L35.8284 71.6148L28.9962 74.9131ZM35.8604 71.4328L37.5098 64.1283L30.441 65.5421L35.8604 71.4328ZM30.4177 65.4485L31.4012 62.3014L37.3721 64.0576L30.4177 65.4485ZM37.5629 63.9742L40.6265 57.3756L32.8496 57.8469L37.5629 63.9742ZM32.8455 57.7506L40.6296 57.2789L37.3273 50.4382L32.8455 57.7506ZM37.4114 50.3909L40.712 57.2279L45.1914 50.8624L37.4114 50.3909ZM45.3034 50.7259L50.4876 45.306L43.1826 43.4209L45.3034 50.7259ZM43.2143 43.3295L50.5249 45.2162L49.8174 37.6697L43.2143 43.3295ZM49.9122 37.6492L50.6194 45.1927L56.9843 40.7137L49.9122 37.6492ZM57.1382 40.6258L63.9694 37.5636L57.8449 33.3236L57.1382 40.6258ZM57.906 33.2487L64.0297 37.4882L64.9718 30.4223L57.906 33.2487ZM65.0669 30.4383L64.1246 37.505L71.1914 35.385L65.0669 30.4383ZM71.3733 35.3515L78.6736 34.8805L74.6702 28.7576L71.3733 35.3515ZM74.7537 28.7092L78.7046 34.7518L78.4808 28.7092H74.7537ZM78.4772 28.6129L78.2359 22.0967L74.7451 28.6129H78.4772ZM74.6909 28.5099L78.1911 21.9762L73.8023 22.5114L74.6909 28.5099ZM73.7881 22.4161L78.1806 21.8804L72.8092 15.8084L73.7881 22.4161ZM72.6431 15.7221L67.0203 16.7988L68.4223 22.9912L72.6431 15.7221ZM68.3262 23.0031L66.9256 16.8169L61.5329 17.8496L68.3262 23.0031ZM68.2932 23.099L61.5042 17.9487L63.3466 24.3357L68.2932 23.099ZM63.253 24.3591L61.4136 17.9825L58.8427 25.4617L63.253 24.3591ZM58.7094 25.6121L49.9729 29.8623L57.765 33.168L58.7094 25.6121ZM57.6943 33.2427L49.9048 37.4915V29.938L57.6943 33.2427ZM49.743 29.7817L46.247 24.5376L41.7817 27.4401L49.743 29.7817ZM49.7498 29.8841L41.8023 27.5466L45.954 32.6751L49.7498 29.8841ZM45.8763 32.7322L41.7158 27.5928V35.7914L45.8763 32.7322ZM41.6195 35.7584L37.573 31.1339L41.6195 27.5635V35.7584ZM41.5453 35.82L37.5008 31.1976L33.5883 34.6498L41.5453 35.82ZM41.5658 35.9203L33.6294 34.7532L38.4207 39.0654L41.5658 35.9203ZM41.6376 35.9848L38.4924 39.13L43.0382 43.2211L41.6376 35.9848ZM42.9786 43.2972L38.4242 39.1982L34.793 42.8294L42.9786 43.2972ZM34.7166 42.7696L38.3525 39.1337L33.5457 34.8076L34.7166 42.7696ZM34.6187 42.7657L29.8173 39.3043L33.447 34.7984L34.6187 42.7657ZM34.5449 42.8313L29.7568 39.3794L26.5996 43.2986L34.5449 42.8313ZM34.5923 42.925L26.644 43.3925L32.0917 46.9033L34.5923 42.925ZM32.0404 46.9848L26.588 43.4711L29.3957 51.1923L32.0404 46.9848ZM29.2965 51.2013L23.6162 48.2428L26.4832 43.4646L29.2965 51.2013ZM29.2396 51.2803L23.5665 48.3256L20.8103 52.9193L29.2396 51.2803ZM29.3023 51.3663L20.8832 53.0033L27.4032 55.6113L29.3023 51.3663ZM27.3638 55.6993L20.8304 53.0859L25.2829 60.3506L27.3638 55.6993ZM25.1795 60.3662L19.0291 58.3161L20.7269 53.1014L25.1795 60.3662ZM25.4572 60.5532L30.3253 65.4213L31.3087 62.2743L25.4572 60.5532ZM31.4299 62.2095L37.4447 63.9785L32.7744 57.9072L31.4299 62.2095ZM32.6151 57.7998L27.4533 55.7351L25.3991 60.327C25.4324 60.3107 25.4713 60.2927 25.5151 60.2734C25.6641 60.2077 25.8741 60.1238 26.1306 60.0263C26.6436 59.8314 27.3448 59.5813 28.1195 59.3123C29.6169 58.7924 31.3905 58.2013 32.6151 57.7998ZM32.6822 57.8792L31.3375 62.1823L25.3983 60.4355C25.4368 60.415 25.489 60.3902 25.554 60.3615C25.7006 60.2968 25.9088 60.2136 26.1648 60.1164C26.6765 59.9219 27.3766 59.6722 28.1511 59.4033C29.663 58.8784 31.4569 58.2807 32.6822 57.8792ZM32.6537 57.7115L27.4927 55.6471L29.3873 51.4121L32.6537 57.7115ZM32.7596 57.7064L29.4588 51.3407L37.2391 50.3977L32.7596 57.7064ZM37.4299 50.2955L45.2151 50.7673L43.0919 43.4539L37.4299 50.2955ZM43.1443 43.2626L49.7507 37.6L41.7287 35.9484L43.1443 43.2626ZM41.7834 35.8613L45.937 32.8072L49.7345 37.4983L41.7834 35.8613ZM49.9664 37.5676L57.0407 40.6332L57.7481 33.323L49.9664 37.5676ZM49.8085 37.4365L46.0147 32.7501L49.8085 29.9605V37.4365ZM43.0149 43.3958L34.7525 42.9236L37.3493 50.2417L43.0149 43.3958ZM37.2397 50.2208L32.1727 46.9555L34.6708 42.9812L37.2397 50.2208ZM37.1941 50.3061L32.1214 47.037L29.4787 51.2413L37.1941 50.3061ZM25.1432 60.4557L18.9992 58.4077L17.4178 63.2649L25.1432 60.4557ZM57.8628 33.1622L64.9341 30.3337L58.8056 25.6194L57.8628 33.1622ZM65.0411 30.2102L63.3733 24.4283L68.316 23.1926L65.0411 30.2102ZM68.3873 23.2676L65.1132 30.2836L69.8434 29.4558L68.3873 23.2676ZM69.8655 29.5498L65.1432 30.3762L71.2136 35.2791L69.8655 29.5498ZM71.3091 35.2644L69.9605 29.5331L74.5788 28.7249L71.3091 35.2644ZM74.5578 28.6308L69.9384 29.4392L68.484 23.2579L74.5578 28.6308ZM68.5145 23.1562L73.7066 22.5231L74.5976 28.5374L68.5145 23.1562ZM68.4927 23.0618L73.6925 22.4277L72.7103 15.7982L68.4927 23.0618ZM64.9435 30.2193L63.2798 24.4517L58.8766 25.5525L64.9435 30.2193ZM58.7618 25.4006L56.1127 19.6417L61.3404 17.8991L58.7618 25.4006ZM61.2956 17.8125L56.0722 19.5536L53.3319 13.5964L61.2956 17.8125ZM78.5772 28.7092L78.8021 34.7827L83.2405 28.7092H78.5772ZM83.3284 28.7522L78.85 34.8805L86.6879 35.3555L86.7297 35.3119L83.3284 28.7522ZM86.7362 35.305L91.9062 29.9L87.5771 29.2988L86.7362 35.305ZM87.5904 29.2034L91.9189 29.8045L88.4205 23.2742L87.5904 29.2034ZM88.4875 23.1953L92.0226 29.7941L97.8431 25.6033L97.7719 25.5759L88.4875 23.1953ZM97.937 25.6544L92.1067 29.8522L96.1046 31.3808L97.937 25.6544ZM96.0751 31.4727L92.0784 29.9445L94.1767 37.4053L96.0751 31.4727ZM94.1039 37.5022L91.9826 29.9596L86.797 35.3808L94.1039 37.5022ZM94.2665 37.5626L100.862 40.6247L100.155 33.0872L94.2665 37.5626ZM100.252 33.0878L100.959 40.6313L107.56 37.5667L100.252 33.0878ZM107.613 37.6481L101.015 40.7116L107.613 45.189V37.6481ZM107.747 45.3022L112.696 50.7224L114.817 42.9456L107.747 45.3022ZM114.909 42.974L112.795 50.7256C112.805 50.7187 112.816 50.7111 112.828 50.7027C112.893 50.6565 112.978 50.5894 113.081 50.5031C113.288 50.3308 113.566 50.0843 113.9 49.7803C114.566 49.1726 115.449 48.337 116.413 47.411C116.801 47.0385 117.202 46.6515 117.607 46.2588L114.909 42.974ZM117.669 46.3335C117.265 46.7244 116.866 47.1096 116.48 47.4805C115.516 48.4067 114.632 49.2429 113.965 49.8515C113.631 50.1558 113.351 50.4035 113.143 50.5772C113.068 50.6395 113.002 50.6926 112.945 50.7355L120.336 49.5807L117.669 46.3335ZM120.345 49.6768L112.804 50.855L117.046 56.7461L120.345 49.6768ZM117.133 56.894L120.434 63.967L124.677 57.3656L117.133 56.894ZM124.753 57.4263L120.555 63.9561L126.367 61.3467L124.753 57.4263ZM126.404 61.4358L120.587 64.0475L128.056 65.4479L126.404 61.4358ZM128.035 65.5421L120.497 64.1286L122.617 70.9608L128.035 65.5421ZM122.65 71.1318L123.357 78.6721L129.484 74.4307L122.65 71.1318ZM129.531 74.5152L123.471 78.7104H129.531V74.5152ZM129.531 78.8068H123.465L129.531 83.2399V78.8068ZM129.484 83.3248L123.357 78.8475L122.65 86.3882L129.484 83.3248ZM122.623 86.5596L120.974 93.8625L128.041 91.7423L122.623 86.5596ZM128.058 91.8378L121.07 93.9343L126.708 95.7754L128.058 91.8378ZM126.677 95.8666L121.03 94.0226L125.229 100.089L126.677 95.8666ZM125.157 100.154L117.617 100.861L120.916 94.0277L125.157 100.154ZM125.321 100.119L126.768 95.8965L132.554 97.7857L125.321 100.119ZM132.784 97.7011L140.262 94.4297L134.083 93.097L132.784 97.7011ZM134.109 93.0041L140.29 94.3373L135.381 88.4934L134.109 93.0041ZM135.412 88.305L135.642 83.7198L142.426 84.0968L135.412 88.305ZM142.516 84.1554L135.433 88.405L140.391 94.3072L142.516 84.1554ZM140.548 94.3914L147.137 95.7336L148.298 89.6944L140.548 94.3914ZM148.391 89.7203L147.231 95.7528L153.318 96.9927L148.391 89.7203ZM148.287 89.5883L142.615 84.1522L140.488 94.3154L148.287 89.5883ZM142.535 83.9566L142.41 78.0904L135.964 78.7937L142.535 83.9566ZM135.981 78.6949L142.408 77.9938L142.299 72.8454L135.981 78.6949ZM142.395 72.8295L142.504 77.9833L148.953 77.2798L142.395 72.8295ZM142.506 78.08L142.631 83.9406L148.961 77.3758L142.506 78.08ZM142.469 72.7632L149.034 77.2186L148.691 71.611L142.469 72.7632ZM142.467 72.6656L148.685 71.5141L148.325 65.6357L142.467 72.6656ZM148.217 65.4948L140.242 61.7421L141.273 67.0098L148.217 65.4948ZM141.179 67.0304L140.15 61.7735L135.235 68.3272L141.179 67.0304ZM135.138 68.2966L140.048 61.7499L133.776 63.7569L135.138 68.2966ZM133.748 63.6646L140.028 61.6551L132.302 58.8458L133.748 63.6646ZM132.363 58.7654L140.095 61.5771L138.176 56.418L132.363 58.7654ZM138.265 56.3819L140.186 61.5451L144.642 53.8067L138.265 56.3819ZM140.311 61.6678L148.288 65.4217L146.561 59.7809L140.311 61.6678ZM140.279 61.5768L146.533 59.6888L144.739 53.83L140.279 61.5768ZM146.625 59.661L152.812 57.7932L144.832 53.8031L146.625 59.661ZM138.231 56.2916L136.402 51.3738L144.605 53.7176L138.231 56.2916ZM136.453 51.2882L144.662 53.6338L142.086 48.3635L136.453 51.2882ZM136.412 51.201L142.043 48.2769L139.46 42.9935L136.412 51.201ZM139.344 42.8078L135.357 37.6996L130.657 41.634L139.344 42.8078ZM130.598 41.5579L135.297 37.6236L131.778 33.1148C131.578 34.4791 131.286 36.4871 131.042 38.2176C130.917 39.1067 130.804 39.9224 130.722 40.5399C130.681 40.8487 130.648 41.1077 130.626 41.3015C130.613 41.4085 130.604 41.4946 130.598 41.5579ZM131.636 32.9515L127.557 28.7558L123.667 33.1858L131.636 32.9515ZM123.603 33.1132L127.49 28.6865L123.369 24.4477L123.603 33.1132ZM123.191 24.305L118.08 21.1688L114.989 26.1799L123.191 24.305ZM114.949 26.0607L117.998 21.1184L112.802 17.9299C113.202 19.2543 113.771 21.1972 114.223 22.874C114.456 23.7383 114.658 24.5325 114.79 25.135C114.856 25.4362 114.904 25.6903 114.93 25.8818C114.939 25.9489 114.946 26.0088 114.949 26.0607ZM112.618 17.9194L105.125 21.198L109.834 23.61L112.618 17.9194ZM109.791 23.6966L105.087 21.2872L107.193 29.0068L109.791 23.6966ZM107.108 29.0636L105.003 21.3443L102.565 27.3164L107.108 29.0636ZM102.476 27.2818L104.911 21.3137L98.0839 25.5516L98.0973 25.5978L102.476 27.2818ZM98.131 25.714L102.439 27.371L100.203 32.8501L98.131 25.714ZM98.1416 25.4024L104.902 21.2059L99.8377 19.3642C99.734 19.7536 99.6315 20.1374 99.5311 20.5113C99.1618 21.8869 98.8215 23.13 98.5614 24.0369C98.4314 24.4902 98.3214 24.8599 98.2377 25.1202C98.2004 25.2364 98.1681 25.3313 98.1416 25.4024ZM99.8626 19.2707L104.93 21.1134L101.649 12.4422C101.171 14.2962 100.497 16.8841 99.8626 19.2707ZM101.729 12.3812L105.014 21.0639L107.434 15.2339L101.729 12.3812ZM107.471 15.1447L110.22 8.52238L101.753 12.2855L107.471 15.1447ZM107.521 15.277L105.103 21.1024L112.606 17.8197L107.521 15.277ZM101.524 12.3057L96.0925 11.061L94.494 17.2265L101.524 12.3057ZM94.398 17.2131L95.9985 11.0395L90.1746 9.70486L94.398 17.2131ZM90.1089 9.78459L89.2684 16.509L94.3242 17.2784L90.1089 9.78459ZM94.3108 17.3738L89.2564 16.6047L88.4579 22.9925L94.3108 17.3738ZM88.489 23.0962L97.804 25.4847L97.9365 25.536L97.9676 25.5136L94.3983 17.4233L88.489 23.0962ZM94.5042 17.4248L99.7468 19.3311C99.6424 19.7233 99.5391 20.1098 99.4381 20.4863C99.0688 21.8618 98.7286 23.1043 98.4688 24.0103C98.3389 24.4634 98.2292 24.8319 98.146 25.0907C98.1044 25.2202 98.0696 25.3216 98.0424 25.3921C98.0386 25.402 98.035 25.4113 98.0315 25.4198L94.5042 17.4248ZM94.5181 17.3273L99.7717 19.2377C100.408 16.8447 101.084 14.2503 101.561 12.3972L94.5181 17.3273ZM98.0252 25.695L96.1947 31.4152L100.122 32.9168L98.0252 25.695ZM100.291 32.9986L107.608 37.4834L107.136 29.2219L100.291 32.9986ZM107.234 29.2415L107.701 37.4211L111.119 32.0669L107.234 29.2415ZM111.197 32.1237L107.778 37.4803L115.026 34.9084L111.197 32.1237ZM115.078 34.9922L107.763 37.5876L114.842 42.7784L115.078 34.9922ZM114.939 42.7415L118.7 38.5631L115.173 35.0361L114.939 42.7415ZM115.226 34.9528L118.764 38.4914L123.425 33.313L115.226 34.9528ZM123.483 33.3922L118.833 38.5596L122.081 41.8077L123.483 33.3922ZM122.01 41.8731L118.768 38.6313L115.011 42.8063L122.01 41.8731ZM114.979 42.9077L117.677 46.1915C119.219 44.6958 120.815 43.1261 121.977 41.9747L114.979 42.9077ZM122.031 42.057C120.869 43.2087 119.276 44.7746 117.738 46.2662L120.401 49.508L122.031 42.057ZM122.137 42.0223L120.486 49.5707L128.034 50.0425L122.137 42.0223ZM127.981 50.1357L120.512 49.6689L122.638 53.4473C124.53 52.2818 126.529 51.0412 127.981 50.1357ZM122.555 53.4979L120.431 49.7206L117.151 56.748C117.215 56.7156 117.303 56.6675 117.414 56.605C117.638 56.4789 117.952 56.2955 118.335 56.0677C119.1 55.6122 120.14 54.9802 121.287 54.2773C121.698 54.025 122.124 53.7635 122.555 53.4979ZM117.251 56.8049C117.309 56.7743 117.379 56.7354 117.462 56.689C117.687 56.5623 118.001 56.3783 118.384 56.1505C119.15 55.6946 120.19 55.0624 121.337 54.3594C121.748 54.1077 122.172 53.8469 122.603 53.5819L124.677 57.269L117.251 56.8049ZM124.841 57.3869L126.455 61.3072L132.07 58.7861L124.841 57.3869ZM124.832 57.287L132.145 58.7024L128.134 50.2104L124.832 57.287ZM128.216 50.1577L132.232 58.6617L136.248 51.3388L128.216 50.1577ZM136.313 51.1905L139.359 42.9893L133.598 46.6663L136.313 51.1905ZM133.549 46.5837L139.318 42.9015L130.636 41.7283L133.549 46.5837ZM130.56 41.7897L133.468 46.6355L128.251 49.9651C128.268 49.9207 128.288 49.8678 128.309 49.8072C128.37 49.632 128.447 49.3897 128.536 49.0964C128.715 48.5098 128.942 47.7176 129.186 46.8464C129.661 45.1502 130.199 43.1536 130.56 41.7897ZM128.022 50.2238C126.569 51.1293 124.574 52.3679 122.685 53.5314L124.758 57.2173L128.022 50.2238ZM128.269 50.0681L133.517 46.7182L136.229 51.2388L128.269 50.0681ZM128.129 50.0087C128.133 50.0005 128.136 49.9916 128.141 49.9819C128.162 49.9317 128.188 49.8624 128.218 49.7756C128.278 49.6021 128.355 49.3612 128.444 49.0684C128.622 48.4828 128.849 47.6914 129.093 46.8204C129.574 45.1049 130.118 43.0816 130.48 41.7171L122.206 41.9535L128.129 50.0087ZM122.24 41.8562L130.443 41.6218L126.993 37.459L122.24 41.8562ZM127.064 37.3935L130.503 41.5434C130.509 41.4781 130.518 41.3927 130.53 41.2903C130.553 41.0958 130.586 40.8362 130.627 40.5273C130.708 39.9094 130.821 39.0933 130.947 38.2041C131.189 36.4834 131.479 34.4884 131.679 33.1245L127.064 37.3935ZM131.62 33.0483L127.003 37.3192L123.658 33.2825L131.62 33.0483ZM123.507 33.1343L123.273 24.462L119.232 29.6908L123.507 33.1343ZM119.157 29.6303L123.197 24.4026L114.995 26.2773L119.157 29.6303ZM114.854 26.1813L109.919 23.6539L112.709 17.9539C113.109 19.2777 113.678 21.2219 114.13 22.8991C114.363 23.7629 114.564 24.5554 114.696 25.1556C114.761 25.4558 114.809 25.7071 114.835 25.8948C114.847 25.9887 114.854 26.0656 114.855 26.1242C114.856 26.1463 114.855 26.1653 114.854 26.1813ZM114.768 26.2457L109.877 23.7405L107.276 29.0551L114.768 26.2457ZM107.281 29.1564L111.171 31.9855L114.769 26.3483L107.281 29.1564ZM114.843 26.4106L111.249 32.0423L115.077 34.8267L114.843 26.4106ZM114.938 26.3555L119.098 29.7066L115.172 34.787L114.938 26.3555ZM115.245 34.8507L119.173 29.767L123.448 33.2102L115.245 34.8507ZM107.066 29.1505L102.529 27.4056L100.291 32.8883L107.066 29.1505ZM123.588 33.3492L126.932 37.3847L122.183 41.777L123.588 33.3492ZM136.315 51.4168L138.142 56.3277L132.336 58.6725L136.315 51.4168ZM132.107 58.8751L126.492 61.3963L128.142 65.4052L132.107 58.8751ZM128.102 65.6122L122.743 70.9705L128.764 69.6969L128.102 65.6122ZM128.779 69.7922L122.742 71.0692L129.517 74.3396L128.779 69.7922ZM129.705 74.3581L135.433 73.6014L135.079 68.5168L129.705 74.3581ZM135.173 68.4907L135.529 73.5888L142.201 72.7076L135.173 68.4907ZM142.372 72.6286L141.292 67.1044L148.239 65.5886L142.372 72.6286ZM142.276 72.6402L141.197 67.125L135.248 68.423L142.276 72.6402ZM135.044 68.3186L133.684 63.7863L128.274 65.5174L135.044 68.3186ZM134.957 68.3869L128.858 69.677L128.195 65.5892L134.957 68.3869ZM134.981 68.4802L128.874 69.7722L129.611 74.3176L134.981 68.4802ZM128.242 65.4265L133.656 63.694L132.214 58.8853L128.242 65.4265ZM142.201 72.8048L135.536 73.6851L135.882 78.6549L142.201 72.8048ZM135.786 78.6619L135.44 73.6977L129.709 74.4546L135.786 78.6619ZM129.627 74.5152V78.7104H135.687L129.627 74.5152ZM135.694 78.8068H129.627V83.2399L135.694 78.8068ZM135.788 78.8571L129.716 83.2942L135.55 83.6183L135.788 78.8571ZM135.646 83.6236L142.435 84.0008L135.885 78.854L135.646 83.6236ZM135.545 83.7145L129.716 83.3907L135.317 88.291L135.545 83.7145ZM135.272 88.3803L129.612 83.4277L128.197 91.6821L135.272 88.3803ZM128.15 91.8657L126.8 95.8053L132.579 97.6923L128.15 91.8657ZM128.251 91.8392L133.989 93.0767L132.69 97.6799L128.251 91.8392ZM128.284 91.7478L134.015 92.9838L135.285 88.4808L128.284 91.7478ZM128.102 91.6672L129.517 83.4157L122.68 86.4806L128.102 91.6672ZM114.784 42.8551L107.71 37.6677V45.2131L114.784 42.8551ZM100.097 33.0104L96.1653 31.5071L94.2662 37.4419L100.097 33.0104ZM88.324 23.2687L87.495 29.1901L83.4326 28.6259L88.324 23.2687ZM83.421 28.7215L87.4817 29.2855L86.6805 35.0078L83.421 28.7215ZM88.3613 22.9884L89.1611 16.5902L83.437 15.7191L88.3613 22.9884ZM83.4438 15.6227L90.0155 9.75506L89.1731 16.4945L83.4438 15.6227ZM96.0227 10.9462L97.7076 4.44757L90.1969 9.61113L96.0227 10.9462ZM118.049 21.0365L121.763 15.0173L112.835 17.8368L118.049 21.0365ZM127.553 28.6139L132.111 23.4234L123.42 24.3629L127.553 28.6139ZM131.846 33.0446L135.371 37.5618L140.767 33.0446H131.846ZM139.541 42.9383L142.129 48.2325L148.705 44.8181L139.541 42.9383ZM148.781 71.4964L155.228 70.3025L148.42 65.6075L148.781 71.4964ZM142.654 84.056L148.324 89.4901L149.033 77.4407L142.654 84.056ZM140.339 94.5008L138.688 99.6916L132.845 97.7795L140.339 94.5008ZM132.628 97.8632L130.829 102.422L125.384 100.2L132.628 97.8632ZM30.3799 65.618L29.5832 70.7968L35.7649 71.4712L30.3799 65.618ZM35.7149 71.5626L29.5685 70.8921L28.9639 74.8217L35.7149 71.5626ZM28.8542 74.9974V79.5231L21.8426 79.9056L28.8542 74.9974ZM21.7349 79.8634L22.2376 74.7108L28.7571 74.9478L21.7349 79.8634ZM21.6382 79.8619L22.1411 74.7073L15.7841 74.4761L21.6382 79.8619ZM21.5604 79.9212L15.7036 80.2527V74.533L21.5604 79.9212ZM21.5451 80.0186L15.7036 80.3492V85.3927L21.5451 80.0186ZM21.6426 80.0598L15.7959 85.4387L22.3423 84.7245L21.6426 80.0598ZM22.3566 84.8199L15.8127 85.5338L23.0599 89.508L22.3566 84.8199ZM22.993 89.5812L15.723 85.5944L16.8451 91.2052L22.993 89.5812ZM16.7518 91.2298L15.6301 85.6214L10.4729 92.8884L16.7518 91.2298ZM16.7707 91.3245L17.7575 96.2584L10.5001 92.9809L16.7707 91.3245ZM17.8161 96.4626L19.7478 101.775L13.8321 104.431L17.8161 96.4626ZM13.6515 104.437L11.8824 98.3719L5.66516 100.444L13.6515 104.437ZM17.9042 96.4227L19.8359 101.735L25.4039 99.2351L17.9042 96.4227ZM25.6169 99.2987L29.8664 108.034L33.4077 100.951L25.6169 99.2987ZM33.4813 101.02L37.4905 108.095H29.9438L33.4813 101.02ZM29.79 108.247L24.5469 111.553L27.6793 116.69L29.79 108.247ZM29.8864 108.259L27.7608 116.761L35.3183 116.289L29.8864 108.259ZM35.386 116.217L37.5106 108.191H29.9566L35.386 116.217ZM37.5674 108.035L33.5613 100.965H40.6309L37.5674 108.035ZM37.5956 108.246L35.4715 116.27L43.0239 114.854L37.5956 108.246ZM43.1609 114.989L49.7649 120.413L43.1609 123.243V114.989ZM43.0646 123.208V114.945L35.5097 116.361L43.0646 123.208ZM35.3491 116.384L34.1691 124.408L27.7967 116.856L35.3491 116.384ZM34.2582 124.464L35.44 116.428L43.0037 123.283L34.2582 124.464ZM34.3181 124.554L39.1 128.431L43.0029 123.38L34.3181 124.554ZM43.0646 123.458L39.1748 128.491L43.0646 131.645V123.458ZM43.1863 131.842L45.2968 140.284L48.2932 134.651L43.1863 131.842ZM48.3776 134.697L45.3893 140.315L52.6393 137.041L48.3776 134.697ZM52.8343 137.13L56.351 145.57L58.1693 139.145L52.8343 137.13ZM58.1956 139.052L52.8601 137.036L59.8942 133.05L58.1956 139.052ZM58.2598 139.179L56.4404 145.608L63.478 141.151L58.2598 139.179ZM63.6842 141.201L68.367 148.225L68.9537 141.888L63.6842 141.201ZM69.0493 141.901L68.462 148.245L74.5563 142.619L69.0493 141.901ZM69.0582 141.805L69.6425 135.494L74.5625 142.523L69.0582 141.805ZM69.7042 135.414L74.6218 142.44L74.8683 135.783L69.7042 135.414ZM69.7124 135.318L74.8719 135.687L75.0935 129.703L69.7124 135.318ZM75.1892 129.723L74.968 135.694L79.6247 136.026L75.1892 129.723ZM79.6297 136.123L74.9645 135.79L74.7178 142.449C74.7492 142.411 74.788 142.363 74.8338 142.306C74.9444 142.168 75.0937 141.979 75.2725 141.751C75.6302 141.296 76.1058 140.685 76.6256 140.014C77.6419 138.704 78.8271 137.167 79.6297 136.123ZM79.6793 136.217C78.8771 137.26 77.7069 138.777 76.7018 140.073C76.1819 140.744 75.7061 141.355 75.3483 141.811C75.1694 142.039 75.0198 142.228 74.909 142.366C74.8539 142.434 74.8078 142.491 74.7722 142.534L79.9048 142.42L79.6793 136.217ZM79.7754 136.21L80.0011 142.418L85.3952 142.298L79.7754 136.21ZM85.6219 142.372L92.8901 147.765L91.2953 141.385L85.6219 142.372ZM91.3905 141.369L92.984 147.743L96.498 140.481L91.3905 141.369ZM96.7013 140.424L104.433 144.407L101.883 138.496L96.7013 140.424ZM96.6588 140.337L101.845 138.408L99.2381 132.365L96.6588 140.337ZM99.3324 132.34L101.935 138.374L106.825 136.555L99.3324 132.34ZM107.056 136.55L115.258 139.128L111.828 133.686L107.056 136.55ZM111.91 133.637L115.34 139.076L116.511 130.876L111.91 133.637ZM116.621 130.684L120.901 127.356L116.621 122.481V130.684ZM116.525 130.644V122.446L112.365 125.383L116.525 130.644ZM112.305 125.307L116.458 122.375L108.508 120.505L112.305 125.307ZM108.488 120.401L116.427 122.269L111.899 117.496L108.488 120.401ZM111.972 117.433L116.488 122.193L114.858 114.975L111.972 117.433ZM114.967 115.021L116.6 122.254L119.561 119.081L114.967 115.021ZM119.633 119.145L116.668 122.322L125.079 123.958L119.633 119.145ZM125.267 123.92L128.412 119.324L123.393 115.251L125.267 123.92ZM125.166 123.906L119.699 119.075L123.289 115.228L125.166 123.906ZM123.17 115.075L118.074 111.137L114.988 114.841L123.17 115.075ZM123.448 115.172L128.466 119.244L131.413 114.938L123.448 115.172ZM123.209 115.173L119.627 119.011L115.019 114.939L123.209 115.173ZM114.786 114.91L111.906 117.363L107.814 113.05L114.786 114.91ZM107.723 113.095L111.832 117.426L108.423 120.33L107.723 113.095ZM108.432 120.565L112.226 125.363L108.432 128.041V120.565ZM108.336 127.979L104.652 122.631L108.336 120.51V127.979ZM108.255 128.031L104.568 122.679L100.547 124.994L108.255 128.031ZM108.26 128.136L100.544 125.097L103.462 130.283L108.26 128.136ZM103.373 130.323L100.461 125.145L99.294 132.147L103.373 130.323ZM99.2112 132.058L100.375 125.078L96.8046 126.443L99.2112 132.058ZM96.7666 126.354L100.336 124.989L94.2873 120.569L96.7666 126.354ZM94.1858 120.577L96.6765 126.388L92.3161 128.056L94.1858 120.577ZM92.1759 128.194L88.3178 128.837L89.8459 135.184L92.1759 128.194ZM92.2482 128.282L89.9146 135.283L94.2134 133.85L92.2482 128.282ZM94.2455 133.941L89.9408 135.376L96.4839 140.283L94.2455 133.941ZM96.4642 140.389L91.3671 141.275L89.918 135.479L96.4642 140.389ZM89.7544 135.216L88.2226 128.853L83.6812 129.61L89.7544 135.216ZM89.7239 135.319L83.6443 129.707L84.5472 135.689L89.7239 135.319ZM84.4508 135.696L83.5487 129.72L79.8109 136.027L84.4508 135.696ZM79.8259 136.123L84.4652 135.791L85.432 142.196L79.8259 136.123ZM85.5311 142.207L84.5616 135.784L89.7477 135.414L85.5311 142.207ZM85.6006 142.278L91.2719 141.292L89.8193 135.481L85.6006 142.278ZM79.7191 135.993L83.4917 129.627H75.2391L79.7191 135.993ZM75.0481 129.612L66.3169 128.196L69.6206 135.275L75.0481 129.612ZM69.5203 135.288L66.2516 128.284C65.9058 129.887 65.442 132.057 65.0007 134.158L69.5203 135.288ZM64.9071 134.135C65.3493 132.03 65.814 129.856 66.1599 128.252L60.0809 132.928L64.9071 134.135ZM60.0001 132.869L66.1364 128.148L57.876 125.08L60.0001 132.869ZM57.7115 125.004L51.3374 129.018L49.9209 120.519L57.7115 125.004ZM49.8174 120.332L50.5247 113.024L43.2166 114.91L49.8174 120.332ZM49.8192 120.495L43.2109 123.327L51.2353 128.991L49.8192 120.495ZM51.1953 129.081L43.1609 123.409V131.68L51.1953 129.081ZM43.2337 131.758L48.3384 134.566L51.2034 129.179L43.2337 131.758ZM51.2792 129.242L48.4229 134.612L52.6814 136.954L51.2792 129.242ZM51.3655 129.178L52.7822 136.97L59.8656 132.956L51.3655 129.178ZM60.0563 133.021L64.8873 134.229C64.7499 134.883 64.6149 135.53 64.4865 136.15C64.2074 137.498 63.9597 138.719 63.787 139.615C63.7006 140.064 63.633 140.431 63.5896 140.692C63.5732 140.791 63.5602 140.875 63.5509 140.942L60.0563 133.021ZM63.6911 141.105L68.9626 141.792L69.5468 135.483L63.6911 141.105ZM69.5105 135.385L64.9808 134.252C64.8437 134.906 64.709 135.551 64.5809 136.17C64.3018 137.518 64.0541 138.738 63.8816 139.634C63.7953 140.082 63.7278 140.448 63.6846 140.708C63.663 140.838 63.6475 140.941 63.6388 141.014C63.6385 141.017 63.6382 141.02 63.6379 141.022L69.5105 135.385ZM63.4949 141.054L58.2861 139.086L59.9824 133.092L63.4949 141.054ZM59.8994 132.865L57.7755 125.078L51.4039 129.09L59.8994 132.865ZM57.9056 124.989L66.1627 128.055L64.0395 120.506L57.9056 124.989ZM75.2354 129.531H83.4843L79.242 123.403L75.2354 129.531ZM96.5803 140.267L94.3369 133.91L99.1565 132.304L96.5803 140.267ZM99.1297 132.112L96.7145 126.477L92.3578 128.143L99.1297 132.112ZM92.3362 128.242L94.3048 133.82L99.1157 132.216L92.3362 128.242ZM99.3387 132.233L103.421 130.407L106.813 136.437L99.3387 132.233ZM106.914 136.422L103.509 130.367L108.321 128.214L106.914 136.422ZM107.004 136.468L111.776 133.605L108.41 128.266L107.004 136.468ZM108.496 128.22L111.859 133.555L116.457 130.796L108.496 128.22ZM108.491 128.117L112.286 125.438L116.437 130.688L108.491 128.117ZM125.131 124.066L120.978 127.296L116.702 122.427L125.131 124.066ZM115.288 139.306L109.413 142.178L112.231 148.711L115.288 139.306ZM106.865 136.642L104.523 144.372L101.973 138.462L106.865 136.642ZM92.8719 147.943L86.5664 148.657L87.6988 155.703L92.8719 147.943ZM85.4044 142.394L80.0046 142.514L80.2475 149.192L85.4044 142.394ZM45.1656 140.402L40.0436 137.186L36.7122 142.985L45.1656 140.402ZM43.0088 131.724L39.1159 128.568L35.0487 133.831L43.0088 131.724ZM33.403 100.852L30.334 92.5891L25.6124 99.1993L33.403 100.852ZM30.2255 92.5752L24.3668 94.3779L25.5519 99.1183L30.2255 92.5752ZM25.4615 99.1538L24.2746 94.4062L17.9723 96.3454L25.4615 99.1538ZM24.2512 94.3126L17.9562 96.2496L23.099 89.7041L24.2512 94.3126ZM24.3434 94.2843L30.203 92.4813L23.1915 89.6767L24.3434 94.2843ZM23.2792 89.608L30.2855 92.4105L29.5417 88.0719L23.2792 89.608ZM29.6355 88.0489L30.3784 92.3825L35.7437 86.5507L29.6355 88.0489ZM35.7168 86.4581L29.6192 87.9537L28.9636 84.1294L35.7168 86.4581ZM28.8703 84.1549L29.5254 87.9767L23.2851 89.5074L28.8703 84.1549ZM22.9952 89.6803L16.8641 91.2998L17.8499 96.2289L22.9952 89.6803ZM23.1558 89.4978L22.4525 84.8094L28.7668 84.1206L23.1558 89.4978ZM28.7488 84.0257L22.4382 84.7141L21.7391 80.0535L28.7488 84.0257ZM28.8542 83.9747V79.6196L21.8436 80.002L28.8542 83.9747ZM120.411 135.705L124.483 141.011L125.188 132.327L120.411 135.705ZM98.4534 146.334L100.446 152.81L104.44 144.588L98.4534 146.334ZM18.7799 115.002L21.5902 107.039L16.318 109.843L18.7799 115.002ZM16.2329 109.889L10.4889 112.944L18.6987 115.055L16.2329 109.889ZM16.2765 109.756L13.8191 104.608L21.5512 106.951L16.2765 109.756ZM8.87257 80.5664L9.37847 74.1162L3.0008 73.7552L8.87257 80.5664ZM15.7188 74.3272L16.4803 69.3229L22.5004 70.118L15.7188 74.3272ZM17.2425 63.2759L13.0244 56.4801L11.5425 62.1797L17.2425 63.2759ZM53.3046 13.4182L59.6318 11.8054L57.79 5.42056C57.0281 6.74439 55.9167 8.68717 54.9867 10.3376C54.51 11.1836 54.0811 11.9526 53.7715 12.522C53.6166 12.8068 53.4917 13.0413 53.4056 13.2106C53.3625 13.2952 53.3294 13.3631 53.3072 13.4124C53.3063 13.4144 53.3054 13.4163 53.3046 13.4182ZM65.6183 10.2949L72.0085 9.52806L71.2582 2.77504L65.6183 10.2949Z" fill="white"/>
<path d="M72.5426 35.4098C72.6587 36.068 72.2192 36.6956 71.561 36.8117C70.9028 36.9277 70.2752 36.4882 70.1591 35.83C70.0431 35.1719 70.4826 34.5442 71.1407 34.4281C71.7989 34.3121 72.4266 34.7516 72.5426 35.4098Z" fill="white"/>
<path d="M65.0714 37.1933C65.3 37.8213 64.9762 38.5158 64.3481 38.7444C63.7201 38.9729 63.0256 38.6491 62.7971 38.0211C62.5685 37.3931 62.8923 36.6986 63.5203 36.47C64.1484 36.2414 64.8428 36.5653 65.0714 37.1933Z" fill="white"/>
<path d="M58.0234 40.2471C58.3575 40.8259 58.1592 41.566 57.5804 41.9002C57.0016 42.2344 56.2615 42.0361 55.9273 41.4573C55.5931 40.8785 55.7915 40.1383 56.3703 39.8042C56.9491 39.47 57.6892 39.6683 58.0234 40.2471Z" fill="white"/>
<path d="M51.6127 44.4784C52.0423 44.9904 51.9755 45.7537 51.4635 46.1833C50.9515 46.6129 50.1882 46.5461 49.7586 46.0341C49.329 45.5222 49.3958 44.7589 49.9078 44.3293C50.4198 43.8996 51.1831 43.9664 51.6127 44.4784Z" fill="white"/>
<path d="M46.0341 49.7586C46.5461 50.1882 46.6129 50.9515 46.1833 51.4635C45.7537 51.9755 44.9904 52.0423 44.4784 51.6127C43.9664 51.1831 43.8997 50.4198 44.3293 49.9078C44.7589 49.3958 45.5222 49.329 46.0341 49.7586Z" fill="white"/>
<path d="M41.4573 55.9273C42.0361 56.2615 42.2344 57.0016 41.9002 57.5804C41.566 58.1592 40.8259 58.3575 40.2471 58.0234C39.6683 57.6892 39.47 56.9491 39.8042 56.3703C40.1384 55.7915 40.8785 55.5932 41.4573 55.9273Z" fill="white"/>
<path d="M38.0211 62.7971C38.6492 63.0257 38.973 63.7201 38.7444 64.3481C38.5158 64.9762 37.8214 65.3 37.1933 65.0714C36.5653 64.8428 36.2415 64.1484 36.4701 63.5203C36.6986 62.8923 37.3931 62.5685 38.0211 62.7971Z" fill="white"/>
<path d="M35.8301 70.1591C36.4883 70.2752 36.9277 70.9028 36.8117 71.561C36.6956 72.2192 36.068 72.6587 35.4098 72.5427C34.7516 72.4266 34.3121 71.799 34.4282 71.1408C34.5442 70.4826 35.1719 70.0431 35.8301 70.1591Z" fill="white"/>
<path d="M34.9507 77.7898C35.6191 77.7898 36.1609 78.3316 36.1609 79C36.1609 79.6683 35.6191 80.2101 34.9507 80.2101C34.2824 80.2101 33.7406 79.6683 33.7406 79C33.7406 78.3316 34.2824 77.7898 34.9507 77.7898Z" fill="white"/>
<path d="M35.4098 85.4573C36.068 85.3412 36.6957 85.7807 36.8117 86.4389C36.9278 87.0971 36.4883 87.7247 35.8301 87.8408C35.1719 87.9568 34.5442 87.5174 34.4282 86.8592C34.3121 86.201 34.7516 85.5733 35.4098 85.4573Z" fill="white"/>
<path d="M37.1933 92.9285C37.8214 92.6999 38.5158 93.0238 38.7444 93.6518C38.973 94.2798 38.6492 94.9743 38.0211 95.2028C37.3931 95.4314 36.6987 95.1076 36.4701 94.4796C36.2415 93.8515 36.5653 93.1571 37.1933 92.9285Z" fill="white"/>
<path d="M40.2472 99.9766C40.826 99.6424 41.5661 99.8407 41.9002 100.42C42.2344 100.998 42.0361 101.738 41.4573 102.073C40.8785 102.407 40.1384 102.208 39.8042 101.63C39.47 101.051 39.6684 100.311 40.2472 99.9766Z" fill="white"/>
<path d="M44.4785 106.387C44.9904 105.958 45.7537 106.024 46.1833 106.536C46.6129 107.048 46.5462 107.812 46.0342 108.241C45.5222 108.671 44.7589 108.604 44.3293 108.092C43.8997 107.58 43.9665 106.817 44.4785 106.387Z" fill="white"/>
<path d="M49.7587 111.966C50.1883 111.454 50.9516 111.387 51.4636 111.817C51.9755 112.246 52.0423 113.01 51.6127 113.522C51.1831 114.033 50.4198 114.1 49.9078 113.671C49.3958 113.241 49.3291 112.478 49.7587 111.966Z" fill="white"/>
<path d="M55.9274 116.543C56.2615 115.964 57.0017 115.766 57.5805 116.1C58.1593 116.434 58.3576 117.174 58.0234 117.753C57.6892 118.332 56.9491 118.53 56.3703 118.196C55.7915 117.862 55.5932 117.121 55.9274 116.543Z" fill="white"/>
<path d="M62.7971 119.979C63.0257 119.351 63.7201 119.027 64.3482 119.256C64.9762 119.484 65.3 120.179 65.0714 120.807C64.8429 121.435 64.1484 121.758 63.5204 121.53C62.8923 121.301 62.5685 120.607 62.7971 119.979Z" fill="white"/>
<path d="M70.1592 122.17C70.2752 121.512 70.9029 121.072 71.5611 121.188C72.2193 121.304 72.6587 121.932 72.5427 122.59C72.4266 123.248 71.799 123.688 71.1408 123.572C70.4826 123.456 70.0431 122.828 70.1592 122.17Z" fill="white"/>
<path d="M77.7899 123.049C77.7899 122.381 78.3317 121.839 79 121.839C79.6684 121.839 80.2102 122.381 80.2102 123.049C80.2102 123.718 79.6684 124.259 79 124.259C78.3317 124.259 77.7899 123.718 77.7899 123.049Z" fill="white"/>
<path d="M85.4573 122.59C85.3413 121.932 85.7808 121.304 86.4389 121.188C87.0971 121.072 87.7248 121.512 87.8408 122.17C87.9569 122.828 87.5174 123.456 86.8592 123.572C86.201 123.688 85.5734 123.248 85.4573 122.59Z" fill="white"/>
<path d="M92.9286 120.807C92.7 120.179 93.0238 119.484 93.6518 119.256C94.2799 119.027 94.9743 119.351 95.2029 119.979C95.4315 120.607 95.1077 121.301 94.4796 121.53C93.8516 121.758 93.1572 121.435 92.9286 120.807Z" fill="white"/>
<path d="M99.9766 117.753C99.6424 117.174 99.8408 116.434 100.42 116.1C100.998 115.766 101.738 115.964 102.073 116.543C102.407 117.121 102.209 117.862 101.63 118.196C101.051 118.53 100.311 118.332 99.9766 117.753Z" fill="white"/>
<path d="M106.387 113.521C105.958 113.009 106.024 112.246 106.536 111.817C107.048 111.387 107.812 111.454 108.241 111.966C108.671 112.478 108.604 113.241 108.092 113.671C107.58 114.1 106.817 114.033 106.387 113.521Z" fill="white"/>
<path d="M111.966 108.241C111.454 107.812 111.387 107.048 111.817 106.536C112.246 106.024 113.01 105.958 113.522 106.387C114.034 106.817 114.1 107.58 113.671 108.092C113.241 108.604 112.478 108.671 111.966 108.241Z" fill="white"/>
<path d="M116.543 102.073C115.964 101.738 115.766 100.998 116.1 100.419C116.434 99.8406 117.174 99.6423 117.753 99.9765C118.332 100.311 118.53 101.051 118.196 101.63C117.862 102.208 117.121 102.407 116.543 102.073Z" fill="white"/>
<path d="M119.979 95.2028C119.351 94.9742 119.027 94.2798 119.256 93.6517C119.484 93.0237 120.179 92.6999 120.807 92.9285C121.435 93.157 121.758 93.8515 121.53 94.4795C121.301 95.1076 120.607 95.4314 119.979 95.2028Z" fill="white"/>
<path d="M122.17 87.8407C121.512 87.7247 121.072 87.097 121.188 86.4388C121.304 85.7807 121.932 85.3412 122.59 85.4572C123.248 85.5733 123.688 86.2009 123.572 86.8591C123.456 87.5173 122.828 87.9568 122.17 87.8407Z" fill="white"/>
<path d="M123.049 80.2101C122.381 80.2101 121.839 79.6683 121.839 78.9999C121.839 78.3316 122.381 77.7898 123.049 77.7898C123.718 77.7898 124.259 78.3316 124.259 78.9999C124.259 79.6683 123.718 80.2101 123.049 80.2101Z" fill="white"/>
<path d="M122.59 72.5426C121.932 72.6587 121.304 72.2192 121.188 71.561C121.072 70.9028 121.512 70.2751 122.17 70.1591C122.828 70.043 123.456 70.4825 123.572 71.1407C123.688 71.7989 123.248 72.4265 122.59 72.5426Z" fill="white"/>
<path d="M120.807 65.0713C120.179 65.2999 119.484 64.9761 119.256 64.3481C119.027 63.72 119.351 63.0256 119.979 62.797C120.607 62.5684 121.301 62.8922 121.53 63.5203C121.758 64.1483 121.435 64.8428 120.807 65.0713Z" fill="white"/>
<path d="M117.753 58.0233C117.174 58.3575 116.434 58.1592 116.1 57.5804C115.766 57.0016 115.964 56.2615 116.543 55.9273C117.121 55.5931 117.862 55.7914 118.196 56.3702C118.53 56.949 118.332 57.6891 117.753 58.0233Z" fill="white"/>
<path d="M113.521 51.6126C113.01 52.0422 112.246 51.9755 111.817 51.4635C111.387 50.9515 111.454 50.1882 111.966 49.7586C112.478 49.329 113.241 49.3958 113.671 49.9077C114.1 50.4197 114.033 51.183 113.521 51.6126Z" fill="white"/>
<path d="M108.241 46.0341C107.812 46.5461 107.048 46.6129 106.536 46.1833C106.024 45.7537 105.958 44.9904 106.387 44.4784C106.817 43.9664 107.58 43.8996 108.092 44.3292C108.604 44.7588 108.671 45.5221 108.241 46.0341Z" fill="white"/>
<path d="M102.073 41.4572C101.738 42.036 100.998 42.2343 100.419 41.9002C99.8407 41.566 99.6424 40.8259 99.9765 40.2471C100.311 39.6683 101.051 39.47 101.63 39.8041C102.208 40.1383 102.407 40.8784 102.073 41.4572Z" fill="white"/>
<path d="M95.2028 38.0211C94.9742 38.6491 94.2798 38.9729 93.6518 38.7443C93.0237 38.5158 92.6999 37.8213 92.9285 37.1933C93.1571 36.5652 93.8515 36.2414 94.4796 36.47C95.1076 36.6986 95.4314 37.393 95.2028 38.0211Z" fill="white"/>
<path d="M87.8408 35.83C87.7247 36.4882 87.0971 36.9277 86.4389 36.8117C85.7807 36.6956 85.3412 36.0679 85.4573 35.4098C85.5733 34.7516 86.201 34.3121 86.8592 34.4281C87.5174 34.5442 87.9568 35.1718 87.8408 35.83Z" fill="white"/>
<path d="M80.2101 34.9507C80.2101 35.619 79.6683 36.1608 79 36.1608C78.3316 36.1608 77.7898 35.619 77.7898 34.9507C77.7898 34.2823 78.3316 33.7405 79 33.7405C79.6683 33.7405 80.2101 34.2823 80.2101 34.9507Z" fill="white"/>
<path d="M66.9818 29.8518C67.1893 30.6264 66.7296 31.4227 65.9549 31.6303C65.1802 31.8379 64.384 31.3781 64.1764 30.6035C63.9688 29.8288 64.4285 29.0325 65.2032 28.8249C65.9779 28.6173 66.7742 29.0771 66.9818 29.8518Z" fill="white"/>
<path d="M58.6298 32.6853C58.9688 33.4122 58.6543 34.2762 57.9274 34.6152C57.2006 34.9541 56.3366 34.6396 55.9976 33.9128C55.6587 33.1859 55.9731 32.3219 56.7 31.9829C57.4269 31.644 58.2909 31.9585 58.6298 32.6853Z" fill="white"/>
<path d="M50.8969 36.9262C51.3569 37.5831 51.1972 38.4886 50.5403 38.9487C49.8833 39.4087 48.9778 39.249 48.5178 38.592C48.0578 37.9351 48.2174 37.0296 48.8744 36.5695C49.5314 36.1095 50.4369 36.2692 50.8969 36.9262Z" fill="white"/>
<path d="M44.0178 42.4454C44.5849 43.0125 44.5849 43.932 44.0178 44.4991C43.4507 45.0662 42.5312 45.0662 41.9641 44.4991C41.397 43.932 41.397 43.0125 41.9641 42.4454C42.5312 41.8783 43.4507 41.8783 44.0178 42.4454Z" fill="white"/>
<path d="M38.2016 49.0754C38.8586 49.5354 39.0183 50.4409 38.5583 51.0979C38.0982 51.7548 37.1927 51.9145 36.5358 51.4545C35.8788 50.9945 35.7191 50.089 36.1792 49.432C36.6392 48.775 37.5447 48.6154 38.2016 49.0754Z" fill="white"/>
<path d="M33.6251 56.6145C34.352 56.9535 34.6665 57.8175 34.3275 58.5443C33.9886 59.2712 33.1245 59.5857 32.3977 59.2467C31.6708 58.9078 31.3563 58.0438 31.6953 57.3169C32.0342 56.59 32.8982 56.2756 33.6251 56.6145Z" fill="white"/>
<path d="M30.4273 64.834C31.202 65.0415 31.6617 65.8378 31.4541 66.6125C31.2466 67.3872 30.4503 67.8469 29.6756 67.6393C28.9009 67.4318 28.4412 66.6355 28.6487 65.8608C28.8563 65.0861 29.6526 64.6264 30.4273 64.834Z" fill="white"/>
<path d="M28.7053 73.4837C29.5043 73.5536 30.0953 74.258 30.0254 75.0569C29.9555 75.8559 29.2511 76.4469 28.4522 76.377C27.6532 76.3071 27.0622 75.6028 27.1321 74.8038C27.202 74.0048 27.9064 73.4138 28.7053 73.4837Z" fill="white"/>
<path d="M28.5115 82.301C29.3105 82.2311 30.0148 82.8222 30.0847 83.6211C30.1546 84.4201 29.5636 85.1244 28.7646 85.1943C27.9657 85.2642 27.2613 84.6732 27.1914 83.8743C27.1215 83.0753 27.7125 82.3709 28.5115 82.301Z" fill="white"/>
<path d="M29.8518 91.0182C30.6265 90.8106 31.4227 91.2703 31.6303 92.045C31.8379 92.8197 31.3782 93.616 30.6035 93.8236C29.8288 94.0311 29.0325 93.5714 28.8249 92.7967C28.6174 92.022 29.0771 91.2258 29.8518 91.0182Z" fill="white"/>
<path d="M32.6854 99.3701C33.4123 99.0311 34.2763 99.3456 34.6152 100.072C34.9542 100.799 34.6397 101.663 33.9128 102.002C33.186 102.341 32.3219 102.027 31.983 101.3C31.6441 100.573 31.9585 99.709 32.6854 99.3701Z" fill="white"/>
<path d="M36.9263 107.103C37.5832 106.643 38.4887 106.803 38.9487 107.46C39.4088 108.117 39.2491 109.022 38.5921 109.482C37.9352 109.942 37.0297 109.783 36.5696 109.126C36.1096 108.469 36.2693 107.563 36.9263 107.103Z" fill="white"/>
<path d="M42.4455 113.982C43.0126 113.415 43.9321 113.415 44.4992 113.982C45.0663 114.549 45.0663 115.469 44.4992 116.036C43.9321 116.603 43.0126 116.603 42.4455 116.036C41.8784 115.469 41.8784 114.549 42.4455 113.982Z" fill="white"/>
<path d="M49.0754 119.798C49.5355 119.141 50.441 118.982 51.0979 119.442C51.7549 119.902 51.9146 120.807 51.4545 121.464C50.9945 122.121 50.089 122.281 49.4321 121.821C48.7751 121.361 48.6154 120.455 49.0754 119.798Z" fill="white"/>
<path d="M56.6146 124.375C56.9536 123.648 57.8176 123.333 58.5444 123.672C59.2713 124.011 59.5858 124.875 59.2468 125.602C58.9079 126.329 58.0439 126.644 57.317 126.305C56.5901 125.966 56.2757 125.102 56.6146 124.375Z" fill="white"/>
<path d="M64.834 127.573C65.0415 126.798 65.8378 126.338 66.6125 126.546C67.3872 126.753 67.8469 127.55 67.6393 128.324C67.4318 129.099 66.6355 129.559 65.8608 129.351C65.0861 129.144 64.6264 128.347 64.834 127.573Z" fill="white"/>
<path d="M73.4837 129.295C73.5536 128.496 74.258 127.905 75.0569 127.975C75.8559 128.044 76.4469 128.749 76.377 129.548C76.3071 130.347 75.6028 130.938 74.8038 130.868C74.0049 130.798 73.4138 130.094 73.4837 129.295Z" fill="white"/>
<path d="M82.3011 129.488C82.2312 128.689 82.8222 127.985 83.6212 127.915C84.4202 127.845 85.1245 128.436 85.1944 129.235C85.2643 130.034 84.6733 130.739 83.8743 130.809C83.0754 130.878 82.371 130.287 82.3011 129.488Z" fill="white"/>
<path d="M91.0182 128.148C90.8106 127.373 91.2704 126.577 92.045 126.37C92.8197 126.162 93.616 126.622 93.8236 127.396C94.0312 128.171 93.5714 128.967 92.7967 129.175C92.022 129.383 91.2258 128.923 91.0182 128.148Z" fill="white"/>
<path d="M99.3701 125.315C99.0312 124.588 99.3456 123.724 100.073 123.385C100.799 123.046 101.663 123.36 102.002 124.087C102.341 124.814 102.027 125.678 101.3 126.017C100.573 126.356 99.7091 126.041 99.3701 125.315Z" fill="white"/>
<path d="M107.103 121.074C106.643 120.417 106.803 119.511 107.46 119.051C108.117 118.591 109.022 118.751 109.482 119.408C109.942 120.065 109.783 120.97 109.126 121.43C108.469 121.89 107.563 121.731 107.103 121.074Z" fill="white"/>
<path d="M113.982 115.554C113.415 114.987 113.415 114.068 113.982 113.501C114.549 112.934 115.469 112.934 116.036 113.501C116.603 114.068 116.603 114.987 116.036 115.554C115.469 116.121 114.549 116.121 113.982 115.554Z" fill="white"/>
<path d="M119.798 108.924C119.141 108.464 118.982 107.559 119.442 106.902C119.902 106.245 120.807 106.085 121.464 106.545C122.121 107.005 122.281 107.911 121.821 108.568C121.361 109.225 120.455 109.385 119.798 108.924Z" fill="white"/>
<path d="M124.375 101.385C123.648 101.046 123.334 100.182 123.672 99.4554C124.011 98.7286 124.875 98.4141 125.602 98.753C126.329 99.092 126.644 99.956 126.305 100.683C125.966 101.41 125.102 101.724 124.375 101.385Z" fill="white"/>
<path d="M127.573 93.1659C126.798 92.9584 126.338 92.1621 126.546 91.3874C126.753 90.6127 127.55 90.153 128.324 90.3605C129.099 90.5681 129.559 91.3644 129.351 92.1391C129.144 92.9138 128.347 93.3735 127.573 93.1659Z" fill="white"/>
<path d="M129.295 84.5162C128.496 84.4463 127.905 83.7419 127.975 82.943C128.044 82.144 128.749 81.553 129.548 81.6229C130.347 81.6928 130.938 82.3971 130.868 83.1961C130.798 83.995 130.094 84.5861 129.295 84.5162Z" fill="white"/>
<path d="M129.488 75.6988C128.689 75.7687 127.985 75.1777 127.915 74.3788C127.845 73.5798 128.436 72.8754 129.235 72.8055C130.034 72.7356 130.739 73.3267 130.809 74.1256C130.878 74.9246 130.287 75.6289 129.488 75.6988Z" fill="white"/>
<path d="M128.148 66.9817C127.374 67.1893 126.577 66.7296 126.37 65.9549C126.162 65.1802 126.622 64.3839 127.397 64.1763C128.171 63.9688 128.967 64.4285 129.175 65.2032C129.383 65.9779 128.923 66.7741 128.148 66.9817Z" fill="white"/>
<path d="M125.315 58.6298C124.588 58.9688 123.724 58.6543 123.385 57.9274C123.046 57.2006 123.36 56.3365 124.087 55.9976C124.814 55.6586 125.678 55.9731 126.017 56.7C126.356 57.4269 126.041 58.2909 125.315 58.6298Z" fill="white"/>
<path d="M121.074 50.8969C120.417 51.3569 119.511 51.1972 119.051 50.5403C118.591 49.8833 118.751 48.9778 119.408 48.5178C120.065 48.0578 120.97 48.2174 121.43 48.8744C121.89 49.5314 121.731 50.4369 121.074 50.8969Z" fill="white"/>
<path d="M115.554 44.0177C114.987 44.5849 114.068 44.5849 113.501 44.0177C112.934 43.4506 112.934 42.5312 113.501 41.9641C114.068 41.397 114.987 41.397 115.554 41.9641C116.122 42.5312 116.122 43.4506 115.554 44.0177Z" fill="white"/>
<path d="M108.925 38.2016C108.465 38.8585 107.559 39.0182 106.902 38.5582C106.245 38.0982 106.085 37.1927 106.545 36.5357C107.005 35.8787 107.911 35.7191 108.568 36.1791C109.225 36.6391 109.385 37.5446 108.925 38.2016Z" fill="white"/>
<path d="M101.385 33.6251C101.046 34.3519 100.182 34.6664 99.4555 34.3275C98.7286 33.9885 98.4142 33.1245 98.7531 32.3976C99.092 31.6708 99.9561 31.3563 100.683 31.6952C101.41 32.0342 101.724 32.8982 101.385 33.6251Z" fill="white"/>
<path d="M93.166 30.4272C92.9584 31.2019 92.1621 31.6616 91.3875 31.454C90.6128 31.2465 90.153 30.4502 90.3606 29.6755C90.5682 28.9008 91.3645 28.4411 92.1392 28.6486C92.9138 28.8562 93.3736 29.6525 93.166 30.4272Z" fill="white"/>
<path d="M84.5162 28.7053C84.4463 29.5042 83.742 30.0953 82.943 30.0254C82.1441 29.9555 81.553 29.2511 81.6229 28.4521C81.6928 27.6532 82.3972 27.0622 83.1962 27.1321C83.9951 27.202 84.5861 27.9063 84.5162 28.7053Z" fill="white"/>
<path d="M75.6989 28.5115C75.7688 29.3104 75.1777 30.0148 74.3788 30.0847C73.5798 30.1546 72.8755 29.5636 72.8056 28.7646C72.7357 27.9656 73.3267 27.2613 74.1256 27.1914C74.9246 27.1215 75.629 27.7125 75.6989 28.5115Z" fill="white"/>
<path d="M70.0795 22.5729C70.242 23.4944 69.6267 24.3731 68.7052 24.5356C67.7837 24.6981 66.905 24.0828 66.7425 23.1613C66.5801 22.2398 67.1953 21.3611 68.1168 21.1987C69.0383 21.0362 69.917 21.6514 70.0795 22.5729Z" fill="white"/>
<path d="M60.4165 24.9792C60.7365 25.8585 60.2832 26.8307 59.4039 27.1507C58.5247 27.4707 57.5525 27.0174 57.2325 26.1381C56.9124 25.2589 57.3658 24.2867 58.245 23.9666C59.1243 23.6466 60.0965 24.1 60.4165 24.9792Z" fill="white"/>
<path d="M51.3182 29.0268C51.7861 29.8371 51.5084 30.8733 50.6981 31.3411C49.8878 31.809 48.8517 31.5313 48.3838 30.721C47.916 29.9107 48.1936 28.8745 49.0039 28.4067C49.8142 27.9388 50.8504 28.2165 51.3182 29.0268Z" fill="white"/>
<path d="M43.061 34.5929C43.6625 35.3097 43.569 36.3783 42.8522 36.9798C42.1354 37.5812 41.0668 37.4877 40.4654 36.7709C39.8639 36.0542 39.9574 34.9855 40.6742 34.3841C41.391 33.7826 42.4596 33.8761 43.061 34.5929Z" fill="white"/>
<path d="M35.8958 41.5083C36.6126 42.1097 36.7061 43.1784 36.1047 43.8951C35.5032 44.6119 34.4346 44.7054 33.7178 44.104C33.001 43.5025 32.9075 42.4339 33.509 41.7171C34.1104 41.0003 35.1791 40.9069 35.8958 41.5083Z" fill="white"/>
<path d="M30.0403 49.5628C30.8507 50.0307 31.1283 51.0668 30.6605 51.8772C30.1926 52.6875 29.1565 52.9651 28.3461 52.4973C27.5358 52.0294 27.2582 50.9933 27.726 50.183C28.1938 49.3726 29.23 49.095 30.0403 49.5628Z" fill="white"/>
<path d="M25.6724 58.5119C26.5517 58.8319 27.005 59.8041 26.685 60.6834C26.365 61.5627 25.3928 62.016 24.5135 61.696C23.6343 61.376 23.1809 60.4037 23.501 59.5245C23.821 58.6452 24.7932 58.1919 25.6724 58.5119Z" fill="white"/>
<path d="M22.9249 68.0834C23.8464 68.2458 24.4616 69.1245 24.2992 70.046C24.1367 70.9675 23.258 71.5828 22.3365 71.4203C21.415 71.2578 20.7998 70.3791 20.9622 69.4576C21.1247 68.5362 22.0034 67.9209 22.9249 68.0834Z" fill="white"/>
<path d="M21.8811 77.9865C22.8168 77.9865 23.5753 78.745 23.5753 79.6807C23.5753 80.6163 22.8168 81.3749 21.8811 81.3749C20.9454 81.3749 20.1869 80.6163 20.1869 79.6807C20.1869 78.745 20.9454 77.9865 21.8811 77.9865Z" fill="white"/>
<path d="M22.5729 87.9206C23.4944 87.7581 24.3731 88.3734 24.5356 89.2949C24.698 90.2163 24.0828 91.095 23.1613 91.2575C22.2398 91.42 21.3611 90.8047 21.1986 89.8833C21.0362 88.9618 21.6514 88.0831 22.5729 87.9206Z" fill="white"/>
<path d="M24.9792 97.5835C25.8585 97.2634 26.8307 97.7168 27.1507 98.596C27.4707 99.4753 27.0174 100.447 26.1381 100.768C25.2588 101.088 24.2866 100.634 23.9666 99.7549C23.6466 98.8757 24.0999 97.9035 24.9792 97.5835Z" fill="white"/>
<path d="M29.0269 106.682C29.8372 106.214 30.8734 106.492 31.3412 107.302C31.809 108.112 31.5314 109.148 30.7211 109.616C29.9108 110.084 28.8746 109.807 28.4068 108.996C27.9389 108.186 28.2166 107.15 29.0269 106.682Z" fill="white"/>
<path d="M34.593 114.939C35.3097 114.338 36.3784 114.431 36.9798 115.148C37.5813 115.865 37.4878 116.933 36.771 117.535C36.0542 118.136 34.9856 118.043 34.3841 117.326C33.7827 116.609 33.8762 115.54 34.593 114.939Z" fill="white"/>
<path d="M41.5083 122.104C42.1098 121.387 43.1784 121.294 43.8952 121.895C44.612 122.497 44.7055 123.565 44.104 124.282C43.5026 124.999 42.4339 125.092 41.7172 124.491C41.0004 123.89 40.9069 122.821 41.5083 122.104Z" fill="white"/>
<path d="M49.5629 127.96C50.0307 127.149 51.0669 126.872 51.8772 127.34C52.6875 127.807 52.9652 128.844 52.4973 129.654C52.0295 130.464 50.9933 130.742 50.183 130.274C49.3727 129.806 49.0951 128.77 49.5629 127.96Z" fill="white"/>
<path d="M58.5119 132.328C58.8319 131.448 59.8041 130.995 60.6834 131.315C61.5626 131.635 62.016 132.607 61.6959 133.486C61.3759 134.366 60.4037 134.819 59.5245 134.499C58.6452 134.179 58.1919 133.207 58.5119 132.328Z" fill="white"/>
<path d="M68.0834 135.075C68.2458 134.154 69.1245 133.538 70.046 133.701C70.9675 133.863 71.5828 134.742 71.4203 135.664C71.2578 136.585 70.3791 137.2 69.4576 137.038C68.5362 136.875 67.9209 135.997 68.0834 135.075Z" fill="white"/>
<path d="M77.9865 136.119C77.9865 135.183 78.7451 134.425 79.6807 134.425C80.6164 134.425 81.3749 135.183 81.3749 136.119C81.3749 137.055 80.6164 137.813 79.6807 137.813C78.7451 137.813 77.9865 137.055 77.9865 136.119Z" fill="white"/>
<path d="M87.9205 135.427C87.758 134.506 88.3733 133.627 89.2948 133.464C90.2163 133.302 91.095 133.917 91.2574 134.839C91.4199 135.76 90.8046 136.639 89.8832 136.801C88.9617 136.964 88.083 136.348 87.9205 135.427Z" fill="white"/>
<path d="M97.5835 133.021C97.2634 132.142 97.7168 131.169 98.596 130.849C99.4753 130.529 100.447 130.983 100.768 131.862C101.088 132.741 100.634 133.713 99.7549 134.033C98.8757 134.353 97.9035 133.9 97.5835 133.021Z" fill="white"/>
<path d="M106.682 128.973C106.214 128.163 106.492 127.127 107.302 126.659C108.112 126.191 109.148 126.469 109.616 127.279C110.084 128.089 109.806 129.125 108.996 129.593C108.186 130.061 107.15 129.784 106.682 128.973Z" fill="white"/>
<path d="M114.939 123.407C114.337 122.69 114.431 121.622 115.148 121.02C115.865 120.419 116.933 120.512 117.535 121.229C118.136 121.946 118.043 123.014 117.326 123.616C116.609 124.217 115.54 124.124 114.939 123.407Z" fill="white"/>
<path d="M122.104 116.492C121.387 115.89 121.294 114.822 121.895 114.105C122.497 113.388 123.565 113.295 124.282 113.896C124.999 114.497 125.092 115.566 124.491 116.283C123.89 117 122.821 117.093 122.104 116.492Z" fill="white"/>
<path d="M127.96 108.437C127.149 107.969 126.872 106.933 127.34 106.123C127.807 105.312 128.844 105.035 129.654 105.503C130.464 105.97 130.742 107.007 130.274 107.817C129.806 108.627 128.77 108.905 127.96 108.437Z" fill="white"/>
<path d="M132.328 99.4881C131.448 99.1681 130.995 98.1959 131.315 97.3166C131.635 96.4374 132.607 95.984 133.486 96.304C134.366 96.6241 134.819 97.5963 134.499 98.4755C134.179 99.3548 133.207 99.8081 132.328 99.4881Z" fill="white"/>
<path d="M135.075 89.9167C134.154 89.7542 133.538 88.8755 133.701 87.954C133.863 87.0325 134.742 86.4173 135.664 86.5797C136.585 86.7422 137.2 87.6209 137.038 88.5424C136.875 89.4639 135.997 90.0791 135.075 89.9167Z" fill="white"/>
<path d="M136.119 80.0135C135.183 80.0135 134.425 79.2549 134.425 78.3192C134.425 77.3836 135.183 76.6251 136.119 76.6251C137.055 76.6251 137.813 77.3836 137.813 78.3192C137.813 79.2549 137.055 80.0135 136.119 80.0135Z" fill="white"/>
<path d="M135.427 70.0794C134.506 70.2419 133.627 69.6266 133.464 68.7052C133.302 67.7837 133.917 66.905 134.839 66.7425C135.76 66.58 136.639 67.1953 136.801 68.1168C136.964 69.0382 136.349 69.917 135.427 70.0794Z" fill="white"/>
<path d="M133.021 60.4166C132.142 60.7366 131.169 60.2832 130.849 59.404C130.529 58.5247 130.983 57.5525 131.862 57.2325C132.741 56.9125 133.713 57.3658 134.033 58.2451C134.353 59.1243 133.9 60.0965 133.021 60.4166Z" fill="white"/>
<path d="M128.973 51.3184C128.163 51.7862 127.127 51.5086 126.659 50.6982C126.191 49.8879 126.469 48.8518 127.279 48.3839C128.089 47.9161 129.125 48.1937 129.593 49.004C130.061 49.8144 129.783 50.8505 128.973 51.3184Z" fill="white"/>
<path d="M123.407 43.0611C122.69 43.6625 121.622 43.569 121.02 42.8522C120.419 42.1355 120.512 41.0668 121.229 40.4654C121.946 39.864 123.014 39.9574 123.616 40.6742C124.217 41.391 124.124 42.4596 123.407 43.0611Z" fill="white"/>
<path d="M116.492 35.8958C115.89 36.6126 114.822 36.7061 114.105 36.1046C113.388 35.5032 113.295 34.4346 113.896 33.7178C114.497 33.001 115.566 32.9075 116.283 33.509C117 34.1104 117.093 35.179 116.492 35.8958Z" fill="white"/>
<path d="M108.437 30.0403C107.969 30.8506 106.933 31.1283 106.123 30.6604C105.312 30.1926 105.035 29.1564 105.503 28.3461C105.97 27.5358 107.007 27.2581 107.817 27.726C108.627 28.1938 108.905 29.23 108.437 30.0403Z" fill="white"/>
<path d="M99.4881 25.6724C99.1681 26.5516 98.1959 27.005 97.3166 26.685C96.4374 26.3649 95.984 25.3927 96.3041 24.5135C96.6241 23.6342 97.5963 23.1809 98.4755 23.5009C99.3548 23.8209 99.8082 24.7931 99.4881 25.6724Z" fill="white"/>
<path d="M89.9167 22.9249C89.7542 23.8464 88.8755 24.4617 87.954 24.2992C87.0325 24.1367 86.4173 23.258 86.5797 22.3365C86.7422 21.4151 87.6209 20.7998 88.5424 20.9622C89.4639 21.1247 90.0791 22.0034 89.9167 22.9249Z" fill="white"/>
<path d="M80.0135 21.8811C80.0135 22.8168 79.2549 23.5753 78.3193 23.5753C77.3836 23.5753 76.6251 22.8168 76.6251 21.8811C76.6251 20.9455 77.3836 20.1869 78.3193 20.1869C79.2549 20.1869 80.0135 20.9455 80.0135 21.8811Z" fill="white"/>
<path d="M63.4092 17.2785C63.6859 18.3114 63.073 19.3731 62.0401 19.6499C61.0071 19.9266 59.9454 19.3137 59.6687 18.2807C59.3919 17.2478 60.0049 16.1861 61.0378 15.9093C62.0707 15.6326 63.1324 16.2456 63.4092 17.2785Z" fill="white"/>
<path d="M52.9282 20.9235C53.3801 21.8927 52.9608 23.0447 51.9917 23.4966C51.0225 23.9486 49.8705 23.5293 49.4185 22.5601C48.9666 21.5909 49.3859 20.4389 50.3551 19.987C51.3242 19.5351 52.4763 19.9544 52.9282 20.9235Z" fill="white"/>
<path d="M43.2394 26.333C43.8527 27.2089 43.6399 28.4163 42.7639 29.0296C41.8879 29.643 40.6806 29.4301 40.0672 28.5541C39.4539 27.6782 39.6668 26.4708 40.5427 25.8575C41.4187 25.2441 42.626 25.457 43.2394 26.333Z" fill="white"/>
<path d="M34.6372 33.3429C35.3933 34.0991 35.3933 35.325 34.6372 36.0812C33.881 36.8373 32.6551 36.8373 31.8989 36.0812C31.1428 35.325 31.1428 34.0991 31.8989 33.3429C32.6551 32.5868 33.881 32.5868 34.6372 33.3429Z" fill="white"/>
<path d="M27.3829 41.7401C28.2588 42.3535 28.4717 43.5608 27.8584 44.4367C27.245 45.3127 26.0377 45.5256 25.1617 44.9122C24.2858 44.2989 24.0729 43.0916 24.6862 42.2156C25.2996 41.3396 26.5069 41.1268 27.3829 41.7401Z" fill="white"/>
<path d="M21.697 51.2694C22.6661 51.7213 23.0854 52.8734 22.6335 53.8425C22.1816 54.8117 21.0295 55.231 20.0604 54.7791C19.0912 54.3271 18.6719 53.1751 19.1239 52.2059C19.5758 51.2368 20.7278 50.8175 21.697 51.2694Z" fill="white"/>
<path d="M17.7522 61.6414C18.7851 61.9182 19.398 62.9799 19.1213 64.0128C18.8445 65.0457 17.7828 65.6587 16.7499 65.3819C15.717 65.1052 15.104 64.0435 15.3808 63.0105C15.6575 61.9776 16.7192 61.3647 17.7522 61.6414Z" fill="white"/>
<path d="M15.6683 72.5406C16.7336 72.6338 17.5217 73.5729 17.4285 74.6382C17.3353 75.7035 16.3961 76.4915 15.3308 76.3983C14.2656 76.3051 13.4775 75.366 13.5707 74.3007C13.6639 73.2354 14.6031 72.4474 15.6683 72.5406Z" fill="white"/>
<path d="M15.5088 83.6361C16.5741 83.5429 17.5132 84.3309 17.6064 85.3962C17.6996 86.4615 16.9116 87.4006 15.8463 87.4938C14.781 87.587 13.8419 86.799 13.7487 85.7337C13.6555 84.6684 14.4435 83.7293 15.5088 83.6361Z" fill="white"/>
<path d="M17.2785 94.5909C18.3114 94.3141 19.3731 94.9271 19.6498 95.96C19.9266 96.9929 19.3136 98.0546 18.2807 98.3314C17.2478 98.6082 16.1861 97.9952 15.9093 96.9623C15.6326 95.9293 16.2455 94.8676 17.2785 94.5909Z" fill="white"/>
<path d="M20.9235 105.072C21.8926 104.62 23.0446 105.039 23.4966 106.008C23.9485 106.978 23.5292 108.13 22.56 108.582C21.5909 109.033 20.4389 108.614 19.9869 107.645C19.535 106.676 19.9543 105.524 20.9235 105.072Z" fill="white"/>
<path d="M26.3331 114.761C27.2091 114.147 28.4164 114.36 29.0297 115.236C29.6431 116.112 29.4302 117.32 28.5542 117.933C27.6783 118.546 26.471 118.333 25.8576 117.457C25.2442 116.581 25.4571 115.374 26.3331 114.761Z" fill="white"/>
<path d="M33.343 123.363C34.0991 122.607 35.3251 122.607 36.0812 123.363C36.8374 124.119 36.8374 125.345 36.0812 126.101C35.3251 126.857 34.0991 126.857 33.343 126.101C32.5868 125.345 32.5868 124.119 33.343 123.363Z" fill="white"/>
<path d="M41.7401 130.617C42.3535 129.741 43.5608 129.528 44.4368 130.142C45.3127 130.755 45.5256 131.962 44.9123 132.838C44.2989 133.714 43.0916 133.927 42.2156 133.314C41.3397 132.7 41.1268 131.493 41.7401 130.617Z" fill="white"/>
<path d="M51.2694 136.303C51.7214 135.334 52.8734 134.915 53.8425 135.367C54.8117 135.818 55.231 136.97 54.7791 137.94C54.3271 138.909 53.1751 139.328 52.206 138.876C51.2368 138.424 50.8175 137.272 51.2694 136.303Z" fill="white"/>
<path d="M61.6413 140.248C61.9181 139.215 62.9798 138.602 64.0127 138.879C65.0456 139.155 65.6586 140.217 65.3818 141.25C65.105 142.283 64.0433 142.896 63.0104 142.619C61.9775 142.342 61.3645 141.281 61.6413 140.248Z" fill="white"/>
<path d="M72.5406 142.332C72.6338 141.266 73.5729 140.478 74.6382 140.572C75.7035 140.665 76.4915 141.604 76.3983 142.669C76.3051 143.735 75.366 144.523 74.3007 144.429C73.2354 144.336 72.4474 143.397 72.5406 142.332Z" fill="white"/>
<path d="M83.6361 142.491C83.5429 141.426 84.331 140.487 85.3962 140.394C86.4615 140.3 87.4007 141.088 87.4939 142.154C87.5871 143.219 86.799 144.158 85.7337 144.251C84.6685 144.345 83.7293 143.557 83.6361 142.491Z" fill="white"/>
<path d="M94.5908 140.721C94.314 139.689 94.927 138.627 95.9599 138.35C96.9929 138.073 98.0546 138.686 98.3313 139.719C98.6081 140.752 97.9951 141.814 96.9622 142.091C95.9293 142.367 94.8676 141.754 94.5908 140.721Z" fill="white"/>
<path d="M105.072 137.077C104.62 136.107 105.039 134.955 106.008 134.503C106.977 134.052 108.13 134.471 108.581 135.44C109.033 136.409 108.614 137.561 107.645 138.013C106.676 138.465 105.524 138.046 105.072 137.077Z" fill="white"/>
<path d="M114.761 131.667C114.147 130.791 114.36 129.584 115.236 128.97C116.112 128.357 117.319 128.57 117.933 129.446C118.546 130.322 118.333 131.529 117.457 132.143C116.581 132.756 115.374 132.543 114.761 131.667Z" fill="white"/>
<path d="M123.363 124.657C122.607 123.901 122.607 122.675 123.363 121.919C124.119 121.163 125.345 121.163 126.101 121.919C126.857 122.675 126.857 123.901 126.101 124.657C125.345 125.413 124.119 125.413 123.363 124.657Z" fill="white"/>
<path d="M130.617 116.26C129.741 115.646 129.528 114.439 130.142 113.563C130.755 112.687 131.962 112.474 132.838 113.088C133.714 113.701 133.927 114.908 133.314 115.784C132.7 116.66 131.493 116.873 130.617 116.26Z" fill="white"/>
<path d="M136.303 106.731C135.334 106.279 134.915 105.127 135.367 104.157C135.818 103.188 136.97 102.769 137.94 103.221C138.909 103.673 139.328 104.825 138.876 105.794C138.424 106.763 137.272 107.182 136.303 106.731Z" fill="white"/>
<path d="M140.248 96.3587C139.215 96.0819 138.602 95.0202 138.879 93.9873C139.155 92.9544 140.217 92.3414 141.25 92.6181C142.283 92.8949 142.896 93.9566 142.619 94.9895C142.342 96.0225 141.281 96.6354 140.248 96.3587Z" fill="white"/>
<path d="M142.332 85.4595C141.266 85.3663 140.478 84.4272 140.572 83.3619C140.665 82.2966 141.604 81.5086 142.669 81.6018C143.734 81.695 144.522 82.6341 144.429 83.6994C144.336 84.7647 143.397 85.5527 142.332 85.4595Z" fill="white"/>
<path d="M142.491 74.3638C141.426 74.457 140.487 73.669 140.394 72.6037C140.3 71.5384 141.088 70.5993 142.154 70.5061C143.219 70.4129 144.158 71.2009 144.251 72.2662C144.344 73.3315 143.556 74.2706 142.491 74.3638Z" fill="white"/>
<path d="M140.722 63.4091C139.689 63.6859 138.627 63.0729 138.35 62.04C138.073 61.0071 138.686 59.9454 139.719 59.6686C140.752 59.3918 141.814 60.0048 142.091 61.0377C142.367 62.0706 141.755 63.1324 140.722 63.4091Z" fill="white"/>
<path d="M137.077 52.9283C136.107 53.3802 134.955 52.9609 134.503 51.9918C134.051 51.0226 134.471 49.8706 135.44 49.4187C136.409 48.9667 137.561 49.386 138.013 50.3552C138.465 51.3244 138.046 52.4764 137.077 52.9283Z" fill="white"/>
<path d="M131.667 43.2395C130.791 43.8529 129.584 43.64 128.97 42.7641C128.357 41.8881 128.57 40.6808 129.446 40.0674C130.322 39.4541 131.529 39.6669 132.142 40.5429C132.756 41.4189 132.543 42.6262 131.667 43.2395Z" fill="white"/>
<path d="M124.657 34.6372C123.901 35.3933 122.675 35.3933 121.919 34.6372C121.163 33.881 121.163 32.6551 121.919 31.8989C122.675 31.1428 123.901 31.1428 124.657 31.8989C125.413 32.6551 125.413 33.881 124.657 34.6372Z" fill="white"/>
<path d="M116.26 27.3829C115.647 28.2589 114.439 28.4717 113.563 27.8584C112.687 27.245 112.474 26.0377 113.088 25.1617C113.701 24.2858 114.908 24.0729 115.784 24.6863C116.66 25.2996 116.873 26.5069 116.26 27.3829Z" fill="white"/>
<path d="M106.731 21.6968C106.279 22.666 105.127 23.0853 104.157 22.6334C103.188 22.1815 102.769 21.0294 103.221 20.0603C103.673 19.0911 104.825 18.6718 105.794 19.1237C106.763 19.5757 107.182 20.7277 106.731 21.6968Z" fill="white"/>
<path d="M96.3587 17.7521C96.0819 18.785 95.0202 19.398 93.9873 19.1212C92.9544 18.8444 92.3414 17.7827 92.6182 16.7498C92.8949 15.7169 93.9566 15.1039 94.9896 15.3807C96.0225 15.6575 96.6355 16.7192 96.3587 17.7521Z" fill="white"/>
<path d="M85.4594 15.6684C85.3662 16.7336 84.4271 17.5217 83.3618 17.4285C82.2965 17.3353 81.5085 16.3961 81.6017 15.3309C81.6949 14.2656 82.6341 13.4775 83.6993 13.5707C84.7646 13.6639 85.5526 14.6031 85.4594 15.6684Z" fill="white"/>
<path d="M74.3639 15.5088C74.4571 16.5741 73.6691 17.5132 72.6038 17.6064C71.5385 17.6996 70.5994 16.9116 70.5062 15.8463C70.413 14.7811 71.201 13.8419 72.2663 13.7487C73.3316 13.6555 74.2707 14.4435 74.3639 15.5088Z" fill="white"/>
<path d="M67.6163 9.73613C67.8252 10.9209 67.0341 12.0507 65.8494 12.2596C64.6646 12.4685 63.5349 11.6774 63.326 10.4926C63.1171 9.30789 63.9081 8.17812 65.0929 7.96922C66.2776 7.76031 67.4074 8.55139 67.6163 9.73613Z" fill="white"/>
<path d="M55.7617 12.7652C56.1731 13.8957 55.5903 15.1456 54.4598 15.5571C53.3293 15.9685 52.0793 15.3857 51.6679 14.2552C51.2564 13.1247 51.8393 11.8748 52.9698 11.4633C54.1002 11.0518 55.3502 11.6347 55.7617 12.7652Z" fill="white"/>
<path d="M44.6132 17.8065C45.2147 18.8483 44.8577 20.1805 43.8159 20.782C42.774 21.3835 41.4418 21.0266 40.8403 19.9847C40.2388 18.9429 40.5958 17.6107 41.6376 17.0092C42.6794 16.4077 44.0117 16.7646 44.6132 17.8065Z" fill="white"/>
<path d="M34.5095 24.7074C35.2827 25.629 35.1625 27.0029 34.241 27.7762C33.3194 28.5495 31.9455 28.4293 31.1722 27.5078C30.3989 26.5862 30.5191 25.2122 31.4407 24.4389C32.3622 23.6657 33.7362 23.7859 34.5095 24.7074Z" fill="white"/>
<path d="M25.7576 33.258C26.6791 34.0313 26.7994 35.4053 26.0261 36.3268C25.2528 37.2484 23.8788 37.3686 22.9573 36.5953C22.0357 35.822 21.9155 34.4481 22.6888 33.5265C23.4621 32.6049 24.836 32.4847 25.7576 33.258Z" fill="white"/>
<path d="M18.6235 43.1985C19.6653 43.8 20.0223 45.1322 19.4208 46.174C18.8192 47.2159 17.487 47.5728 16.4452 46.9713C15.4034 46.3698 15.0464 45.0376 15.6479 43.9958C16.2494 42.9539 17.5816 42.5969 18.6235 43.1985Z" fill="white"/>
<path d="M13.3238 54.2268C14.4543 54.6382 15.0371 55.8882 14.6257 57.0187C14.2142 58.1492 12.9643 58.732 11.8338 58.3206C10.7033 57.9091 10.1204 56.6591 10.5319 55.5287C10.9434 54.3982 12.1933 53.8153 13.3238 54.2268Z" fill="white"/>
<path d="M10.0198 66.0075C11.2045 66.2164 11.9956 67.3462 11.7867 68.5309C11.5778 69.7157 10.448 70.5067 9.26325 70.2978C8.07851 70.0889 7.28743 68.9592 7.49634 67.7744C7.70524 66.5897 8.83501 65.7986 10.0198 66.0075Z" fill="white"/>
<path d="M8.81157 78.1832C10.0146 78.1832 10.9898 79.1584 10.9898 80.3614C10.9898 81.5644 10.0146 82.5397 8.81157 82.5397C7.60855 82.5397 6.63331 81.5644 6.63331 80.3614C6.63331 79.1584 7.60855 78.1832 8.81157 78.1832Z" fill="white"/>
<path d="M9.73606 90.3838C10.9208 90.1749 12.0506 90.966 12.2595 92.1507C12.4684 93.3354 11.6773 94.4652 10.4926 94.6741C9.30781 94.883 8.17804 94.0919 7.96914 92.9072C7.76024 91.7225 8.55131 90.5927 9.73606 90.3838Z" fill="white"/>
<path d="M12.7651 102.238C13.8956 101.827 15.1455 102.41 15.557 103.54C15.9685 104.671 15.3856 105.921 14.2551 106.332C13.1246 106.744 11.8747 106.161 11.4632 105.03C11.0518 103.9 11.6346 102.65 12.7651 102.238Z" fill="white"/>
<path d="M17.8066 113.387C18.8485 112.785 20.1807 113.142 20.7822 114.184C21.3837 115.226 21.0267 116.558 19.9849 117.16C18.9431 117.761 17.6108 117.404 17.0093 116.363C16.4078 115.321 16.7648 113.989 17.8066 113.387Z" fill="white"/>
<path d="M24.7075 123.491C25.6291 122.717 27.003 122.838 27.7763 123.759C28.5496 124.681 28.4294 126.055 27.5078 126.828C26.5863 127.601 25.2123 127.481 24.439 126.559C23.6657 125.638 23.7859 124.264 24.7075 123.491Z" fill="white"/>
<path d="M33.258 132.243C34.0313 131.321 35.4053 131.201 36.3269 131.974C37.2484 132.747 37.3686 134.121 36.5953 135.043C35.822 135.964 34.4481 136.085 33.5265 135.311C32.605 134.538 32.4848 133.164 33.258 132.243Z" fill="white"/>
<path d="M43.1984 139.377C43.7999 138.335 45.1321 137.978 46.174 138.579C47.2158 139.181 47.5728 140.513 46.9713 141.555C46.3698 142.597 45.0376 142.954 43.9957 142.352C42.9539 141.751 42.5969 140.418 43.1984 139.377Z" fill="white"/>
<path d="M54.2266 144.676C54.6381 143.546 55.8881 142.963 57.0185 143.374C58.149 143.786 58.7319 145.036 58.3204 146.166C57.909 147.297 56.659 147.88 55.5285 147.468C54.3981 147.057 53.8152 145.807 54.2266 144.676Z" fill="white"/>
<path d="M66.0075 147.98C66.2164 146.796 67.3462 146.004 68.5309 146.213C69.7157 146.422 70.5068 147.552 70.2979 148.737C70.089 149.922 68.9592 150.713 67.7744 150.504C66.5897 150.295 65.7986 149.165 66.0075 147.98Z" fill="white"/>
<path d="M78.1832 149.188C78.1832 147.985 79.1584 147.01 80.3615 147.01C81.5645 147.01 82.5397 147.985 82.5397 149.188C82.5397 150.391 81.5645 151.367 80.3615 151.367C79.1584 151.367 78.1832 150.391 78.1832 149.188Z" fill="white"/>
<path d="M90.3837 148.264C90.1748 147.079 90.9659 145.949 92.1506 145.74C93.3354 145.531 94.4651 146.323 94.674 147.507C94.8829 148.692 94.0919 149.822 92.9071 150.031C91.7224 150.24 90.5926 149.449 90.3837 148.264Z" fill="white"/>
<path d="M102.238 145.235C101.827 144.104 102.41 142.854 103.54 142.443C104.671 142.032 105.921 142.614 106.332 143.745C106.744 144.875 106.161 146.125 105.03 146.537C103.9 146.948 102.65 146.365 102.238 145.235Z" fill="white"/>
<path d="M113.387 140.194C112.785 139.152 113.142 137.819 114.184 137.218C115.226 136.616 116.558 136.973 117.16 138.015C117.761 139.057 117.404 140.389 116.362 140.991C115.321 141.592 113.988 141.235 113.387 140.194Z" fill="white"/>
<path d="M123.491 133.292C122.717 132.371 122.837 130.997 123.759 130.224C124.681 129.45 126.055 129.571 126.828 130.492C127.601 131.414 127.481 132.788 126.559 133.561C125.638 134.334 124.264 134.214 123.491 133.292Z" fill="white"/>
<path d="M132.242 124.742C131.321 123.969 131.201 122.595 131.974 121.673C132.747 120.751 134.121 120.631 135.043 121.405C135.964 122.178 136.085 123.552 135.311 124.473C134.538 125.395 133.164 125.515 132.242 124.742Z" fill="white"/>
<path d="M139.377 114.802C138.335 114.2 137.978 112.868 138.579 111.826C139.181 110.784 140.513 110.427 141.555 111.029C142.597 111.63 142.954 112.962 142.352 114.004C141.751 115.046 140.418 115.403 139.377 114.802Z" fill="white"/>
<path d="M144.676 103.773C143.546 103.362 142.963 102.112 143.374 100.981C143.786 99.851 145.036 99.2681 146.166 99.6796C147.297 100.091 147.88 101.341 147.468 102.471C147.057 103.602 145.807 104.185 144.676 103.773Z" fill="white"/>
<path d="M147.98 91.9926C146.796 91.7837 146.004 90.6539 146.213 89.4691C146.422 88.2844 147.552 87.4933 148.737 87.7022C149.922 87.9111 150.713 89.0409 150.504 90.2256C150.295 91.4104 149.165 92.2015 147.98 91.9926Z" fill="white"/>
<path d="M149.188 79.8167C147.985 79.8167 147.01 78.8415 147.01 77.6385C147.01 76.4354 147.985 75.4602 149.188 75.4602C150.391 75.4602 151.367 76.4354 151.367 77.6385C151.367 78.8415 150.391 79.8167 149.188 79.8167Z" fill="white"/>
<path d="M148.264 67.6162C147.079 67.8251 145.95 67.034 145.741 65.8493C145.532 64.6645 146.323 63.5348 147.508 63.3259C148.692 63.117 149.822 63.908 150.031 65.0928C150.24 66.2775 149.449 67.4073 148.264 67.6162Z" fill="white"/>
<path d="M145.235 55.7618C144.104 56.1732 142.854 55.5904 142.443 54.4599C142.032 53.3294 142.614 52.0795 143.745 51.668C144.875 51.2565 146.125 51.8394 146.537 52.9699C146.948 54.1003 146.365 55.3503 145.235 55.7618Z" fill="white"/>
<path d="M140.193 44.6133C139.152 45.2148 137.819 44.8578 137.218 43.816C136.616 42.7741 136.973 41.4419 138.015 40.8404C139.057 40.2389 140.389 40.5959 140.991 41.6377C141.592 42.6795 141.235 44.0117 140.193 44.6133Z" fill="white"/>
<path d="M133.292 34.5095C132.371 35.2828 130.997 35.1626 130.224 34.241C129.45 33.3194 129.571 31.9455 130.492 31.1722C131.414 30.3989 132.788 30.5191 133.561 31.4407C134.334 32.3623 134.214 33.7362 133.292 34.5095Z" fill="white"/>
<path d="M124.742 25.7576C123.969 26.6792 122.595 26.7994 121.673 26.0261C120.752 25.2528 120.631 23.8789 121.405 22.9573C122.178 22.0357 123.552 21.9155 124.473 22.6888C125.395 23.4621 125.515 24.8361 124.742 25.7576Z" fill="white"/>
<path d="M114.802 18.6232C114.2 19.6651 112.868 20.0221 111.826 19.4205C110.784 18.819 110.427 17.4868 111.029 16.445C111.63 15.4031 112.962 15.0462 114.004 15.6477C115.046 16.2492 115.403 17.5814 114.802 18.6232Z" fill="white"/>
<path d="M103.773 13.3237C103.362 14.4542 102.112 15.037 100.981 14.6256C99.851 14.2141 99.2681 12.9641 99.6796 11.8337C100.091 10.7032 101.341 10.1203 102.471 10.5318C103.602 10.9432 104.185 12.1932 103.773 13.3237Z" fill="white"/>
<path d="M91.9925 10.0198C91.7836 11.2045 90.6538 11.9956 89.4691 11.7867C88.2843 11.5778 87.4933 10.448 87.7022 9.26328C87.9111 8.07854 89.0408 7.28746 90.2256 7.49637C91.4103 7.70527 92.2014 8.83504 91.9925 10.0198Z" fill="white"/>
<path d="M79.8168 8.81158C79.8168 10.0146 78.8416 10.9898 77.6385 10.9898C76.4355 10.9898 75.4603 10.0146 75.4603 8.81158C75.4603 7.60856 76.4355 6.63332 77.6385 6.63332C78.8416 6.63332 79.8168 7.60856 79.8168 8.81158Z" fill="white"/>
<path d="M59.8366 4.70513C60.1825 5.99627 59.4163 7.3234 58.1252 7.66936C56.834 8.01532 55.5069 7.2491 55.1609 5.95796C54.815 4.66682 55.5812 3.33968 56.8723 2.99372C58.1635 2.64776 59.4906 3.41398 59.8366 4.70513Z" fill="white"/>
<path d="M47.2265 9.16159C47.7914 10.373 47.2673 11.8131 46.0559 12.378C44.8444 12.9429 43.4044 12.4188 42.8395 11.2073C42.2746 9.99585 42.7987 8.55583 44.0101 7.99092C45.2216 7.42601 46.6616 7.95014 47.2265 9.16159Z" fill="white"/>
<path d="M35.5819 15.7397C36.3486 16.8347 36.0825 18.3438 34.9875 19.1105C33.8926 19.8772 32.3834 19.6111 31.6167 18.5162C30.85 17.4212 31.1161 15.912 32.2111 15.1454C33.306 14.3787 34.8152 14.6448 35.5819 15.7397Z" fill="white"/>
<path d="M25.2565 24.2403C26.2017 25.1855 26.2017 26.718 25.2565 27.6632C24.3113 28.6083 22.7789 28.6083 21.8337 27.6632C20.8885 26.718 20.8885 25.1855 21.8337 24.2403C22.7789 23.2952 24.3113 23.2952 25.2565 24.2403Z" fill="white"/>
<path d="M16.5641 34.4048C17.6591 35.1714 17.9252 36.6806 17.1585 37.7756C16.3918 38.8705 14.8826 39.1366 13.7877 38.3699C12.6927 37.6032 12.4266 36.0941 13.1933 34.9991C13.96 33.9042 15.4692 33.6381 16.5641 34.4048Z" fill="white"/>
<path d="M9.76881 45.9242C10.9803 46.4891 11.5044 47.9291 10.9395 49.1406C10.3746 50.352 8.93454 50.8762 7.72309 50.3113C6.51164 49.7463 5.98752 48.3063 6.55242 47.0949C7.11733 45.8834 8.55736 45.3593 9.76881 45.9242Z" fill="white"/>
<path d="M5.07702 58.4487C6.36816 58.7947 7.13438 60.1218 6.78842 61.413C6.44246 62.7041 5.11533 63.4703 3.82419 63.1244C2.53305 62.7784 1.76682 61.4513 2.11278 60.1601C2.45875 58.869 3.78588 58.1028 5.07702 58.4487Z" fill="white"/>
<path d="M2.63138 71.5973C3.96298 71.7138 4.94801 72.8877 4.83151 74.2193C4.71501 75.5509 3.54109 76.536 2.20949 76.4195C0.87789 76.303 -0.107144 75.129 0.00935572 73.7974C0.125856 72.4658 1.29977 71.4808 2.63138 71.5973Z" fill="white"/>
<path d="M2.50612 84.9711C3.83772 84.8546 5.01164 85.8396 5.12814 87.1712C5.24464 88.5028 4.2596 89.6767 2.928 89.7932C1.5964 89.9097 0.422482 88.9247 0.305982 87.5931C0.189481 86.2615 1.17452 85.0876 2.50612 84.9711Z" fill="white"/>
<path d="M4.70511 98.1635C5.99625 97.8175 7.32339 98.5837 7.66935 99.8749C8.01531 101.166 7.24909 102.493 5.95794 102.839C4.6668 103.185 3.33967 102.419 2.99371 101.128C2.64775 99.8366 3.41397 98.5094 4.70511 98.1635Z" fill="white"/>
<path d="M9.16153 110.774C10.373 110.209 11.813 110.733 12.3779 111.944C12.9428 113.156 12.4187 114.596 11.2072 115.161C9.99579 115.726 8.55577 115.201 7.99086 113.99C7.42595 112.779 7.95008 111.339 9.16153 110.774Z" fill="white"/>
<path d="M15.7399 122.418C16.8349 121.652 18.344 121.918 19.1107 123.013C19.8774 124.108 19.6113 125.617 18.5164 126.383C17.4214 127.15 15.9123 126.884 15.1456 125.789C14.3789 124.694 14.645 123.185 15.7399 122.418Z" fill="white"/>
<path d="M24.2405 132.744C25.1856 131.798 26.7181 131.798 27.6633 132.744C28.6084 133.689 28.6084 135.221 27.6633 136.166C26.7181 137.112 25.1856 137.112 24.2405 136.166C23.2953 135.221 23.2953 133.689 24.2405 132.744Z" fill="white"/>
<path d="M34.4048 141.436C35.1715 140.341 36.6807 140.075 37.7756 140.842C38.8706 141.608 39.1367 143.117 38.37 144.212C37.6033 145.307 36.0941 145.573 34.9992 144.807C33.9042 144.04 33.6381 142.531 34.4048 141.436Z" fill="white"/>
<path d="M45.9242 148.231C46.4891 147.02 47.9291 146.496 49.1406 147.06C50.3521 147.625 50.8762 149.065 50.3113 150.277C49.7464 151.488 48.3063 152.012 47.0949 151.448C45.8834 150.883 45.3593 149.443 45.9242 148.231Z" fill="white"/>
<path d="M58.4486 152.923C58.7946 151.632 60.1217 150.866 61.4128 151.211C62.704 151.557 63.4702 152.885 63.1242 154.176C62.7783 155.467 61.4512 156.233 60.16 155.887C58.8689 155.541 58.1026 154.214 58.4486 152.923Z" fill="white"/>
<path d="M71.5974 155.369C71.7139 154.037 72.8878 153.052 74.2194 153.169C75.551 153.285 76.5361 154.459 76.4196 155.791C76.3031 157.122 75.1291 158.107 73.7975 157.991C72.4659 157.874 71.4809 156.7 71.5974 155.369Z" fill="white"/>
<path d="M84.9711 155.494C84.8546 154.162 85.8397 152.988 87.1713 152.872C88.5029 152.755 89.6768 153.74 89.7933 155.072C89.9098 156.404 88.9248 157.578 87.5931 157.694C86.2615 157.811 85.0876 156.826 84.9711 155.494Z" fill="white"/>
<path d="M98.1634 153.295C97.8175 152.004 98.5837 150.676 99.8748 150.33C101.166 149.984 102.493 150.751 102.839 152.042C103.185 153.333 102.419 154.66 101.128 155.006C99.8365 155.352 98.5094 154.586 98.1634 153.295Z" fill="white"/>
<path d="M110.773 148.838C110.208 147.627 110.733 146.187 111.944 145.622C113.156 145.057 114.596 145.581 115.16 146.793C115.725 148.004 115.201 149.444 113.99 150.009C112.778 150.574 111.338 150.05 110.773 148.838Z" fill="white"/>
<path d="M122.418 142.26C121.651 141.165 121.918 139.656 123.012 138.889C124.107 138.123 125.617 138.389 126.383 139.484C127.15 140.579 126.884 142.088 125.789 142.855C124.694 143.621 123.185 143.355 122.418 142.26Z" fill="white"/>
<path d="M132.743 133.759C131.798 132.814 131.798 131.282 132.743 130.337C133.689 129.391 135.221 129.391 136.166 130.337C137.111 131.282 137.111 132.814 136.166 133.759C135.221 134.705 133.689 134.705 132.743 133.759Z" fill="white"/>
<path d="M141.436 123.595C140.341 122.828 140.075 121.319 140.842 120.224C141.608 119.129 143.117 118.863 144.212 119.63C145.307 120.397 145.573 121.906 144.807 123.001C144.04 124.096 142.531 124.362 141.436 123.595Z" fill="white"/>
<path d="M148.231 112.076C147.02 111.511 146.496 110.071 147.061 108.859C147.625 107.648 149.065 107.124 150.277 107.689C151.488 108.254 152.013 109.694 151.448 110.905C150.883 112.116 149.443 112.641 148.231 112.076Z" fill="white"/>
<path d="M152.923 99.5514C151.632 99.2054 150.866 97.8783 151.212 96.5871C151.558 95.296 152.885 94.5298 154.176 94.8757C155.467 95.2217 156.233 96.5488 155.887 97.84C155.541 99.1311 154.214 99.8973 152.923 99.5514Z" fill="white"/>
<path d="M155.369 86.4027C154.037 86.2862 153.052 85.1123 153.168 83.7807C153.285 82.4491 154.459 81.464 155.79 81.5805C157.122 81.697 158.107 82.871 157.991 84.2026C157.874 85.5342 156.7 86.5192 155.369 86.4027Z" fill="white"/>
<path d="M155.494 73.0287C154.162 73.1452 152.988 72.1602 152.872 70.8286C152.755 69.497 153.74 68.3231 155.072 68.2066C156.404 68.0901 157.577 69.0751 157.694 70.4067C157.81 71.7383 156.825 72.9122 155.494 73.0287Z" fill="white"/>
<path d="M153.295 59.8364C152.004 60.1824 150.677 59.4162 150.331 58.125C149.985 56.8339 150.751 55.5068 152.042 55.1608C153.333 54.8148 154.66 55.5811 155.006 56.8722C155.352 58.1633 154.586 59.4905 153.295 59.8364Z" fill="white"/>
<path d="M148.838 47.2266C147.627 47.7915 146.187 47.2674 145.622 46.056C145.057 44.8445 145.581 43.4045 146.793 42.8396C148.004 42.2747 149.444 42.7988 150.009 44.0102C150.574 45.2217 150.05 46.6617 148.838 47.2266Z" fill="white"/>
<path d="M142.26 35.582C141.165 36.3487 139.656 36.0826 138.889 34.9876C138.123 33.8927 138.389 32.3835 139.484 31.6168C140.579 30.8501 142.088 31.1162 142.854 32.2112C143.621 33.3061 143.355 34.8153 142.26 35.582Z" fill="white"/>
<path d="M133.76 25.2565C132.814 26.2017 131.282 26.2017 130.337 25.2565C129.392 24.3113 129.392 22.7789 130.337 21.8337C131.282 20.8885 132.814 20.8885 133.76 21.8337C134.705 22.7789 134.705 24.3113 133.76 25.2565Z" fill="white"/>
<path d="M123.595 16.5642C122.828 17.6591 121.319 17.9252 120.224 17.1585C119.129 16.3919 118.863 14.8827 119.63 13.7877C120.397 12.6928 121.906 12.4267 123.001 13.1934C124.096 13.9601 124.362 15.4692 123.595 16.5642Z" fill="white"/>
<path d="M112.076 9.76854C111.511 10.98 110.071 11.5041 108.859 10.9392C107.648 10.3743 107.124 8.93427 107.689 7.72282C108.254 6.51137 109.694 5.98725 110.905 6.55215C112.116 7.11706 112.641 8.55709 112.076 9.76854Z" fill="white"/>
<path d="M99.5514 5.07689C99.2054 6.36803 97.8783 7.13425 96.5871 6.78829C95.296 6.44233 94.5298 5.11519 94.8757 3.82405C95.2217 2.53291 96.5488 1.76669 97.84 2.11265C99.1311 2.45861 99.8973 3.78574 99.5514 5.07689Z" fill="white"/>
<path d="M86.4026 2.63138C86.2861 3.96298 85.1122 4.94801 83.7806 4.83151C82.449 4.71501 81.464 3.54109 81.5805 2.20949C81.697 0.87789 82.8709 -0.107144 84.2025 0.00935572C85.5341 0.125856 86.5191 1.29977 86.4026 2.63138Z" fill="white"/>
<path d="M73.0289 2.5061C73.1454 3.8377 72.1603 5.01162 70.8287 5.12812C69.4971 5.24462 68.3232 4.25959 68.2067 2.92799C68.0902 1.59638 69.0752 0.422465 70.4068 0.305965C71.7384 0.189465 72.9124 1.1745 73.0289 2.5061Z" fill="white"/>
</svg>
